<svg xmlns:xlink="http://www.w3.org/1999/xlink" xmlns="http://www.w3.org/2000/svg" viewBox="0 0 161 72" width="161"  height="72" ><g fill="none" fill-rule="evenodd"><path d="M158.487 62.722c-.734 0-1.44.237-1.9.897v-.73h-1.694v6.207h1.74v-3.402c0-.935.62-1.402 1.367-1.402.793 0 1.26.492 1.26 1.39v3.414H161v-3.953c0-1.44-1.047-2.421-2.513-2.421zm-8.3 1.44c.747 0 1.247.45 1.407 1.244h-2.86c.153-.77.633-1.243 1.453-1.243zm.013-1.44c-1.933 0-3.266 1.332-3.266 3.287 0 1.953 1.373 3.248 3.353 3.248 1.087 0 2.02-.295 2.754-.943l-1.02-1.076a2.677 2.677 0 01-1.634.596c-.82 0-1.473-.39-1.66-1.288h4.58c.02-.14.033-.371.033-.563-.007-1.935-1.28-3.261-3.14-3.261zm-8.093 1.537c.967 0 1.62.705 1.62 1.634 0 .922-.653 1.627-1.62 1.627-.993 0-1.626-.73-1.626-1.627 0-.903.633-1.634 1.626-1.634zm-.44-1.537c-1.572 0-2.973 1.262-2.973 3.17 0 1.904 1.4 3.166 2.974 3.166.892 0 1.546-.32 1.985-.84v.436c0 1.07-.759 1.647-1.839 1.647a3.924 3.924 0 01-2.133-.635l-.62 1.365c.727.494 1.806.75 2.826.75 2.133 0 3.486-1.205 3.486-3.197v-5.696h-1.706v.692c-.44-.525-1.1-.858-2-.858zm-6.992 0c-.734 0-1.44.237-1.9.897v-.73h-1.694v6.207h1.74v-3.402c0-.935.62-1.402 1.366-1.402.794 0 1.26.492 1.26 1.39v3.414h1.741v-3.953c0-1.44-1.047-2.421-2.513-2.421zm-5.5.166h-1.734v3.415c0 .993-.573 1.397-1.32 1.397-.753 0-1.32-.404-1.32-1.397v-3.415h-1.74v3.562c0 1.96 1.44 2.807 3.06 2.807 1.614 0 3.054-.847 3.054-2.807v-3.562zm-8.24-.166c-.793 0-1.413.262-1.82.845v-.679h-1.687v6.208h1.74v-3.383c0-.922.554-1.396 1.36-1.396.353 0 .767.077 1.053.199l.26-1.66a2.733 2.733 0 00-.906-.134zm-8.214 1.44c.748 0 1.247.45 1.407 1.244h-2.86c.154-.77.634-1.243 1.453-1.243zm.014-1.44c-1.933 0-3.266 1.332-3.266 3.287 0 1.953 1.374 3.248 3.353 3.248 1.087 0 2.02-.295 2.753-.943l-1.02-1.076a2.675 2.675 0 01-1.633.596c-.82 0-1.473-.39-1.66-1.288h4.58c.02-.14.033-.371.033-.563-.006-1.935-1.28-3.261-3.14-3.261zm-9.14-2.858h-1.74v9.232h1.74v-3.402c0-.935.62-1.402 1.367-1.402.793 0 1.26.492 1.26 1.39v3.414h1.74v-3.953c0-1.44-1.046-2.421-2.513-2.421-.706 0-1.394.218-1.853.832v-3.69zm-5.719 2.858c-2.06 0-3.44 1.39-3.44 3.267 0 1.883 1.38 3.268 3.44 3.268 1.08 0 1.986-.417 2.593-1.167l-1.24-1.019c-.366.385-.846.629-1.406.629-.9 0-1.614-.673-1.614-1.711 0-1.031.72-1.71 1.62-1.71.567 0 .987.217 1.38.621l1.253-1.006c-.593-.75-1.506-1.172-2.586-1.172zm-5.88-2.941c-.627 0-1.107.474-1.107 1.076 0 .603.48 1.064 1.107 1.064s1.113-.461 1.113-1.064c0-.602-.486-1.076-1.113-1.076zm-.86 9.315h1.74v-6.208h-1.74v6.208zm-1.673-5.779c-.86-.403-1.667-.59-2.7-.59-1.7 0-2.727.757-2.727 2.032 0 1.057.74 1.685 2.234 1.884l.526.07c.747.102 1.074.269 1.074.57 0 .365-.387.583-1.193.583-.974 0-1.647-.256-2.2-.608l-.687 1.268c.84.57 1.993.73 2.873.73 1.873 0 2.966-.826 2.966-2.107 0-1.051-.78-1.654-2.18-1.858l-.573-.084c-.586-.083-1.053-.173-1.053-.532 0-.339.334-.563.993-.563.727.006 1.547.262 2.06.506l.587-1.3zm-7.313-.595c-.794 0-1.413.262-1.82.845v-.679h-1.686v6.208h1.739v-3.383c0-.922.554-1.396 1.36-1.396.353 0 .766.077 1.054.199l.26-1.66a2.733 2.733 0 00-.907-.134zm-8.213 1.44c.747 0 1.246.45 1.406 1.244h-2.86c.154-.77.634-1.243 1.454-1.243zm.013-1.44c-1.933 0-3.266 1.332-3.266 3.287 0 1.953 1.373 3.248 3.353 3.248 1.086 0 2.02-.295 2.753-.943l-1.02-1.076a2.672 2.672 0 01-1.633.596c-.82 0-1.473-.39-1.66-1.288h4.58c.02-.14.033-.371.033-.563-.006-1.935-1.28-3.261-3.14-3.261zm-3.133-2.595h-1.933l-2.687 7.156-2.673-7.156h-1.98l3.506 8.97h2.26l3.507-8.97zm-16.486 4.036c.746 0 1.246.449 1.407 1.243h-2.86c.153-.77.632-1.243 1.453-1.243zm.013-1.441c-1.933 0-3.266 1.332-3.266 3.287 0 1.953 1.373 3.248 3.353 3.248 1.086 0 2.02-.295 2.753-.943l-1.02-1.076a2.673 2.673 0 01-1.633.596c-.82 0-1.474-.39-1.66-1.288h4.58c.02-.14.033-.371.033-.563-.007-1.935-1.28-3.261-3.14-3.261zm-9.14-2.858h-1.74v9.232h1.74v-3.402c0-.935.62-1.402 1.367-1.402.794 0 1.26.492 1.26 1.39v3.414h1.74v-3.953c0-1.44-1.047-2.421-2.513-2.421-.707 0-1.394.218-1.853.832v-3.69zm-5.72 2.858c-2.059 0-3.44 1.39-3.44 3.267 0 1.883 1.381 3.268 3.44 3.268 1.08 0 1.987-.417 2.594-1.167l-1.24-1.019c-.367.385-.847.629-1.407.629-.9 0-1.613-.673-1.613-1.711 0-1.031.72-1.71 1.62-1.71.567 0 .986.217 1.38.621l1.253-1.006c-.593-.75-1.506-1.172-2.587-1.172zm-4.693.595c-.86-.403-1.666-.59-2.7-.59-1.7 0-2.726.757-2.726 2.032 0 1.057.74 1.685 2.234 1.884l.526.07c.746.102 1.073.269 1.073.57 0 .365-.386.583-1.193.583-.973 0-1.646-.256-2.2-.608l-.686 1.268c.84.57 1.992.73 2.873.73 1.873 0 2.966-.826 2.966-2.107 0-1.051-.78-1.654-2.18-1.858l-.573-.084c-.586-.083-1.054-.173-1.054-.532 0-.339.334-.563.994-.563.726.006 1.547.262 2.06.506l.586-1.3zm-8.059-3.536c-.627 0-1.107.474-1.107 1.076 0 .603.48 1.064 1.107 1.064.626 0 1.113-.461 1.113-1.064 0-.602-.487-1.076-1.113-1.076zm-.86 9.315h1.74v-6.208h-1.74v6.208zm-5.273-4.817c.993 0 1.666.73 1.666 1.71s-.673 1.71-1.666 1.71c-1.02 0-1.667-.762-1.667-1.71s.647-1.71 1.667-1.71zm-.32-1.557c-1.78 0-3.127 1.403-3.127 3.267 0 1.864 1.347 3.268 3.127 3.268.886 0 1.513-.346 1.933-.847v.686h1.7v-9.225H22.18v3.664c-.42-.486-1.033-.813-1.9-.813zm-8 1.557c.994 0 1.667.73 1.667 1.71s-.673 1.71-1.667 1.71c-1.02 0-1.666-.762-1.666-1.71s.646-1.71 1.666-1.71zm3.313-1.39h-1.7v.684c-.426-.505-1.046-.851-1.933-.851-1.78 0-3.126 1.403-3.126 3.267 0 1.864 1.346 3.268 3.126 3.268.887 0 1.513-.346 1.933-.847v.686h1.7v-6.208zM3.76 61.702c.92 0 1.653.192 1.653 1.038 0 .87-.72 1.057-1.647 1.057H1.86v-2.095h1.9zm.186 3.664c1.027 0 1.673.231 1.673 1.07 0 .859-.646 1.09-1.673 1.09L1.86 67.52v-2.153h2.086zM0 60.127v8.97h4.04c2.24 0 3.513-.846 3.513-2.57 0-.967-.7-1.736-1.553-2.011.78-.276 1.353-1 1.353-1.903 0-1.711-1.367-2.486-3.54-2.486H0zm65.981-34.85a3.46 3.46 0 00-1.646-.415h-12.74a3.474 3.474 0 100 6.947h8.715a11.033 11.033 0 01-10.303 7.026c-6.097 0-11.057-4.959-11.057-11.053 0-6.095 4.96-11.053 11.057-11.053 2.514 0 4.882.82 6.847 2.375a3.476 3.476 0 004.882-.571 3.472 3.472 0 00-.57-4.879 18.068 18.068 0 00-11.16-3.873C40.079 9.78 32 17.856 32 27.782c0 9.925 8.078 17.999 18.007 17.999 9.664 0 17.566-7.555 17.99-17.199a3.472 3.472 0 00-2.016-3.306m33.995-15.152c-1.77-.836-3.89-.092-4.733 1.663L84.5 34.13 73.756 11.787c-.843-1.755-2.962-2.499-4.732-1.663a3.506 3.506 0 00-1.678 4.69L81.27 43.777a3.545 3.545 0 002.836 1.98c.073.008.147.01.22.015.051.002.101.01.152.01h.044c.05 0 .102-.008.153-.01.074-.005.145-.007.218-.015a3.541 3.541 0 002.835-1.98l13.926-28.961a3.507 3.507 0 00-1.678-4.691M22.242 27.906c2.89-1.076 5.016-3.9 5.016-7.425 0-6.675-5.065-9.7-13.12-9.7H2.28C1.02 10.782 0 11.815 0 13.09v30.384c0 1.275 1.02 2.307 2.28 2.307h12.7C23.28 45.78 28 42.48 28 35.756c0-3.774-2.595-6.774-5.758-7.85zM6.898 16.93h7.043c3.409 0 6.127.75 6.127 4.05 0 3.4-2.668 4.125-6.104 4.125H6.898V16.93zm7.734 22.725l-7.734-.026v-8.4h7.734c3.805 0 6.202.9 6.202 4.175 0 3.35-2.397 4.25-6.202 4.25zM160.482 40.57L138.455 2.573a3.486 3.486 0 00-4.75-1.268 3.455 3.455 0 00-1.28 1.283v.002l-9.793 16.89a3.457 3.457 0 001.273 4.731 3.477 3.477 0 001.737.465c1.2 0 2.37-.621 3.014-1.732l6.79-11.71 19.013 32.797a3.479 3.479 0 003.015 1.732c.59 0 1.188-.15 1.736-.464a3.455 3.455 0 001.272-4.73" fill="#1E3480"></path><path d="M132.286 35.78h-14.573c-2.05 0-3.713-1.342-3.713-3 0-1.656 1.662-3 3.713-3h14.573c2.051 0 3.714 1.344 3.714 3 0 1.658-1.663 3-3.714 3" fill="#F29213"></path><path d="M126.294 45.78h-14.59c-2.046 0-3.704-1.342-3.704-3 0-1.656 1.658-3 3.704-3h14.59c2.046 0 3.706 1.344 3.706 3 0 1.658-1.66 3-3.706 3" fill="#00A983"></path></g></svg>