<svg xmlns:xlink="http://www.w3.org/1999/xlink" xmlns="http://www.w3.org/2000/svg" id="Layer_1" data-name="Layer 1" width="500" height="166.47" viewBox="0 0 500 166.47">
  <title>BavariaDirekt_logo_kl_Abstand</title>
  <path d="M384.59,517.77a7.12,7.12,0,1,1-7.12-7.12,7.12,7.12,0,0,1,7.12,7.12Zm14.23,25.62H366.08v-4.27h32.74v-2.85a7.11,7.11,0,0,0-7.12-7.11H363.24a7.11,7.11,0,0,0-7.12,7.11v15.66h32.74v4.27H356.12V559a7.12,7.12,0,0,0,7.12,7.12H391.7a7.12,7.12,0,0,0,7.12-7.12V543.39Z" transform="translate(-250 -407.51)" fill="red"/>
  <polygon points="184.8 136.07 184.8 133.01 170.19 133.01 170.19 158.65 173.88 158.65 173.88 146.4 182.99 146.4 182.99 143.38 173.88 143.38 173.88 136.07 184.8 136.07 184.8 136.07" fill="red"/>
  <path d="M442.81,541.59a2.35,2.35,0,1,0-2.33,2.22,2.3,2.3,0,0,0,2.33-2.22Zm-.11,24.57V547.5h-6v2.36a23.59,23.59,0,0,1,2.44.29v16Z" transform="translate(-250 -407.51)" fill="red" fill-rule="evenodd"/>
  <path d="M464.43,566.16V553.21c0-3.8-2.18-6.08-6.06-6.08a6.65,6.65,0,0,0-5.86,3l-.07-2.61H449v18.66h3.58V555.32a4.9,4.9,0,0,1,4.69-5.13c2.4,0,3.58,1.25,3.58,4.06v11.91Z" transform="translate(-250 -407.51)" fill="red"/>
  <path d="M483.68,566.16V553.32c0-4.35-2.21-6.19-7.19-6.19a20.29,20.29,0,0,0-5.94.84v2.92a15.31,15.31,0,0,1,5.24-1c3.28,0,4.35,1.1,4.35,3.5v1l-1.88,0a15.64,15.64,0,0,0-5.35.85,5.6,5.6,0,0,0-3.83,5.65c0,4.09,2.62,5.64,5.75,5.64a8,8,0,0,0,5.39-1.95l.07,1.58ZM480.14,562a6.12,6.12,0,0,1-4.31,1.74c-2.4,0-3.17-1.48-3.17-3,0-2.8,2-3.76,6.16-3.76h1.32v5Z" transform="translate(-250 -407.51)" fill="red" fill-rule="evenodd"/>
  <path d="M505.05,566.16V553.21c0-3.8-2.17-6.08-6-6.08a6.64,6.64,0,0,0-5.87,3l-.08-2.61h-3.43v18.66h3.58V555.32a4.9,4.9,0,0,1,4.69-5.13c2.4,0,3.58,1.25,3.58,4.06v11.91Z" transform="translate(-250 -407.51)" fill="red"/>
  <path d="M524.05,566.16v-2.8H513.32c1.07-1.63,3-4.17,5-6.64,2.21-2.73,4.54-5.46,5.38-6.46V547.5h-14v2.8h9.7c-.81,1-2.62,3-4.61,5.61-2.4,3.1-4.58,6.12-5.46,7.49v2.76Z" transform="translate(-250 -407.51)" fill="red"/>
  <path d="M543.24,566.2V547.5h-3.43l-.07,1.58a6.58,6.58,0,0,0-5.13-2c-4.24,0-7.64,3.5-7.64,9.7,0,6.68,3.1,9.44,7.38,9.44a5.81,5.81,0,0,0,5.35-2.73v2.88c0,3.21-1.7,4.76-5.42,4.76a18,18,0,0,1-4.51-.59l-.55,2.73A24.13,24.13,0,0,0,535,574c2.7,0,4.84-.66,6.24-2s2-3.09,2-5.75Zm-3.58-8.67c0,3.5-1.69,5.87-4.43,5.87-3.5,0-4.38-3.1-4.38-6.57,0-4.24,1.95-6.68,4.76-6.68a5.29,5.29,0,0,1,4,1.77v5.61Z" transform="translate(-250 -407.51)" fill="red" fill-rule="evenodd"/>
  <path d="M559.47,550.89V547.5a7.63,7.63,0,0,0-1.4-.12A5.88,5.88,0,0,0,552.8,551l-.08-3.54h-3.43v18.66h3.58V556.05a5.23,5.23,0,0,1,5.31-5.27,7.39,7.39,0,0,1,1.29.11Z" transform="translate(-250 -407.51)" fill="red"/>
  <path d="M578.29,566.16V547.5h-3.58v10.88a4.93,4.93,0,0,1-4.73,5.13c-2.39,0-3.53-1.15-3.53-3.91V547.5h-3.59v12.87c0,4.1,2.18,6.16,6,6.16a6.63,6.63,0,0,0,5.9-3l0,2.62Z" transform="translate(-250 -407.51)" fill="red"/>
  <path d="M600.68,556.57c0-6.12-2.65-9.44-7.26-9.44a5.92,5.92,0,0,0-5.58,3.1l-.07-2.73h-3.43v26.12h3.58V565a7.09,7.09,0,0,0,4.72,1.51c5.2,0,8-3.65,8-10Zm-3.83.08a12.85,12.85,0,0,1-.52,3.72,4.26,4.26,0,0,1-4.43,3.25,5.46,5.46,0,0,1-4-1.74v-4.79c0-4.06,1.62-6.94,4.53-6.94,3.25,0,4.4,2.73,4.4,6.5Z" transform="translate(-250 -407.51)" fill="red" fill-rule="evenodd"/>
  <path d="M622.24,556.57c0-6.12-2.66-9.44-7.27-9.44a5.9,5.9,0,0,0-5.57,3.1l-.08-2.73h-3.43v26.12h3.58V565a7.11,7.11,0,0,0,4.72,1.51c5.21,0,8-3.65,8-10Zm-3.84.08a12.52,12.52,0,0,1-.52,3.72,4.25,4.25,0,0,1-4.42,3.25,5.47,5.47,0,0,1-4-1.74v-4.79c0-4.06,1.62-6.94,4.54-6.94,3.25,0,4.39,2.73,4.39,6.5Z" transform="translate(-250 -407.51)" fill="red" fill-rule="evenodd"/>
  <path d="M642.39,555.76c0-5.61-2.54-8.71-7.53-8.71-5.34,0-8.26,4-8.26,9.82s3.25,9.74,8.93,9.74a18.87,18.87,0,0,0,5.68-.71l-.7-2.73a18.17,18.17,0,0,1-4.47.6c-3.57,0-5.34-2.07-5.64-5.83h11.92c0-.63.07-1.41.07-2.18Zm-3.76-.41h-8.3c.22-3.58,1.66-5.68,4.46-5.68,2.62,0,3.84,1.77,3.84,4.84v.84Z" transform="translate(-250 -407.51)" fill="red" fill-rule="evenodd"/>
  <path d="M250,473.39V432.16l34.82-.12q6.89,0,10.2,2.87c2.22,1.9,3.33,4.77,3.33,8.58s-1.27,6.62-3.82,8.39a9,9,0,0,1,3.76,3.67,12.47,12.47,0,0,1,1.22,5.87q0,5.85-3.33,8.88t-10.21,3Zm33.72-33.94H259.26v9.25h24.46q5.26,0,5.26-4.74Q289,439.45,283.72,439.45Zm1.16,16.65H259.26v9.83h25.62c3.5,0,5.26-1.65,5.26-5S288.38,456.1,284.88,456.1Z" transform="translate(-250 -407.51)" fill="#0d57a6"/>
  <path d="M312.92,473.39c-3.12,0-5.51-.78-7.17-2.37a10.39,10.39,0,0,1,0-13.47q2.49-2.37,7.17-2.37h22.21v-1.39c0-2.35-1.15-3.53-3.47-3.53H307.14v-6.65h26.72q5.26,0,7.46,2.4a9.6,9.6,0,0,1,2.2,6.74v20.64Zm1.51-6.65h20.7v-4.91h-20.7a2.22,2.22,0,0,0-1.71.66,2.55,2.55,0,0,0-.61,1.77,2.64,2.64,0,0,0,.61,1.79A2.17,2.17,0,0,0,314.43,466.74Z" transform="translate(-250 -407.51)" fill="#0d57a6"/>
  <path d="M398.29,473.39c-3.12,0-5.52-.78-7.17-2.37a10.35,10.35,0,0,1,0-13.47c1.65-1.58,4.05-2.37,7.17-2.37H420.5v-1.39q0-3.53-3.47-3.53H392.51v-6.65h26.72q5.25,0,7.46,2.4a9.64,9.64,0,0,1,2.19,6.74v20.64Zm1.5-6.65H420.5v-4.91H399.79a2.19,2.19,0,0,0-1.7.66,2.51,2.51,0,0,0-.61,1.77,2.59,2.59,0,0,0,.61,1.79A2.14,2.14,0,0,0,399.79,466.74Z" transform="translate(-250 -407.51)" fill="#0d57a6"/>
  <path d="M435.25,473.39V443.61H458c3.36,0,5.82.84,7.4,2.52a9.21,9.21,0,0,1,2.38,6.62v6.19h-8.5v-5.15q0-3.46-3.48-3.47H443.75v23.07Z" transform="translate(-250 -407.51)" fill="#0d57a6"/>
  <rect x="222.43" y="24.57" width="8.39" height="6.43" fill="#0d57a6"/>
  <rect x="222.43" y="36.1" width="8.39" height="29.79" fill="#0d57a6"/>
  <path d="M495.1,473.39c-3.12,0-5.51-.78-7.17-2.37a10.39,10.39,0,0,1,0-13.47q2.49-2.37,7.17-2.37h22.21v-1.39c0-2.35-1.15-3.53-3.47-3.53H489.32v-6.65H516q5.26,0,7.46,2.4a9.65,9.65,0,0,1,2.2,6.74v20.64Zm1.51-6.65h20.7v-4.91h-20.7a2.21,2.21,0,0,0-1.71.66,2.55,2.55,0,0,0-.61,1.77,2.64,2.64,0,0,0,.61,1.79A2.16,2.16,0,0,0,496.61,466.74Z" transform="translate(-250 -407.51)" fill="#0d57a6"/>
  <rect x="385.34" y="438.36" width="2.13" height="2.13" transform="translate(-419.27 215.31) rotate(-66.94)" fill="red"/>
  <rect x="382.22" y="437.04" width="2.13" height="2.13" transform="translate(-419.95 211.59) rotate(-66.93)" fill="red"/>
  <rect x="379.11" y="435.71" width="2.13" height="2.13" transform="translate(-420.63 207.92) rotate(-66.93)" fill="red"/>
  <rect x="386.73" y="435.24" width="2.04" height="2.04" transform="matrix(0.39, -0.92, 0.92, 0.39, -415.55, 214.58)" fill="red"/>
  <rect x="383.61" y="433.91" width="2.04" height="2.04" transform="translate(-416.21 210.95) rotate(-66.94)" fill="red"/>
  <rect x="380.5" y="432.59" width="2.04" height="2.04" transform="translate(-416.89 207.27) rotate(-66.94)" fill="red"/>
  <rect x="388.14" y="432.14" width="1.92" height="1.92" transform="translate(-411.8 213.94) rotate(-66.94)" fill="red"/>
  <rect x="385.02" y="430.81" width="1.92" height="1.92" transform="translate(-412.48 210.26) rotate(-66.94)" fill="red"/>
  <rect x="381.91" y="429.48" width="1.92" height="1.92" transform="translate(-413.15 206.59) rotate(-66.94)" fill="red"/>
  <rect x="389.55" y="429.04" width="1.79" height="1.79" transform="translate(-408.06 213.3) rotate(-66.94)" fill="red"/>
  <rect x="386.43" y="427.71" width="1.79" height="1.79" transform="translate(-408.73 209.62) rotate(-66.94)" fill="red"/>
  <rect x="383.32" y="426.38" width="1.79" height="1.79" transform="translate(-409.41 205.95) rotate(-66.94)" fill="red"/>
  <rect x="390.96" y="425.93" width="1.67" height="1.67" transform="translate(-404.36 212.5) rotate(-66.93)" fill="red"/>
  <rect x="387.84" y="424.61" width="1.67" height="1.67" transform="translate(-405 208.94) rotate(-66.94)" fill="red"/>
  <rect x="384.73" y="423.28" width="1.67" height="1.67" transform="translate(-405.67 205.26) rotate(-66.94)" fill="red"/>
  <rect x="392.37" y="422.83" width="1.54" height="1.54" transform="translate(-400.61 211.86) rotate(-66.94)" fill="red"/>
  <rect x="389.25" y="421.5" width="1.54" height="1.54" transform="translate(-401.31 208.14) rotate(-66.93)" fill="red"/>
  <rect x="386.14" y="420.18" width="1.54" height="1.54" transform="translate(-401.98 204.46) rotate(-66.93)" fill="red"/>
  <rect x="393.78" y="419.73" width="1.42" height="1.42" transform="translate(-396.88 211.18) rotate(-66.94)" fill="red"/>
  <rect x="390.66" y="418.4" width="1.42" height="1.42" transform="translate(-397.56 207.5) rotate(-66.94)" fill="red"/>
  <rect x="387.55" y="417.07" width="1.42" height="1.42" transform="translate(-398.23 203.83) rotate(-66.94)" fill="red"/>
  <rect x="395.19" y="416.62" width="1.29" height="1.29" transform="translate(-393.15 210.49) rotate(-66.94)" fill="red"/>
  <rect x="392.07" y="415.3" width="1.29" height="1.29" transform="translate(-393.83 206.81) rotate(-66.94)" fill="red"/>
  <rect x="388.96" y="413.97" width="1.29" height="1.29" transform="translate(-394.5 203.14) rotate(-66.94)" fill="red"/>
  <rect x="396.6" y="413.52" width="1.17" height="1.17" transform="translate(-389.39 209.87) rotate(-66.94)" fill="red"/>
  <rect x="393.48" y="412.19" width="1.17" height="1.17" transform="translate(-390.07 206.2) rotate(-66.94)" fill="red"/>
  <rect x="390.37" y="410.87" width="1.17" height="1.17" transform="translate(-390.75 202.52) rotate(-66.94)" fill="red"/>
  <rect x="398.01" y="410.42" width="1.04" height="1.04" transform="translate(-385.63 209.27) rotate(-66.95)" fill="red"/>
  <rect x="399.24" y="407.66" width="0.97" height="0.97" transform="translate(-382.42 208.44) rotate(-66.93)" fill="red"/>
  <rect x="394.89" y="409.09" width="1.04" height="1.04" transform="translate(-386.34 205.52) rotate(-66.94)" fill="red"/>
  <polygon points="124.83 55.19 123.53 58.25 123.26 58.14 124.56 55.07 121.69 53.85 120.38 56.92 120.12 56.8 121.43 53.74 118.56 52.52 116.26 57.89 107.02 36.1 96.25 36.1 108.83 66.13 123.58 66.13 127.7 56.41 124.83 55.19" fill="red"/>
  <rect x="375.48" y="460.07" width="3" height="3" transform="translate(-445.37 220.13) rotate(-66.94)" fill="red"/>
  <rect x="372.36" y="458.74" width="3" height="3" transform="translate(-446.05 216.45) rotate(-66.94)" fill="red"/>
  <rect x="369.24" y="457.42" width="3" height="3" transform="translate(-446.72 212.77) rotate(-66.94)" fill="red"/>
  <rect x="376.89" y="456.97" width="2.88" height="2.88" transform="translate(-441.63 219.47) rotate(-66.94)" fill="red"/>
  <rect x="373.77" y="455.64" width="2.88" height="2.88" transform="translate(-442.3 215.79) rotate(-66.94)" fill="red"/>
  <rect x="370.65" y="454.31" width="2.88" height="2.88" transform="translate(-442.98 212.12) rotate(-66.94)" fill="red"/>
  <rect x="378.3" y="453.87" width="2.75" height="2.75" transform="translate(-437.9 218.79) rotate(-66.94)" fill="red"/>
  <rect x="375.18" y="452.54" width="2.75" height="2.75" transform="translate(-438.59 215.04) rotate(-66.94)" fill="red"/>
  <rect x="372.06" y="451.21" width="2.75" height="2.75" transform="translate(-439.27 211.36) rotate(-66.94)" fill="red"/>
  <rect x="379.71" y="450.76" width="2.63" height="2.63" transform="translate(-434.19 218.03) rotate(-66.94)" fill="red"/>
  <rect x="376.59" y="449.44" width="2.63" height="2.63" transform="translate(-434.83 214.46) rotate(-66.95)" fill="red"/>
  <rect x="373.47" y="448.11" width="2.63" height="2.63" transform="translate(-435.51 210.78) rotate(-66.95)" fill="red"/>
  <rect x="381.12" y="447.66" width="2.5" height="2.5" transform="translate(-430.44 217.38) rotate(-66.94)" fill="red"/>
  <rect x="378" y="446.33" width="2.5" height="2.5" transform="translate(-431.12 213.7) rotate(-66.94)" fill="red"/>
  <rect x="374.88" y="445.01" width="2.5" height="2.5" transform="translate(-431.8 210.02) rotate(-66.94)" fill="red"/>
  <rect x="382.53" y="444.56" width="2.38" height="2.38" transform="translate(-426.7 216.73) rotate(-66.94)" fill="red"/>
  <rect x="379.41" y="443.23" width="2.38" height="2.38" transform="translate(-427.38 213.05) rotate(-66.94)" fill="red"/>
  <rect x="376.29" y="441.9" width="2.38" height="2.38" transform="translate(-428.05 209.37) rotate(-66.94)" fill="red"/>
  <rect x="383.94" y="441.46" width="2.25" height="2.25" transform="translate(-422.98 216.01) rotate(-66.94)" fill="red"/>
  <rect x="380.82" y="440.13" width="2.25" height="2.25" transform="translate(-423.67 212.28) rotate(-66.93)" fill="red"/>
  <rect x="377.7" y="438.8" width="2.25" height="2.25" transform="translate(-424.35 208.6) rotate(-66.93)" fill="red"/>
  <path d="M574.72,437.29c-4.1-3.48-9.9-5.25-17.27-5.25l-25.16.06v41.29h25.16c7.37,0,13.17-1.76,17.27-5.24s6.21-8.7,6.21-15.43S578.84,440.8,574.72,437.29Zm-4.15,15.43c0,4.2-1.15,7.3-3.42,9.23s-5.77,2.93-10.31,2.93H542.49V440.55h14.35c4.53,0,8,1,10.31,2.91S570.57,448.48,570.57,452.72Z" transform="translate(-250 -407.51)" fill="#0d57a6"/>
  <rect x="334.47" y="35.79" width="9.35" height="30.09" fill="#0d57a6"/>
  <rect x="334.47" y="24.57" width="9.35" height="7.47" fill="#0d57a6"/>
  <path d="M621.46,443.31h-22.7v30.08h9.46V451h11.1c1.91,0,2.76.85,2.76,2.75v5.6h9.46v-6.61a9.56,9.56,0,0,0-2.47-6.83C627.43,444.19,624.87,443.31,621.46,443.31Z" transform="translate(-250 -407.51)" fill="#0d57a6"/>
  <path d="M739.19,465.73c-1.9,0-2.75-.87-2.75-2.81V451h12v-7.72h-12v-8.86h-9.35v8.86h-8.35V451h8.35v12.9a9.6,9.6,0,0,0,2.46,6.83c1.65,1.75,4.21,2.63,7.62,2.63H750v-7.66Z" transform="translate(-250 -407.51)" fill="#0d57a6"/>
  <polygon points="455.03 35.78 448.51 47.02 439.25 47.02 439.25 24.6 429.91 24.6 429.91 65.88 439.25 65.88 439.25 54.68 448.39 54.68 455.03 65.88 465.57 65.88 456.73 51 465.57 35.78 455.03 35.78" fill="#0d57a6"/>
  <path d="M650.25,465.66a5.44,5.44,0,0,1-5.07-3.47h24.34v-7.66H645.18a5.43,5.43,0,0,1,5.07-3.5h19.27v-7.71H651c-5,0-9,1.28-11.86,3.79s-4.34,6.36-4.34,11.25,1.47,8.68,4.34,11.25S646,473.4,651,473.4h22.88v-7.74Z" transform="translate(-250 -407.51)" fill="#0d57a6"/>
</svg>