<svg xmlns:xlink="http://www.w3.org/1999/xlink" xmlns="http://www.w3.org/2000/svg"
    class="icon icon__logo" width="200" height="70">
    <defs>
        <symbol viewBox="0 0 200 70" id="logo" xmlns="http://www.w3.org/2000/svg">
            <g style="fill:#013b75" fill-rule="evenodd">
                <path
                    d="M105.885 12.293c1.989-.29 3.897-.6 5.731-.924 12.228 4.26 19.683 8.52 23.436 11.01-9.52-5.024-27.169-8.642-28.875-8.984-.093-.373-.191-.74-.292-1.102zm-.732 9.497h-.206c.082-.877.276-4.07-.816-7.404.5-.633.946-1.268 1.344-1.891.646 2.349 1.15 4.916 1.34 7.582l-1.662 1.713zm.63 0l1.272-1.307 1.339 1.306h-2.61zm-11.317-1.696c.052-.555.362-3.645 1.217-7.394.393.598.793 1.148 1.184 1.648-.17.588-1.022 3.746-.83 7.442h-.233l-1.338-1.696zm-1.803 1.696l1.538-1.303 1.028 1.303h-2.566zm-26.737.604c3.746-2.49 11.21-6.758 23.468-11.028 1.89.336 3.862.655 5.915.955-.08.347-.158.69-.23 1.024-1.772.356-19.61 4.015-29.153 9.049zM86.702 10.87l.369.072c-15.543 4.188-23.087 9.574-24.606 10.75l-.406-2.035c1.15-.645 9.82-5.323 24.643-8.787zm-1.472-.29c.133.028.27.053.405.08-13.829 3.34-22.115 7.675-23.67 8.531l-.383-1.91c2.75-1.129 10.536-4.03 23.648-6.7zm-3.727-.788c.236.053.479.105.72.157-11.907 1.85-19.755 4.123-21.196 4.556l-.4-1.997c1.902-.27 15.02-2.131 20.876-2.716zm-2.013-.46c.213.05.436.099.651.15-6.34.699-17.905 2.34-19.602 2.582l-.401-2c2.257-.06 17.242-.468 19.352-.732zm-2.764-.68c.44.113.885.225 1.34.336-4.387.256-16.368.583-18.018.627l-.406-2.028c2.06.144 14.556 1.014 17.084 1.066zM72.16 7.42c.794.228 1.614.458 2.475.689-4.55-.246-13.73-.886-15.085-.981l-.416-2.078c1.723.444 9.197 2.317 13.026 2.37zM58.651 2.64c1.206.552 5.076 2.236 11.457 4.174-4.175-.492-10.11-2.007-11.072-2.256L58.65 2.64zm2.465 12.31c1.335-.403 9.665-2.835 22.347-4.733l.647.134c-12.409 2.594-19.864 5.355-22.618 6.48l-.376-1.88zm1.812 9.053l-.363-1.814c.947-.762 8.631-6.645 25.539-11.057l.387.071c-16.399 5.805-24.03 11.558-25.563 12.8zM93.126 7.43c.225.687.48 1.344.756 1.97a163.67 163.67 0 00-4.526 1.501C77.814 8.85 69.377 6.254 64.26 4.402c5.152 1.272 14.123 2.715 28.866 3.028zm2.085-2.54c.08.717.378 3.143.855 4.543-.21.714-.4 1.423-.57 2.116-1.092-1.84-2.066-4.072-2.566-6.659h2.28zm1.095 3.758c-.342-1.327-.566-3.113-.64-3.758h2.04a36.32 36.32 0 00-1.4 3.758zM100.56.793a43.802 43.802 0 011.911 3.646h-4.068c.623-1.324 1.336-2.568 2.157-3.646zm2.13-.327v.885l-1.55-.895 1.55.01zm2.588 4.424c-.092.647-.352 2.402-.607 3.638a52.908 52.908 0 00-1.493-3.638h2.1zm.343 6.492c-.214-.71-.436-1.4-.668-2.061.316-1.217.68-3.711.783-4.43h2.34c-.143.808-.71 3.45-2.455 6.491zm1.314-1.567c1.313.414 2.582.832 3.802 1.249a201.01 201.01 0 01-4.86.773c.411-.698.76-1.376 1.058-2.022zm-11.792 2.024c-1.68-.247-3.302-.508-4.871-.78 1.219-.415 2.485-.83 3.796-1.245.335.72.699 1.395 1.075 2.025zm5.34 5.618c-.561-.453-2.733-2.313-4.659-5.367.559-2.334 1.326-4.874 2.37-7.2h4.488a51.169 51.169 0 012.625 7.022 21.872 21.872 0 01-4.824 5.545zm4.033 4.05l-1.82-1.844c.143-1.806-.135-2.996-.246-3.382.483-.485.926-.978 1.337-1.472.889 2.9.81 5.638.73 6.697zm-3.284-2.682l2.93 2.965h-1.21l-1.72-2.965zm-.532-.018l1.73 2.983h-1.73v-2.983zm-.452.012v2.971h-1.695l1.695-2.97zm-.542.038l-1.673 2.933H96.81l2.898-2.933zm-.984.352c-.065-1.21.082-2.106.188-2.566.556.55.997.927 1.238 1.124l-1.426 1.442zm3.354-2.565c.105.46.252 1.356.195 2.589l-1.452-1.47c.444-.366.861-.74 1.257-1.119zm-4.86-1.86c.467.57.916 1.066 1.323 1.484-.11.377-.398 1.581-.24 3.37l-1.823 1.846c-.118-3.072.481-5.722.74-6.7zm39.632-10.408c-2.102.766-4.776 1.66-8.012 2.592h-.008v.002c-1.41.406-2.926.819-4.548 1.23l-.022.002v.005c-1.496.38-3.076.759-4.75 1.132h-.007v.002a179.56 179.56 0 01-7.848 1.563 169.929 169.929 0 00-4.532-1.503c.313-.714.563-1.38.759-1.972 14.84-.314 23.834-1.774 28.968-3.053zm5.116.182c-.956.247-6.813 1.743-10.984 2.245 6.34-1.93 10.17-3.608 11.368-4.161l-.384 1.916zm-.514 2.57c-1.35.094-10.438.728-15.011.976.857-.23 1.674-.459 2.464-.686 3.848-.072 11.25-1.926 12.962-2.368l-.415 2.078zM122.98 8.99c.463-.113.916-.226 1.362-.34 2.662-.064 14.972-.921 17.017-1.064l-.406 2.028c-1.641-.044-13.547-.368-17.973-.624zm-2.083.495l.652-.15c2.237.264 17.069.668 19.313.728l-.4 2c-1.693-.241-13.216-1.876-19.565-2.578zm-2.087.468c.243-.052.486-.105.724-.158 5.874.588 18.942 2.441 20.84 2.712l-.401 1.997c-1.44-.433-9.274-2.701-21.163-4.55zm-3.424.71l.406-.078c13.1 2.669 20.878 5.567 23.626 6.695l-.383 1.91c-1.554-.855-9.832-5.186-23.649-8.526zm-1.44.282c.124-.025.249-.048.373-.071 14.809 3.463 23.473 8.137 24.624 8.782l-.408 2.036c-1.518-1.176-9.057-6.56-24.59-10.747zm17.226 8.524c-3.802-2.146-9.928-5.173-18.65-8.262l.39-.072c16.884 4.409 24.576 10.29 25.524 11.053l-.363 1.813c-.748-.61-2.95-2.302-6.901-4.532zm8.336-2.64c-2.751-1.124-10.197-3.882-22.592-6.474l.651-.135c12.662 1.897 20.984 4.326 22.317 4.73l-.376 1.88zm3.058-14.889c-.077.045-7.854 4.451-34.541 5.033.42-1.372.537-2.257.54-2.282l.031-.253h-5.625a46.508 46.508 0 00-1.755-3.417l1.927 1.113V.016L100.504 0l-.118.283c-.958 1.208-1.778 2.633-2.48 4.156h-5.518l.047.265c.142.789.327 1.545.545 2.27-13.87-.302-22.508-1.644-27.319-2.721-5.253-1.178-7.206-2.3-7.226-2.312L58 1.687 62.666 25l.289-.221c7.602-5.84 29.096-10.359 32.024-10.953-.665 3.22-.917 5.734-.962 6.225l-2.587 2.192h13.284l4.79-.002-2.239-2.185a38.49 38.49 0 00-.972-6.177c2.934.598 24.158 5.067 31.753 10.9l.288.221L143 1.685l-.434.256zM26.72 48.728c-3.647 2.873-6.944 3.799-10.372 3.799-1.362 0-4.834-.463-6.68-2.687-1.625-1.977-1.89-4.941-1.89-6.794 0-5.22 1.715-9.945 8.13-9.945 5.01 0 8.703 3.613 10.24 6.3h1.099v-7.227H26.06c-.44.773-.835 1.42-2.022 1.42-1.142 0-4.527-1.512-8.482-1.512C6.329 32.082 0 36.9 0 43.169c0 5.775 5.538 10.84 15.777 10.84 5.626 0 9.053-1.945 12.26-4.51l-1.317-.771zm29.076-1.479c-.718 2.822-2.564 5.729-7.296 5.729-4.73 0-6.577-2.907-7.296-5.73-.418-1.642-.454-3.256-.454-4.247 0-4.525 1.62-9.979 7.75-9.979s7.75 5.454 7.75 9.979c0 .99-.035 2.604-.454 4.248M64 43c0-6.756-7.05-11-15.5-11S33 36.244 33 43c0 1.54.366 2.967 1.043 4.249C36.226 51.383 41.65 54 48.5 54c6.852 0 12.275-2.618 14.458-6.751A9.007 9.007 0 0064 43m4 10.455h9.942V52.7c-3.241-.242-4.161-.816-4.161-2.995V37.599h.088L93.357 54h1.227V36.177c0-1.453.262-2.148 3.416-2.42V33h-9.416v.756c3.547.182 4.073 1.18 4.073 2.997v9.168h-.088L77.373 33h-9.241v.756c.569 0 1.27.09 3.723 2.18v14.342c0 1.998-1.227 2.21-3.855 2.42v.757zm43.873-17.939c-.044-.684-.089-1.46 2.752-1.46 7.633 0 8.654 6.616 8.654 9.444 0 7.425-3.906 9.414-8.876 9.414-2.13 0-2.53-.56-2.53-1.803V35.516zM101 54h14.024C126.207 53.752 131 48.906 131 43.19c0-4.784-4.038-10.19-16.464-10.19H101v.777c1.73.123 3.684.186 3.684 2.08v15.316c0 1.15-.888 2.051-3.684 2.051V54zm56.796-6.751c-.72 2.822-2.565 5.729-7.296 5.729-4.73 0-6.578-2.907-7.296-5.73-.419-1.642-.454-3.256-.454-4.247 0-4.525 1.62-9.979 7.75-9.979s7.75 5.454 7.75 9.979c0 .99-.035 2.604-.454 4.248M166 43c0-6.756-7.05-11-15.5-11S135 36.244 135 43c0 1.54.365 2.967 1.042 4.249h.001C138.226 51.383 143.65 54 150.5 54c6.852 0 12.274-2.618 14.457-6.751A9.007 9.007 0 00166 43m35 10.223c-.522 0-1.176-.03-1.785-.589l-8.752-8.855c2.351-.528 6.836-1.49 6.836-5.311 0-5.22-9.23-5.468-12.28-5.468H171v.777c2.482.124 3.831.186 3.831 2.857v13.732c0 2.515-.87 2.609-3.831 2.857V54h14.717v-.777c-2.874-.278-3.832-.373-3.832-2.857v-6.089h1.177L192.074 54H201v-.777zm-19.115-17.862c.219-.964.306-1.305 2.7-1.305 3.483 0 5.269 1.336 5.269 4.473 0 4.039-2.264 4.722-7.97 4.754v-7.922zM26.304 62v.22c-.405.005-.682.024-.83.06-.258.06-.386.186-.386.376 0 .097.045.232.134.406.095.174.269.466.521.876l2.527 4.136 2.298-4.479c.1-.197.176-.363.229-.499.052-.134.078-.245.08-.33 0-.229-.135-.382-.403-.464-.159-.047-.419-.073-.783-.081V62H33v.203c-.342.035-.595.103-.759.204-.247.15-.492.454-.733.91L27.93 70h-.244l-3.988-6.532c-.337-.553-.608-.897-.813-1.033-.2-.135-.495-.212-.885-.232V62h4.304zM35 69.781c.564-.047.93-.125 1.095-.235.17-.115.255-.4.255-.856v-5.38c0-.43-.082-.709-.248-.839-.164-.133-.532-.216-1.102-.247V62h8.16l.052 1.736h-.389c-.131-.536-.326-.881-.585-1.04-.26-.156-.84-.236-1.74-.236h-2.085c-.225 0-.366.03-.42.089-.05.056-.075.162-.075.32v2.697h2.362c.655 0 1.072-.077 1.252-.23.18-.154.325-.465.436-.933h.36V67.2h-.36c-.115-.468-.263-.777-.443-.926-.18-.154-.595-.23-1.245-.23h-2.362v2.992c0 .24.095.382.285.426.195.044.772.065 1.732.065 1.04 0 1.807-.089 2.303-.266.494-.181.94-.615 1.335-1.305H44L43.302 70H35v-.219zm11 0c.598-.043.97-.133 1.117-.271.147-.138.22-.459.22-.963V63.31c0-.425-.084-.704-.25-.833-.163-.134-.525-.218-1.087-.253V62h4.308c.897 0 1.643.089 2.242.266 1.134.334 1.701.95 1.702 1.848 0 .602-.253 1.065-.76 1.388-.5.322-1.185.534-2.051.636l3.207 3.065c.197.189.394.327.592.412.198.088.45.143.76.166V70h-2.508l-3.709-3.719-.866.028v2.38c0 .449.087.734.259.857.177.117.56.196 1.147.235V70H46v-.219zm5.32-4.19c.825-.265 1.237-.761 1.237-1.49 0-.7-.369-1.179-1.108-1.433-.396-.138-.92-.208-1.573-.208-.441 0-.713.026-.814.078-.096.047-.145.16-.145.342v2.981c1.12-.031 1.92-.122 2.402-.27zm7.038 1.919c.263.522.572.938.928 1.248.618.54 1.387.81 2.305.81.498 0 .925-.116 1.286-.35.364-.235.548-.561.548-.982 0-.378-.184-.706-.548-.986-.238-.178-.74-.444-1.507-.8l-1.332-.618a4.717 4.717 0 01-.957-.572c-.441-.367-.662-.77-.662-1.213 0-.586.26-1.073.783-1.463.522-.39 1.216-.584 2.077-.584.356 0 .781.067 1.278.198.503.13.789.194.86.194.193 0 .325-.034.395-.103a.64.64 0 00.176-.289h.319l.343 2.472h-.373c-.254-.744-.662-1.264-1.225-1.56-.558-.294-1.11-.441-1.658-.441-.426 0-.8.095-1.12.284-.314.185-.47.444-.47.776 0 .299.12.555.365.766.243.214.62.44 1.133.674l1.369.63c.857.392 1.46.753 1.81 1.082.346.332.518.725.519 1.179 0 .608-.31 1.117-.93 1.525-.612.408-1.4.613-2.357.613-.482 0-.986-.069-1.514-.205-.523-.135-.822-.204-.897-.204-.183 0-.308.042-.374.125a.709.709 0 00-.122.267h-.341L58 67.51h.358zM67 69.781c.687-.036 1.133-.108 1.337-.218.203-.115.304-.406.305-.873v-5.38c0-.445-.102-.73-.305-.856-.204-.13-.65-.206-1.337-.23V62h5v.225c-.688.024-1.133.1-1.337.23-.203.126-.304.411-.304.856v5.379c0 .467.1.758.304.873.204.11.649.182 1.337.218V70h-5v-.219zm13.51-7.594c.626.125.977.187 1.052.187.155 0 .303-.03.443-.09a.524.524 0 00.288-.284h.346l.153 2.605h-.379c-.219-.518-.506-.934-.859-1.251-.674-.597-1.582-.895-2.723-.895-1.151 0-2.093.321-2.827.962-.729.642-1.092 1.525-1.092 2.65 0 1.034.383 1.861 1.148 2.48.771.615 1.746.923 2.924.923.851 0 1.635-.144 2.353-.43a7.39 7.39 0 001.357-.737l.306.215c-.364.325-.817.61-1.357.855a7.209 7.209 0 01-2.996.623c-1.768 0-3.17-.398-4.21-1.195C73.48 68.07 73 67.151 73 66.048c0-1.128.506-2.076 1.518-2.842C75.584 62.403 76.97 62 78.678 62c.595 0 1.205.062 1.832.187M84 69.781c.63-.05 1.022-.136 1.18-.26.157-.125.237-.45.237-.974V63.31c0-.433-.09-.715-.268-.845-.174-.13-.557-.21-1.149-.241V62h4.477v.225c-.593.03-.98.111-1.156.241-.18.13-.268.412-.268.845v2.356h4.887V63.31c0-.433-.087-.715-.26-.845-.174-.13-.559-.21-1.157-.241V62H95v.225c-.592.03-.978.111-1.156.241-.173.13-.26.412-.26.845v5.379c0 .44.087.723.26.85.178.122.564.202 1.156.241V70h-4.477v-.219c.634-.047 1.027-.133 1.18-.26.157-.125.237-.45.237-.974v-2.35h-4.887v2.493c0 .44.089.723.268.85.177.126.563.205 1.156.241V70H84v-.219zm14 0c.565-.047.93-.125 1.095-.235.17-.115.255-.4.255-.856v-5.38c0-.43-.083-.709-.248-.839-.165-.133-.532-.216-1.102-.247V62h8.16l.053 1.736h-.39c-.13-.536-.326-.881-.586-1.04-.26-.156-.84-.236-1.74-.236h-2.084c-.225 0-.366.03-.42.089-.05.056-.075.162-.075.32v2.697h2.361c.656 0 1.072-.077 1.253-.23.18-.154.325-.465.435-.933h.36V67.2h-.36c-.115-.468-.263-.777-.443-.926-.179-.154-.594-.23-1.245-.23h-2.361v2.992c0 .24.094.382.285.426.195.044.772.065 1.731.065 1.041 0 1.809-.089 2.303-.266.496-.181.94-.615 1.336-1.305H107L106.303 70H98v-.219zm11 0c.597-.043.97-.133 1.117-.271.147-.138.22-.459.22-.963V63.31c0-.425-.083-.704-.25-.833-.163-.134-.525-.218-1.087-.253V62h4.308c.896 0 1.645.089 2.242.266 1.134.334 1.702.95 1.702 1.848 0 .602-.253 1.065-.759 1.388-.502.322-1.186.534-2.052.636l3.206 3.065c.198.189.396.327.595.412.196.088.45.143.758.166V70h-2.507l-3.71-3.719-.865.028v2.38c0 .449.086.734.258.857.177.117.56.196 1.148.235V70H109v-.219zm5.32-4.19c.824-.265 1.238-.761 1.238-1.49 0-.7-.37-1.179-1.11-1.433-.394-.138-.92-.208-1.573-.208-.44 0-.712.026-.814.078-.095.047-.143.16-.143.342v2.981c1.12-.031 1.92-.122 2.402-.27zM123.516 62v.22c-.611.03-1.009.108-1.188.232-.183.119-.274.396-.274.832v3.786c0 .62.116 1.104.342 1.45.425.632 1.23.949 2.419.949 1.3 0 2.173-.324 2.62-.972.248-.362.373-.921.373-1.676v-3.08c0-.645-.104-1.047-.311-1.209-.208-.166-.602-.27-1.182-.312V62H130v.22c-.617.05-1.021.162-1.213.334-.187.17-.281.566-.281 1.186v3.081c0 .818-.168 1.455-.504 1.913-.621.844-1.803 1.266-3.546 1.266-1.72 0-2.891-.417-3.513-1.248-.337-.447-.506-1.036-.506-1.769v-3.7c0-.431-.09-.706-.27-.827-.178-.123-.566-.202-1.167-.236V62h4.516zM132 69.647c.653-.05 1.073-.16 1.258-.33.186-.175.279-.576.279-1.202v-5.24l-.217-.191c-.231-.205-.43-.33-.594-.376-.16-.05-.401-.08-.726-.087V62h2.71l6.091 5.72v-3.973c0-.654-.129-1.08-.387-1.277-.17-.128-.545-.21-1.127-.25V62H143v.22c-.602.047-1.002.157-1.203.331-.2.173-.302.573-.302 1.196V70h-.27l-6.994-6.516v4.63c0 .651.126 1.075.379 1.271.164.128.533.215 1.104.262v.214H132v-.214zM151.452 62.188c.606.125.953.187 1.043.187.231 0 .395-.032.49-.096a.78.78 0 00.252-.279h.356l.127 2.449h-.372c-.33-.565-.674-.985-1.028-1.26-.637-.485-1.467-.729-2.487-.729-1.04 0-1.953.284-2.743.853-.786.564-1.177 1.495-1.177 2.795 0 1.072.391 1.91 1.177 2.511.785.602 1.753.903 2.908.903.195 0 .423-.012.687-.04.263-.026.514-.067.751-.125.385-.09.624-.167.719-.232a.343.343 0 00.142-.296v-1.857c0-.447-.09-.726-.268-.836-.175-.11-.559-.178-1.153-.204v-.215H155v.215c-.4.02-.666.066-.798.141-.222.122-.332.372-.332.75v2.29c0 .137-.466.318-1.4.546a11.25 11.25 0 01-2.679.341c-1.579 0-2.912-.331-3.997-.994-1.196-.731-1.794-1.712-1.794-2.943 0-1.084.478-2.011 1.43-2.785 1.049-.852 2.44-1.278 4.172-1.278.627 0 1.243.062 1.85.188M156 69.781c.564-.047.93-.125 1.095-.235.17-.115.254-.4.255-.856v-5.38c0-.43-.083-.709-.248-.839-.164-.133-.532-.216-1.102-.247V62h8.16l.052 1.736h-.39c-.13-.536-.326-.881-.584-1.04-.26-.156-.84-.236-1.74-.236h-2.086c-.225 0-.365.03-.42.089-.05.056-.075.162-.075.32v2.697h2.363c.654 0 1.072-.077 1.252-.23.18-.154.324-.465.436-.933h.359V67.2h-.36c-.115-.468-.262-.777-.442-.926-.18-.154-.596-.23-1.245-.23h-2.363v2.992c0 .24.096.382.286.426.195.044.772.065 1.731.065 1.04 0 1.807-.089 2.304-.266.494-.181.939-.615 1.334-1.305H165L164.302 70H156v-.219zm12-.134c.654-.05 1.073-.16 1.258-.33.186-.175.279-.576.279-1.202v-5.24l-.216-.191c-.232-.205-.431-.33-.595-.376-.16-.05-.402-.08-.726-.087V62h2.71l6.09 5.72v-3.973c0-.654-.13-1.08-.386-1.277-.17-.128-.544-.21-1.126-.25V62H179v.22c-.602.047-1.003.157-1.203.331-.201.173-.302.573-.302 1.196V70h-.27l-6.994-6.516v4.63c0 .651.126 1.075.379 1.271.164.128.532.215 1.103.262v.214H168v-.214z"></path>
            </g>
        </symbol>
    </defs>
    <use xlink:href="#logo"></use>
</svg>