<svg xmlns:xlink="http://www.w3.org/1999/xlink" aria-hidden="true" width="191" height="50" viewBox="0 0 191 50" fill="none" xmlns="http://www.w3.org/2000/svg"> <g clip-path="url(#clip0)" fill="none"> <path d="M184.744 49.5914L140.416 5.54926H184.744V49.5914Z" fill="#00FF66"></path> <path d="M6.99767 32.8083C5.63626 32.8083 4.43821 32.5105 3.37631 31.8879C2.3144 31.2924 1.49756 30.4262 0.898533 29.3434C0.299511 28.2606 0 27.0154 0 25.6078C0 24.6062 0.190598 23.6588 0.544566 22.7926C0.898533 21.9263 1.41587 21.1684 2.06935 20.5187C2.72283 19.869 3.48522 19.3547 4.35653 19.0028C5.22783 18.6509 6.18082 18.4614 7.18827 18.4614C8.19571 18.4614 9.1487 18.678 10.0745 19.084C11.0002 19.4901 11.7354 20.0585 12.3072 20.7623L10.4829 22.7655C9.99278 22.2512 9.50267 21.8722 8.95811 21.6015C8.41354 21.3308 7.81452 21.1955 7.18827 21.1955C6.39865 21.1955 5.69071 21.3849 5.06446 21.7639C4.43821 22.1429 3.92087 22.6572 3.56691 23.3339C3.18571 24.0107 2.99511 24.7686 2.99511 25.6349C2.99511 26.5282 3.18571 27.3132 3.53968 27.9899C3.89365 28.6667 4.43821 29.181 5.09169 29.5329C5.7724 29.8848 6.53479 30.0743 7.40609 30.0743C8.05957 30.0743 8.6586 29.9389 9.23039 29.6682C9.80218 29.3975 10.2923 29.0456 10.7007 28.6396L12.0894 30.8864C11.7626 31.2383 11.327 31.5631 10.7824 31.8609C10.2378 32.1586 9.63881 32.3752 8.98533 32.5376C8.33186 32.7271 7.67838 32.8083 6.99767 32.8083Z" fill="#000099"></path> <path d="M20.8297 32.8083C19.795 32.8083 18.8692 32.6188 17.9979 32.2669C17.1266 31.915 16.3914 31.4007 15.738 30.7781C15.1117 30.1284 14.6216 29.3705 14.2676 28.5042C13.9137 27.638 13.7503 26.6635 13.7503 25.6349C13.7503 24.6062 13.9137 23.6588 14.2676 22.7655C14.6216 21.8993 15.1117 21.1413 15.738 20.4916C16.3642 19.842 17.1266 19.3547 17.9979 19.0028C18.8692 18.6509 19.8222 18.4614 20.8297 18.4614C21.8371 18.4614 22.7901 18.6509 23.6342 19.0028C24.5055 19.3547 25.2406 19.869 25.8941 20.5187C26.5204 21.1684 27.0105 21.9263 27.3644 22.7926C27.7184 23.6588 27.8818 24.6062 27.8818 25.6349C27.8818 26.6635 27.7184 27.6109 27.3644 28.5042C27.0105 29.3705 26.5204 30.1284 25.8941 30.7781C25.2679 31.4277 24.5055 31.9421 23.6342 32.294C22.7901 32.6188 21.8371 32.8083 20.8297 32.8083ZM20.8297 30.0743C21.6193 30.0743 22.3544 29.8848 22.9535 29.5058C23.5797 29.1268 24.0698 28.5854 24.4238 27.9087C24.7778 27.232 24.9411 26.474 24.9411 25.6078C24.9411 24.7416 24.7778 23.9836 24.4238 23.3069C24.0698 22.6301 23.5797 22.1158 22.9535 21.7098C22.3272 21.3308 21.6193 21.1142 20.8297 21.1142C20.0128 21.1142 19.3049 21.3037 18.6786 21.6827C18.0524 22.0617 17.5623 22.6031 17.2083 23.2798C16.8543 23.9565 16.691 24.7145 16.691 25.5807C16.691 26.4469 16.8543 27.232 17.2083 27.8816C17.5623 28.5584 18.0524 29.0727 18.6786 29.4517C19.3049 29.8848 20.0128 30.0743 20.8297 30.0743Z" fill="#000099"></path> <path d="M35.1518 32.8083C33.872 32.8083 32.7557 32.5647 31.8299 32.1045C30.9042 31.6443 30.1145 30.9676 29.4611 30.0743L31.2854 28.017C31.9388 28.9103 32.5923 29.5329 33.2186 29.8577C33.8448 30.1825 34.5528 30.345 35.3424 30.345C35.9686 30.345 36.486 30.2096 36.9216 29.9389C37.3573 29.6682 37.5751 29.3163 37.5751 28.8561C37.5751 28.3147 37.3028 27.8816 36.7582 27.5839C36.2137 27.2861 35.5057 27.0425 34.6344 26.853C33.1369 26.5282 32.0205 26.0138 31.2854 25.3371C30.5502 24.6333 30.1962 23.7129 30.1962 22.5489C30.1962 21.7368 30.4413 21.033 30.9042 20.4104C31.367 19.7878 31.9933 19.3277 32.7557 18.9757C33.5181 18.6238 34.3622 18.4614 35.3151 18.4614C36.5404 18.4614 37.5751 18.678 38.3919 19.084C39.2088 19.4901 39.8623 20.0856 40.3524 20.8706L38.5009 22.6843C37.684 21.5203 36.6221 20.9248 35.3424 20.9248C34.6889 20.9248 34.1443 21.0601 33.7359 21.3308C33.3275 21.6015 33.1369 21.9805 33.1369 22.4407C33.1369 22.9279 33.3819 23.3069 33.8448 23.6046C34.3077 23.8753 34.9612 24.0919 35.7508 24.2543C37.2211 24.5521 38.3647 25.0393 39.236 25.7161C40.1073 26.3928 40.5157 27.2861 40.5157 28.396C40.5157 29.3163 40.2979 30.1284 39.835 30.7781C39.3994 31.4277 38.7731 31.9421 37.9835 32.294C37.1394 32.6188 36.2137 32.8083 35.1518 32.8083Z" fill="#000099"></path> <path d="M43.2114 32.5917V18.705H45.8797L50.1274 25.5807L54.4294 18.705H56.9617V32.6188H54.1571V27.7192C54.1571 26.9071 54.1571 26.1492 54.1844 25.4724C54.2116 24.7686 54.2388 24.119 54.2933 23.4693L50.7264 28.9644H49.4194L45.907 23.4693C45.9614 24.0919 46.0159 24.7145 46.0431 25.4183C46.0703 26.095 46.0703 26.853 46.0703 27.7192V32.6188H43.2114V32.5917Z" fill="#000099"></path> <path d="M66.791 32.8083C65.7563 32.8083 64.8305 32.6188 63.9592 32.2669C63.0879 31.915 62.3528 31.4007 61.6993 30.7781C61.073 30.1284 60.5829 29.3705 60.2289 28.5042C59.875 27.638 59.7116 26.6635 59.7116 25.6349C59.7116 24.6062 59.875 23.6588 60.2289 22.7655C60.5829 21.8993 61.073 21.1413 61.6993 20.4916C62.3255 19.842 63.0879 19.3547 63.9592 19.0028C64.8305 18.6509 65.7835 18.4614 66.791 18.4614C67.7984 18.4614 68.7514 18.6509 69.5955 19.0028C70.4668 19.3547 71.202 19.869 71.8554 20.5187C72.4817 21.1684 72.9718 21.9263 73.3258 22.7926C73.6797 23.6588 73.8431 24.6062 73.8431 25.6349C73.8431 26.6635 73.6797 27.6109 73.3258 28.5042C72.9718 29.3705 72.4817 30.1284 71.8554 30.7781C71.2292 31.4277 70.4668 31.9421 69.5955 32.294C68.7514 32.6188 67.7984 32.8083 66.791 32.8083ZM66.791 30.0743C67.5806 30.0743 68.3158 29.8848 68.9148 29.5058C69.541 29.1268 70.0311 28.5854 70.3851 27.9087C70.7391 27.232 70.9024 26.474 70.9024 25.6078C70.9024 24.7416 70.7391 23.9836 70.3851 23.3069C70.0311 22.6301 69.541 22.1158 68.9148 21.7098C68.2885 21.3308 67.5806 21.1142 66.791 21.1142C65.9741 21.1142 65.2662 21.3037 64.6399 21.6827C64.0137 22.0617 63.5236 22.6031 63.1696 23.2798C62.8156 23.9565 62.6523 24.7145 62.6523 25.5807C62.6523 26.4469 62.8156 27.232 63.1696 27.8816C63.5236 28.5584 64.0137 29.0727 64.6399 29.4517C65.2662 29.8848 65.9741 30.0743 66.791 30.0743Z" fill="#000099"></path> <path d="M81.113 32.8083C79.8333 32.8083 78.7169 32.5647 77.7912 32.1045C76.8654 31.6443 76.0758 30.9676 75.4223 30.0743L77.2466 28.017C77.9001 28.9103 78.5536 29.5329 79.1798 29.8577C79.8061 30.1825 80.514 30.345 81.3036 30.345C81.9299 30.345 82.4472 30.2096 82.8829 29.9389C83.3185 29.6682 83.5363 29.3163 83.5363 28.8561C83.5363 28.3147 83.264 27.8816 82.7195 27.5839C82.1749 27.2861 81.467 27.0425 80.5957 26.853C79.0981 26.5282 77.9818 26.0138 77.2466 25.3371C76.5114 24.6333 76.1575 23.7129 76.1575 22.5489C76.1575 21.7368 76.4025 21.033 76.8654 20.4104C77.3283 19.7878 77.9545 19.3277 78.7169 18.9757C79.4793 18.6238 80.3234 18.4614 81.2764 18.4614C82.5017 18.4614 83.5363 18.678 84.3532 19.084C85.17 19.4901 85.8235 20.0856 86.3136 20.8706L84.4621 22.6843C83.6452 21.5203 82.5833 20.9248 81.3036 20.9248C80.6501 20.9248 80.1056 21.0601 79.6971 21.3308C79.2887 21.6015 79.0981 21.9805 79.0981 22.4407C79.0981 22.9279 79.3432 23.3069 79.8061 23.6046C80.2689 23.8753 80.9224 24.0919 81.712 24.2543C83.1824 24.5521 84.326 25.0393 85.1973 25.7161C86.0686 26.3928 86.477 27.2861 86.477 28.396C86.477 29.3163 86.2592 30.1284 85.7963 30.7781C85.3606 31.4277 84.7344 31.9421 83.9448 32.294C83.1007 32.6188 82.1749 32.8083 81.113 32.8083Z" fill="#000099"></path> <path d="M95.2445 32.5917V18.705H100.935C102.297 18.705 103.495 19.0028 104.502 19.5983C105.51 20.1939 106.326 21.006 106.871 22.0617C107.443 23.1174 107.715 24.3084 107.715 25.689C107.715 27.0695 107.443 28.2606 106.871 29.3163C106.299 30.345 105.51 31.157 104.502 31.7526C103.495 32.3481 102.297 32.6459 100.935 32.6459H95.2445V32.5917ZM100.826 21.3037H98.1035V29.9931H100.826C102.052 29.9931 103.032 29.6141 103.74 28.8291C104.448 28.044 104.802 26.9883 104.802 25.6619C104.802 24.3355 104.448 23.2798 103.74 22.4948C103.032 21.6827 102.052 21.3037 100.826 21.3037Z" fill="#000099"></path> <path d="M109.784 32.5917V30.1013H112.099V21.1684H109.784V18.678H117.327V21.1684H114.985V30.1013H117.327V32.5917H109.784Z" fill="#000099"></path> <path d="M120.594 32.5917V18.705H126.748C127.592 18.705 128.381 18.8945 129.062 19.2735C129.77 19.6525 130.315 20.1939 130.723 20.8435C131.131 21.5203 131.349 22.2782 131.349 23.1174C131.349 24.0107 131.104 24.8228 130.641 25.5266C130.151 26.2304 129.525 26.7718 128.735 27.1237L131.921 32.5917L128.572 32.5647L125.713 27.5297H123.344V32.5647H120.594V32.5917ZM123.371 25.2017H126.639C127.211 25.2017 127.646 25.0123 128 24.6333C128.354 24.2543 128.518 23.7941 128.518 23.2257C128.518 22.6301 128.3 22.1158 127.891 21.7639C127.483 21.3849 126.938 21.1954 126.258 21.1954H123.371V25.2017Z" fill="#000099"></path> <path d="M134.562 32.5917V18.705H143.901V21.2496H137.367V24.2814H142.949V26.7447H137.394V30.0472H144.038V32.5917H134.562Z" fill="#000099"></path> <path d="M164.758 32.5917V21.3037H160.701V18.705H171.81V21.3037H167.645V32.5917H164.758Z" fill="#000099"></path> <path d="M149.456 26.2033L151.335 24.3626L159.639 32.5917H156.073L149.456 26.2033Z" fill="#000099"></path> <path d="M149.946 18.705H147.06V32.5917H149.946V18.705Z" fill="#000099"></path> <path d="M155.691 18.705H159.231L149.864 27.8004V24.5791L155.691 18.705Z" fill="#000099"></path> <path d="M148.775 0V1.43469H188.855V41.2811H190.298V1.43469V0.324835V0H148.775Z" fill="#C5281C"></path> </g> <defs> <clipPath id="clip0"> <rect width="190.299" height="50" fill="white"></rect> </clipPath> </defs> </svg>