<svg xmlns:xlink="http://www.w3.org/1999/xlink" xmlns="http://www.w3.org/2000/svg" width="84" height="36" viewBox="0 0 84 36" fill="none"><g clip-path="url(#clip0)" fill="#003264"><path d="M10.358 14.116H8.784v7.87h1.574c2.184-.102 3.86-1.93 3.808-4.062-.101-2.082-1.777-3.758-3.808-3.808zm11.831 5.28h3.3l-1.675-4.366-1.625 4.366z"/><path d="M17.873.355c-9.8 0-17.72 7.921-17.72 17.67 0 9.75 7.92 17.67 17.67 17.67 9.748 0 17.72-7.87 17.72-17.67 0-9.749-7.921-17.67-17.67-17.67zM10.41 24.626H5.941V11.424h4.468c3.656 0 6.6 2.946 6.6 6.601a6.587 6.587 0 01-6.6 6.601zm17.06 0l-1.116-2.843h-5.027l-1.117 2.843h-2.945l5.331-13.202h2.488l5.28 13.202H27.47zm24.423-9.241h-2.184v9.292h2.184v-9.292zm-1.117-4.315c-.762 0-1.371.608-1.32 1.37.05.762.609 1.371 1.37 1.32.762 0 1.32-.61 1.32-1.32 0-.762-.609-1.37-1.37-1.37zm5.128 5.94v-1.574h-2.133v9.292h2.184v-4.062c0-1.93.965-3.148 2.59-3.148.203 0 .406 0 .558.101v-2.234c-.05-.05-.152-.05-.406-.05-1.219-.153-2.336.558-2.793 1.675zm22.24-1.625h-2.64L72 18.89v-7.464h-2.183v13.252H72v-3.656l.457-.457 3.3 4.113h2.691l-4.315-5.23 4.01-4.062zm-32.497.863c-2.081-1.675-5.128-1.37-6.854.711-1.727 2.082-1.371 5.128.71 6.855a4.825 4.825 0 006.144 0v.863h2.184V11.425h-2.184v4.823zm-2.741 6.855a3.056 3.056 0 01-3.047-3.047 3.056 3.056 0 013.047-3.046 3.055 3.055 0 013.046 3.046 3.023 3.023 0 01-3.046 3.047zm24.169-2.285c-.356 1.422-1.727 2.386-3.2 2.285a3.199 3.199 0 01-1.472-.508l5.84-5.027c-1.371-2.285-4.367-3.046-6.652-1.624-2.285 1.421-3.047 4.366-1.625 6.651 1.371 2.285 4.367 3.047 6.652 1.625a4.827 4.827 0 002.234-3.199v-.152l-1.777-.05zm-6.043-1.016a2.99 2.99 0 013.25-2.792c.457.05.914.152 1.27.406l-4.367 3.758a6.3 6.3 0 01-.153-1.372zm19.854-6.905v2.437h2.437v1.879h-2.437v4.164c0 1.015.457 1.472 1.422 1.472.355 0 .71-.102 1.015-.305v1.93c-.508.254-1.066.355-1.676.355-1.878 0-2.945-1.117-2.945-3.097v-8.835h2.184z"/></g><defs><clipPath id="clip0"><path fill="#fff" d="M0 0h83.475v36H0z"/></clipPath></defs></svg>