<svg xmlns:xlink="http://www.w3.org/1999/xlink" width="453.54" class="d-none d-lg-inline" xmlns="http://www.w3.org/2000/svg" viewBox="0 0 453.54 128.25" height="128.25" ><path fill="#002A54" d="m135.25,19.87v36.51c0,14.1-7.29,20.84-23.27,20.84h-24.92c-15.98,0-23.27-6.74-23.27-20.84V19.87h18.91v32.75c0,6.44,1.99,8.51,8.19,8.51h17.24c6.2,0,8.19-2.07,8.19-8.51V19.87h18.92Z"></path><path fill="#002A54" d="m143.9,19.87h52.5c13.4,0,17,6.66,17,16.85v3.6c0,7.6-1.72,12.07-9.72,13.95v.16c5.17.94,9.48,3.21,9.48,12.54v9.64h-18.92v-6.82c0-5.95-1.72-7.91-7.13-7.91h-24.3v14.73h-18.92V19.87Zm46.15,26.37c4.15,0,4.9-1.49,4.9-4.43v-1.88c0-3.43-.85-4.43-6.47-4.43h-25.67v10.75h27.23Z"></path><path fill="#002A54" d="m220.82,39.77c0-16.61,9.32-20.53,24.99-20.53h27.89c15.67,0,24.99,3.92,24.99,20.53v16.92c0,16.61-9.32,20.53-24.99,20.53h-27.89c-15.67,0-24.99-3.92-24.99-20.53v-16.92Zm28.76-4.43c-7.97,0-9.37,3.17-9.37,9.84v6.11c0,8,1.58,9.84,8.43,9.84h22.25c6.85,0,8.43-1.84,8.43-9.84v-6.11c0-6.67-1.4-9.84-9.37-9.84h-20.37Z"></path><path fill="#002A54" d="m307.3,19.87h47.4c16.53,0,20.53,8.31,20.53,19.43v4.86c0,8.46-3.68,18.18-15.98,18.18h-33.03v14.26h-18.92V19.87Zm44.43,26.84c1.02,0,4.12,0,4.12-4.51v-2.19c0-2.79-.94-4.51-5.61-4.51h-24.02v11.22h25.51Z"></path><path fill="#002A54" d="m399.72,19.87h22.64l31.18,56.73h-20.87l-5.41-10.03h-32.22l-5.09,10.03h-20.95l30.71-56.73Zm20.04,32.95l-8.74-16.5-8.49,16.5h17.23Z"></path><path fill="#002A54" d="m57.91,76.56H.2V0h411.39l8.28,14.82H19.1v16.19h30.85v16.29h-30.85v13.83h38.81v15.43Z"></path><path fill="#002A54" d="m26.55,101.14l-12.09,27.11h-1.98L.41,101.14h2.17l10.96,24.56,10.96-24.56h2.05Z"></path><path fill="#002A54" d="m51.57,126.47v1.78h-18.71v-27.11h18.13v1.78h-16.15v10.69h14.45v1.74h-14.45v11.12h16.73Z"></path><path fill="#002A54" d="m79.53,128.25l-6.47-9.06c-.85.12-1.7.19-2.63.19h-7.75v8.87h-1.98v-27.11h9.72c6.82,0,10.92,3.41,10.92,9.14,0,4.3-2.32,7.28-6.35,8.48l6.78,9.49h-2.25Zm-9.1-10.61c5.81,0,8.91-2.71,8.91-7.36s-3.1-7.36-8.91-7.36h-7.75v14.72h7.75Z"></path><path fill="#002A54" d="m87.78,124.76l.89-1.47c1.86,1.94,5.31,3.41,8.95,3.41,5.42,0,7.82-2.36,7.82-5.31,0-8.13-16.93-3.25-16.93-13.25,0-3.83,2.94-7.2,9.61-7.2,2.98,0,6.08.93,8.17,2.44l-.74,1.59c-2.25-1.55-5-2.29-7.44-2.29-5.27,0-7.63,2.44-7.63,5.42,0,8.13,16.93,3.33,16.93,13.17,0,3.83-3.06,7.17-9.76,7.17-4.03,0-7.9-1.51-9.88-3.68Z"></path><path fill="#002A54" d="m116.05,101.14h1.98v27.11h-1.98v-27.11Z"></path><path fill="#002A54" d="m126.82,114.69c0-7.9,6-13.75,14.06-13.75,3.83,0,7.28,1.24,9.64,3.76l-1.24,1.28c-2.32-2.29-5.15-3.21-8.33-3.21-6.93,0-12.16,5.11-12.16,11.93s5.23,11.93,12.16,11.93c3.18,0,6-.97,8.33-3.25l1.24,1.28c-2.36,2.52-5.81,3.8-9.64,3.8-8.06,0-14.06-5.85-14.06-13.75Z"></path><path fill="#002A54" d="m181.15,101.14v27.11h-1.98v-12.9h-18.13v12.9h-1.98v-27.11h1.98v12.47h18.13v-12.47h1.98Z"></path><path fill="#002A54" d="m211.25,126.47v1.78h-18.71v-27.11h18.13v1.78h-16.15v10.69h14.45v1.74h-14.45v11.12h16.73Z"></path><path fill="#002A54" d="m239.21,128.25l-6.47-9.06c-.85.12-1.7.19-2.63.19h-7.75v8.87h-1.98v-27.11h9.72c6.82,0,10.92,3.41,10.92,9.14,0,4.3-2.32,7.28-6.35,8.48l6.78,9.49h-2.25Zm-9.1-10.61c5.81,0,8.91-2.71,8.91-7.36s-3.1-7.36-8.91-7.36h-7.75v14.72h7.75Z"></path><path fill="#002A54" d="m249.97,116.75v-15.61h1.97v15.53c0,6.78,3.25,9.95,8.91,9.95s8.87-3.18,8.87-9.95v-15.53h1.97v15.61c0,7.75-4.14,11.7-10.88,11.7s-10.84-3.95-10.84-11.7Z"></path><path fill="#002A54" d="m304.93,101.14v27.11h-1.63l-18.48-23.55v23.55h-1.98v-27.11h1.67l18.44,23.55v-23.55h1.98Z"></path><path fill="#002A54" d="m335.68,114.81h1.9v10.15c-2.44,2.32-5.97,3.49-9.68,3.49-8.17,0-14.18-5.85-14.18-13.75s6-13.75,14.22-13.75c3.91,0,7.36,1.24,9.76,3.72l-1.24,1.32c-2.36-2.32-5.19-3.21-8.48-3.21-7.05,0-12.28,5.11-12.28,11.93s5.23,11.93,12.28,11.93c2.87,0,5.5-.7,7.71-2.48v-9.33Z"></path><path fill="#002A54" d="m380.72,110.28c0,5.69-4.11,9.1-10.92,9.1h-7.75v8.87h-1.98v-27.11h9.72c6.82,0,10.92,3.41,10.92,9.14Zm-2.01,0c0-4.69-3.1-7.36-8.91-7.36h-7.75v14.68h7.75c5.81,0,8.91-2.67,8.91-7.32Z"></path><path fill="#002A54" d="m389.36,116.75v-15.61h1.97v15.53c0,6.78,3.25,9.95,8.91,9.95s8.87-3.18,8.87-9.95v-15.53h1.97v15.61c0,7.75-4.14,11.7-10.88,11.7s-10.84-3.95-10.84-11.7Z"></path><path fill="#002A54" d="m441.06,128.25l-6.47-9.06c-.85.12-1.7.19-2.63.19h-7.75v8.87h-1.98v-27.11h9.72c6.82,0,10.92,3.41,10.92,9.14,0,4.3-2.32,7.28-6.35,8.48l6.78,9.49h-2.25Zm-9.1-10.61c5.81,0,8.91-2.71,8.91-7.36s-3.1-7.36-8.91-7.36h-7.75v14.72h7.75Z"></path><path fill="#002A54" d="m449.58,126.74c0-.93.74-1.63,1.63-1.63s1.63.7,1.63,1.63-.74,1.67-1.63,1.67-1.63-.74-1.63-1.67Z"></path></svg>