<?xml version="1.0" encoding="UTF-8"?>
<svg id="Layer_1" data-name="Layer 1" xmlns="http://www.w3.org/2000/svg" viewBox="0 0 157 115">
  <defs>
    <style>
      .cls-1 {
        fill: #1d1d1b;
      }

      .cls-2 {
        fill: #de2920;
      }
    </style>
  </defs>
  <path class="cls-2" d="M116.19,12.87c-4.88,11.45-17.11,13.01-22.11,12.76-4.35-.22-10.75.18-14.44,1.6-5.79,2.23-7.87,2.42-7.87,2.42.1.2.58-2.04,5.59-4.07,0,0-1.39-.39-6.64,1.17-6.68,1.99-9.46,8.49-9.46,12.89,0,1.1.29,7.51,6.93,13.26-.16-2.63,3.24-8.45,9.53-8.45,6.72,0,10.05,2.55,15.99,2.55,7.46,0,9.32-6.81,9.62-8.85.04-.29.04-.6.04-.81,0-.13-.03-.15-.06-.11-2.68,3.34-6.79,4.16-9.16,4.16-6.14,0-10.17-2.1-14.1-2.1s-6.16.68-8.86,2.37c-.09.06-.36.26-.39.21.91-1.6,3.26-4.91,7.25-5.9.11-.03.25-.12.03-.2-4.19-.17-8.96,3.25-11.03,5.44-.05.05-.25.24-.28.23-.03-.03.14-.5.17-.56.48-1.01.94-4.18,5.27-6.79,2.79-1.68,6.39-1.2,9.72-1.2,8.52,0,12,2.83,16.27,2.83,2.78.05,7.7-.96,11.87-3.79.06-.07-.01-.08-.06-.07-1.72.37-3.28,1.82-9.36.95-4.36-.9-8.52-2.24-8.52-2.24,4.56.03,9.56,1.99,15.96-1.17,3.99-1.97,7.24-6.9,7.28-8.45v-.16c-3.85,5.87-11.34,7.35-11.78,7.13,9.28-5.28,13-12.11,12.57-15.04M108.04,19.61c-4-6.3-15.77-12.97-28.64-12.97-23.13,0-36.02,20.01-36.02,36.97,0,22.36,16.9,37.37,36.04,37.37,20.92,0,36.6-17.49,36.6-37.72,0-5.65-.93-10.2-3.69-15.98,0,0,.02.03-.03-.01,1.23,5.05,1.37,11.39.99,14.8-1.01,19.15-15.97,34.42-34.32,34.42s-33.52-14.9-33.52-33.66S60.42,9.55,79.07,9.55c10.31,0,20.66,3.77,29.01,10.13.01-.02-.04-.07-.04-.07M106.73,43.87c-2.08,14.12-13.38,28.19-33.03,27.57,1.02.31,2.64.66,5.72.66,18.61,0,28.64-14.33,28.64-27.46,0-2.8.04-5.07-1.15-9.21,0,0,.27,6.76-.18,8.44M91.36,16.22c-3.72-1.85-8.04-2.79-12.33-2.79-15.9,0-29.5,14.57-29.5,29.54,0,9.83,6.09,19.47,12.51,23.02-.08,0-9.18-8.27-9.18-21.38,0-15.8,13.7-27.66,29.05-28.88.07,0,6.73-.26,9.43.5.02-.03,0,0,.01,0M89.77,24.11c-1.75.06-3.5.21-5.24.44.63-.82,1.3-1.61,2.02-2.35,4.43-4.86,10.13-7.19,10.72-7.18.65.05-1.57.94-4.65,4.81-.81,1.02-2.2,3.1-2.85,4.27M87.32,34.81c-.25,1.35-.54,2.69-.89,4.01-.1-.02-2.31-.62-4.33-.89-1.69-.23-3.24-.13-3.45-.12.23-.71.47-1.49.75-2.33.13-.39.26-.77.38-1.14.06,0,1.89-.03,3.79.08,1.25.07,2.51.2,3.75.39M84.01,46.74c-.9,2.62-2.79,7.17-4.54,10.07-1.74,2.9-4.08,5.84-6.18,8.29-.03.04-.23.24-.34.42,1.49-.1,5.16-3.66,7.49-6.35.3.54.25,5.26-3.66,8.85-3.07,2.81-8.14,4-9.01,3.53.07-.1.93-.23,2.01-.8,1.32-.71,2.54-1.22,4.41-3.29.05-.05-.39.16-.77.23-2,.37-4.09.66-4.26.49-.19-.19-.05-.4.03-.48,3.38-3.39,6.22-8.5,7.33-11.77,0-.02.13-.42-.04-.25-.23.1-1.87,2.64-1.91,2.71-2.06,2.81-7.72,9.07-12.67,10.19.42-.86,6.1-4.65,10.21-11.48,1.58-2.62,4.14-10.9,4.21-11.15.23-.01,1.89-.07,3.66.1,1.54.15,3.17.5,4.02.7"/>
  <path class="cls-1" d="M12.76,91.95h-7.44v15.29h3.44v-5.61h3.12v-3.61h-3.12v-2.43h4.09v-3.64h-.1M24.1,91.95h-7.44v15.29h7.72v-3.61h-4.28v-2.48h3.12v-3.61h-3.12v-1.95h4.09v-3.64h-.1M37.36,91.95h-3.25v9.86c0,1.42-.43,2.05-1.41,2.05-.92,0-1.31-.63-1.31-2.1v-9.81h-3.44v9.81c0,3.89,1.51,5.71,4.75,5.71s4.75-1.87,4.75-5.71v-9.81h-.1M48.78,91.95h-7.44v15.29h7.72v-3.61h-4.28v-2.48h3.12v-3.61h-3.12v-1.95h4.09v-3.64h-.1M53.2,91.95h-.1v15.29h3.44v-5.4h1.22l1.69,5.4h4l-2.51-6.61c.91-.96,1.61-2.22,1.61-4.07,0-2.84-1.91-4.6-4.52-4.6,0,0-4.84,0-4.84,0ZM57.61,95.11c.76,0,1.49.62,1.49,1.7,0,1.18-.73,1.89-1.49,1.89h-1.07v-3.58h1.07M66.09,96.34c0,2.51.78,3.81,2.67,4.48l1.37.47c1.27.36,1.51.75,1.51,1.3,0,.93-1.03,1.13-1.9,1.13-1.25,0-2.18-.18-3.21-.61l-.11-.04-.71,3.64.08.03c1.26.51,2.59.74,4.34.74,3,0,4.94-2.09,4.94-5.33,0-2.33-.88-3.71-2.79-4.36l-1.37-.47c-1.29-.37-1.4-.74-1.4-1.09s.16-.75,1.39-.75c1.05,0,2.14.23,2.98.63l.11.05.77-3.54-.07-.03c-1.19-.62-2.27-.86-3.84-.86-2.9,0-4.77,1.81-4.77,4.62M77.93,99.76c0,4.97,1.88,7.71,5.3,7.71,3.66,0,5.3-2.48,5.3-8.04,0-4.98-1.88-7.71-5.3-7.71-3.66,0-5.3,2.48-5.3,8.04M81.56,99.64c0-3.86.58-4.6,1.67-4.6,1.14,0,1.67,1.43,1.67,4.5,0,4.04-.8,4.6-1.67,4.6-1.17,0-1.67-1.35-1.67-4.5M99.69,91.95h-8.36v3.59h4.5c-.15.28-4.48,8.32-4.48,8.32v3.38h8.7v-3.59h-4.76c.15-.27,4.5-8.3,4.5-8.3v-3.4h-.1M107.3,91.95h-3.34v15.29h3.44v-15.29h-.1M118.92,91.95h-7.44v15.29h7.72v-3.61h-4.28v-2.48h3.12v-3.61h-3.12v-1.95h4.09v-3.64h-.09M131.68,91.95h-9.19v3.64h2.97v11.65h3.44v-11.65h2.87v-3.64h-.1M140.05,91.93h-3.83l-3.63,15.31h3.26l.56-2.97h3.18l.56,2.97h3.73l-3.76-15.31h-.08,0ZM138.02,95.87c.15.82.94,5.01.97,5.21h-1.96c.04-.2.83-4.39.99-5.21M153.9,91.95h-9.09v3.64h2.87v11.65h3.44v-11.65h2.87v-3.64h-.1M137.63,91.08h-2.96v-2h2.96v2M141.66,91.08h-2.96v-2h2.96v2"/>
</svg>