<svg xmlns="http://www.w3.org/2000/svg" xmlns:xlink="http://www.w3.org/1999/xlink" version="1.1" id="Ebene_1" x="0px" y="0px" viewBox="0 0 336.3 336.3" style="enable-background:new 0 0 336.3 336.3;" xml:space="preserve" width="336.3"  height="336.3" >
<style type="text/css">
	.st0{fill:#FABB00;}
	.st1{fill:#00519E;}
</style>
<g>
	<rect class="st0" width="336.3" height="336.3"/>
	<path class="st1" d="M306,181.6c0,0-108.6,37.4-179.9,33.6c-37.4-2-94.4-16.7-94.5-16.8c0.2,0,0.5,1.9-0.1,5.7   c-0.5,3.3-1.2,4.8-1.2,4.8s57.2,22.7,95.8,26.3c71.3,6.6,178.8-43.3,178.6-43.1c0.1,0.1,0.1-2.3,0.3-3.8   C305.3,185.7,306,181.6,306,181.6"/>
	<g>
		<path class="st1" d="M74.9,121.1h18.9v18.5c0,4.6-1.6,5.6-5.2,6.6c-3.4,1-6.9,1.4-11.6,1.4c-19.5,0-27.5-11-27.5-38    c0-26.3,8.7-38,28.4-38c12.8,0,21.1,2.9,27.9,5.6l2.7,1.1V60.5l-1.2-0.5c-5.9-2.6-14-5.3-29.4-5.3c-31.1,0-47.6,19-47.6,54.9    c0,36.4,15.7,54.9,46.7,54.9c9.6,0,17.9-1.9,24.6-5.5c9.2-5.2,10.8-9.8,10.8-20.2v-34.5H74.9V121.1z"/>
		<path class="st1" d="M190.9,58c-4.4,19.2-18.2,65.1-24.6,83.5c-6.4-18.4-20.2-64.3-24.6-83.5l-0.4-1.5h-19.6l0.5,2.4    c5.7,25.2,25.1,85.3,32.5,102.7l0.5,1.2h22l0.5-1.2c7.4-17.3,26.8-77.5,32.5-102.7l0.5-2.4h-19.6L190.9,58z"/>
		<path class="st1" d="M259.8,54.7c-28.4,0-46.1,21-46.1,54.9c0,33.9,17.7,54.9,46.1,54.9c28.5,0,46.2-21,46.2-54.9    C306.1,75.7,288.3,54.7,259.8,54.7z M259.8,147.6c-22.2,0-26.9-20.7-26.9-38c0-17.4,4.7-38,26.9-38c22.4,0,27,20.7,27,38    C286.9,126.9,282.2,147.6,259.8,147.6z"/>
	</g>
	<g>
		<path class="st1" d="M38.9,304.9c-1.9-4.4-7.1-20.4-8.6-27.3h4.1c1.3,5.8,5.7,20.3,7.1,23.7c1.3-3.4,5.7-17.9,7.1-23.7h4.1    c-1.6,6.9-6.8,22.9-8.6,27.3H38.9z"/>
		<path class="st1" d="M57.4,277.6h16.4v3.4H61.3v8.1H72v3.4H61.3v8.8h12.5v3.4H57.4V277.6z"/>
		<path class="st1" d="M79.2,277.9c2-0.4,5.7-0.5,8-0.5c6.9,0,10.2,3.2,10.2,8.6c0,4.1-2.9,7-6.1,7.7c2.1,2.2,5.6,7.3,7.6,11.4h-4.5    c-1.7-3.4-5.2-8.7-6.9-10.5l-1.4,0.2c-2.7,0.4-2.9,1.1-2.9,5.2v5.1h-3.9V277.9z M83.1,292.2c0.9-0.5,1.4-0.7,4.6-1.1    c3.4-0.4,5.5-1.8,5.5-5.2c0-3.1-1.6-5.1-6.3-5.1c-1.2,0-2.6,0.1-3.9,0.3V292.2z"/>
		<path class="st1" d="M119.3,278.7v3.5c-2-0.9-4.7-1.6-7.4-1.6c-3.2,0-5,1.3-5,3.9c0,1.9,0.9,2.9,3.5,3.9l3.8,1.3    c4.3,1.5,6.3,3.9,6.3,7.7c0,5-3.7,7.9-10.3,7.9c-2.9,0-5-0.6-7.4-1.7v-3.5c2,0.9,4.8,1.8,7.5,1.8c3.8,0,6.1-1.4,6.1-4.1    c0-2.3-1.4-3.6-4.7-4.7l-2.9-1c-4.1-1.4-5.9-3.9-5.9-7.3c0-4.3,2.8-7.7,9.1-7.7C114.9,277.2,117.5,277.8,119.3,278.7z"/>
		<path class="st1" d="M126.2,277.6h3.9v27.3h-3.9V277.6z"/>
		<path class="st1" d="M153.5,304.6c-1.6,0.6-2.9,0.8-5.7,0.8c-8,0-11.8-5-11.8-14.1c0-9.2,3.7-14.1,11.8-14.1    c2.7,0,4.1,0.3,5.7,0.8v3.5c-1.6-0.5-3.2-0.9-5.7-0.9c-6.2,0-7.7,4.2-7.7,10.6c0,6.4,1.4,10.7,7.7,10.7c2.5,0,4.1-0.4,5.7-0.9    V304.6z"/>
		<path class="st1" d="M174.7,292.6h-12.2v12.3h-3.9v-27.3h3.9v11.6h12.2v-11.6h3.9v27.3h-3.9V292.6z"/>
		<path class="st1" d="M185.8,277.6h16.4v3.4h-12.5v8.1h10.7v3.4h-10.7v8.8h12.5v3.4h-16.4V277.6z"/>
		<path class="st1" d="M207.6,277.9c2-0.4,5.7-0.5,8-0.5c6.9,0,10.2,3.2,10.2,8.6c0,4.1-2.9,7-6.1,7.7c2.1,2.2,5.6,7.3,7.6,11.4    h-4.5c-1.7-3.4-5.2-8.7-6.9-10.5l-1.4,0.2c-2.7,0.4-2.9,1.1-2.9,5.2v5.1h-3.9V277.9z M211.5,292.2c0.9-0.5,1.4-0.7,4.6-1.1    c3.4-0.4,5.5-1.8,5.5-5.2c0-3.1-1.6-5.1-6.3-5.1c-1.2,0-2.6,0.1-3.9,0.3V292.2z"/>
		<path class="st1" d="M235.5,295.1c0,4.3,2.2,6.8,6.1,6.8c3.9,0,6.1-2.5,6.1-6.8v-17.5h3.9v17.7c0,6.2-4.1,10-10,10    c-5.9,0-10-3.8-10-10v-17.7h3.9V295.1z"/>
		<path class="st1" d="M258.6,277.6h3.8c4.4,5.3,10.8,15.7,12.9,19.8v-19.8h3.9v27.3h-3.8c-3-5.8-9.8-17-12.9-20.9v20.9h-3.9V277.6z    "/>
		<path class="st1" d="M297.1,293.8v-3.4h8.9v8.7c0,2.7-0.4,3.7-2.6,4.9c-1.6,0.9-3.6,1.4-6.3,1.4c-8,0-11.9-4.9-11.9-14.1    c0-9.1,4.1-14.1,12.1-14.1c4.1,0,6.2,0.7,7.6,1.4v3.6c-2-0.8-4.2-1.5-7.6-1.5c-6.2,0-8.1,4.3-8.1,10.7c0,6.5,1.7,10.7,7.9,10.7    c1.1,0,2.1-0.1,3.2-0.4c1.1-0.3,1.8-0.7,1.8-2.3v-5.5H297.1z"/>
	</g>
</g>
</svg>