<svg xmlns:xlink="http://www.w3.org/1999/xlink" xmlns="http://www.w3.org/2000/svg" class="u-svg-icon " id="logo-kommunal" width="170"  height="65" ><defs><symbol id="sprite-logo-kommunal" viewBox="0 0 170 65"><title>83070a09-c2f9-4cc0-8638-bd3a6ba0a5b6@1.00x</title><g fill-rule="nonzero" fill="none"><path d="M42.785 4.753v16.014C38.832 13.945 31.453 9.356 23.001 9.356c-8.452 0-15.831 4.589-19.785 11.411V4.753a4.6 4.6 0 0 1 4.6-4.6h30.366a4.601 4.601 0 0 1 4.603 4.6ZM23.001 55.05c-8.452 0-15.831-4.59-19.785-11.412v12.12c4.99 5.196 12.01 8.433 19.785 8.433 7.774 0 14.794-3.237 19.784-8.433v-12.12C38.832 50.461 31.453 55.05 23.001 55.05Z" fill="#00B987"></path><path d="M10.638 32.12h3.332v5.263c-1.471 1.64-3.51 2.463-6.114 2.463-2.18 0-4.007-.723-5.487-2.166C.89 36.237.152 34.415.152 32.215c0-2.2.754-4.035 2.26-5.506C3.92 25.237 5.735 24.5 7.867 24.5c2.13 0 3.98.7 5.55 2.101l-1.72 2.483c-.667-.58-1.277-.98-1.836-1.2a4.906 4.906 0 0 0-1.816-.331c-1.26 0-2.32.43-3.182 1.285-.864.856-1.294 1.985-1.294 3.386 0 1.4.416 2.522 1.243 3.363.827.842 1.816 1.262 2.962 1.262 1.147 0 2.101-.22 2.867-.658V32.12h-.003Zm8.192-7.284h-3.586l5.964 14.837h2.801l5.964-14.837h-3.586l-3.779 9.446-3.778-9.446Zm15.876 0H31.12l5.964 14.837h2.801l5.964-14.837h-3.586l-3.779 9.446-3.778-9.446Zm22.809 14.67h3.273v-4.153l1.468-1.638 4.304 5.792h3.82c-.672-.938-1.685-2.361-3.044-4.27a1512.018 1512.018 0 0 0-2.79-3.914l5.835-6.484h-4.05l-5.54 6.024v-6.024h-3.273v14.668h-.003Zm23.472-9.79c-1.132-1.127-2.558-1.689-4.27-1.689-1.714 0-3.137.562-4.27 1.69-1.132 1.126-1.7 2.507-1.7 4.145 0 1.638.568 3.016 1.7 4.134 1.133 1.118 2.556 1.68 4.27 1.68 1.715 0 3.138-.56 4.27-1.68 1.133-1.118 1.7-2.496 1.7-4.134 0-1.638-.567-3.02-1.7-4.146Zm-6.286 1.878c.525-.587 1.198-.881 2.016-.881.82 0 1.489.294 2.014.881.525.587.788 1.344.788 2.268 0 .923-.263 1.674-.788 2.256-.525.582-1.197.87-2.014.87-.818 0-1.49-.291-2.016-.87-.525-.579-.788-1.333-.788-2.256 0-.924.263-1.68.788-2.268Zm21.374-.178a2.258 2.258 0 0 1 1.638-.68c1.274 0 1.91.866 1.91 2.603v6.17h3.168v-6.862c0-1.496-.407-2.64-1.217-3.43-.81-.791-1.881-1.187-3.211-1.187-.743 0-1.48.19-2.214.568a4.447 4.447 0 0 0-1.754 1.595 4.119 4.119 0 0 0-1.31-1.533 3.232 3.232 0 0 0-1.94-.63c-1.118 0-2.112.492-2.98 1.469v-1.28h-3.148v11.29h3.149v-6.085c0-.881.234-1.55.703-2.005.469-.455 1.008-.68 1.615-.68s1.05.208 1.322.63c.274.42.41 1.078.41 1.973v6.17h3.168v-6.085c0-.887.231-1.556.691-2.01Zm20.912 0a2.258 2.258 0 0 1 1.637-.68c1.274 0 1.91.866 1.91 2.603v6.17h3.168v-6.862c0-1.496-.407-2.64-1.217-3.43-.81-.791-1.881-1.187-3.211-1.187-.743 0-1.48.19-2.214.568a4.447 4.447 0 0 0-1.754 1.595 4.119 4.119 0 0 0-1.31-1.533 3.232 3.232 0 0 0-1.94-.63c-1.118 0-2.112.492-2.98 1.469v-1.28h-3.148v11.29h3.149v-6.085c0-.881.234-1.55.703-2.005.469-.455 1.008-.68 1.615-.68s1.05.208 1.322.63c.274.42.41 1.078.41 1.973v6.17h3.168v-6.085c0-.887.231-1.556.692-2.01Zm16.443 4.869a2.258 2.258 0 0 1-1.638.68c-1.273 0-1.909-.867-1.909-2.604v-6.147h-3.168v6.842c0 1.525.42 2.674 1.26 3.454.838.776 1.877 1.163 3.117 1.163 1.237 0 2.248-.553 3.033-1.657v1.49h3.168v-11.29h-3.168v6.086c-.003.867-.234 1.528-.695 1.983Zm10.974-5.078c.469-.455 1.017-.683 1.646-.683 1.274 0 1.91.867 1.91 2.603v6.38h3.148v-6.862c0-1.398-.401-2.52-1.206-3.358-.805-.839-1.802-1.26-2.99-1.26-1.19 0-2.26.483-3.211 1.45v-1.26h-3.149v11.29h3.149v-6.298c0-.88.234-1.547.703-2.002Zm19.152 1.101c0-1.482-.435-2.566-1.302-3.253-.867-.686-1.985-1.028-3.358-1.028-1.903 0-3.595.54-5.077 1.616l1.406 2.036c.421-.322.935-.59 1.542-.808.61-.217 1.186-.325 1.731-.325 1.274 0 1.91.602 1.91 1.805v.062h-2.35c-1.455 0-2.604.288-3.443.861-.838.574-1.26 1.438-1.26 2.593s.407 2.078 1.218 2.77c.81.692 1.816 1.04 3.01 1.04 1.198 0 2.2-.512 3.01-1.531v1.363h2.96v-7.2h.003Zm-3.81 4.27c-.426.342-.92.514-1.48.514-.559 0-.99-.107-1.29-.325-.302-.217-.452-.528-.452-.934 0-.783.63-1.175 1.89-1.175h1.973v.545c0 .576-.214 1.034-.64 1.375Zm10.116-12.642h-3.149v15.57h3.149v-15.57Z" fill="#005546"></path></g></symbol></defs>
  <use xlink:href="#sprite-logo-kommunal"></use>
</svg>