<svg xmlns:xlink="http://www.w3.org/1999/xlink" xmlns="http://www.w3.org/2000/svg" class="u-svg-icon " id="logo-privat" width="253"  height="134" ><defs><symbol id="sprite-logo-privat" viewBox="0 0 253 134"><title>cb3505e8-f821-472e-82d0-1ced4e8f4aaa@1.00x</title><g fill-rule="nonzero" fill="none"><path d="M22.14 66.847h6.934v10.955c-3.062 3.415-7.305 5.125-12.724 5.125-4.537 0-8.34-1.504-11.419-4.508C1.851 75.416.317 71.625.317 67.047s1.57-8.398 4.702-11.46c3.139-3.063 6.918-4.596 11.355-4.596 4.431 0 8.28 1.457 11.549 4.372l-3.58 5.166c-1.387-1.205-2.656-2.04-3.82-2.498-1.164-.458-2.421-.687-3.779-.687-2.621 0-4.83.893-6.623 2.674-1.799 1.78-2.692 4.132-2.692 7.047s.864 5.248 2.586 7c1.722 1.75 3.779 2.626 6.165 2.626s4.373-.458 5.965-1.369v-8.475h-.006ZM39.19 51.69h-7.465l12.413 30.879h5.83l12.413-30.88h-7.465l-7.863 19.66-7.864-19.66Zm33.04 0h-7.463l12.412 30.879h5.83l12.413-30.88h-7.464l-7.864 19.66-7.863-19.66Zm58.373.023h-10.902v30.862h10.55c5.888 0 10.26-1.4 13.135-4.197 2.868-2.797 4.302-6.594 4.302-11.39s-1.47-8.545-4.414-11.237-7.17-4.038-12.671-4.038Zm.353 24.767h-4.373V57.714h3.838c3.503 0 6.1.817 7.793 2.45 1.693 1.635 2.539 3.968 2.539 7 0 3.033-.846 5.343-2.54 6.93-1.686 1.587-4.107 2.386-7.257 2.386Zm28.44-17.661h-6.624v23.75h6.623v-23.75Zm20.634 5.83-.041-6.224c-1.322.03-2.627.382-3.908 1.058-1.282.676-2.345 1.499-3.203 2.474v-3.132h-6.624v23.75h6.624V72.289c0-2.298.487-4.143 1.457-5.542.97-1.398 2.445-2.098 4.414-2.098h1.281Zm20.635 10.462c-1.499 1.563-3.415 2.339-5.742 2.339-1.44 0-2.739-.412-3.885-1.235-1.146-.822-1.828-1.88-2.033-3.18h17.308v-3.531c0-3.444-1.14-6.154-3.42-8.123-2.28-1.968-5.055-2.956-8.323-2.956-3.267 0-6.1 1.105-8.498 3.309-2.398 2.21-3.597 5.178-3.597 8.916 0 3.738 1.176 6.717 3.532 8.939 2.357 2.222 5.337 3.332 8.94 3.332 3.602 0 6.747-1.263 9.427-3.796l-3.709-4.014Zm-1.058-6.8h-10.42c.176-1.352.81-2.428 1.898-3.221 1.087-.794 2.286-1.193 3.597-1.193 1.31 0 2.421.382 3.332 1.146.911.764 1.446 1.857 1.593 3.268Zm18.096 7.417 2.163-2.251 6.047 9.092h7.858l-9.403-14.17 9.05-9.627h-8.345l-7.37 7.858V49.81h-6.624v32.759h6.624v-6.841Zm32.912-12.143V58.82h-5.742v-7.106h-6.664v7.106h-2.78v4.766h2.78v10.95c0 2.591.787 4.637 2.362 6.135 1.575 1.499 3.503 2.251 5.783 2.251 2.28 0 4.45-.94 6.512-2.827l-2.474-4.637c-.852 1.117-1.898 1.675-3.133 1.675-.646 0-1.204-.258-1.675-.77-.47-.517-.705-1.228-.705-2.139V63.585h5.736Zm-94.534-6.664c1.087 0 2.01-.377 2.762-1.129.752-.752 1.122-1.669 1.122-2.756 0-1.087-.376-2.01-1.122-2.757-.752-.752-1.67-1.128-2.762-1.128-1.088 0-2.01.376-2.757 1.128-.752.753-1.128 1.67-1.128 2.757 0 1.087.376 2.01 1.128 2.756.752.752 1.67 1.129 2.757 1.129Z" fill="#003C6E"></path><path d="M89.045 9.891v33.33C80.817 29.02 65.46 19.47 47.87 19.47c-17.59 0-32.948 9.55-41.176 23.75V9.89A9.571 9.571 0 0 1 16.268.317h63.198c5.289 0 9.58 4.285 9.58 9.574ZM47.87 114.57c-17.59 0-32.948-9.55-41.176-23.75v25.225c10.385 10.814 24.996 17.55 41.176 17.55 16.18 0 30.79-6.736 41.175-17.55V90.82c-8.228 14.2-23.585 23.75-41.175 23.75Z" fill="#00AAD2"></path></g></symbol></defs>
  <use xlink:href="#sprite-logo-privat"></use>
</svg>