<svg xmlns:xlink="http://www.w3.org/1999/xlink" xmlns="http://www.w3.org/2000/svg" width="501.663" height="75.841" viewBox="0 0 501.663 75.841"><path fill="#999999" d="M253.152 0h3.515v75.84h-3.515zM498.416 63.224c0 .85.76 1.608 1.608 1.608.88 0 1.64-.728 1.64-1.608 0-.91-.73-1.608-1.64-1.608-.88 0-1.608.728-1.608 1.608m-5.886-6.918l-8.617.334c.394-2.64 2.367-4.37 4.673-4.37 2.245 0 3.853 1.548 3.944 4.036m1.396 4.46c-1.912 1.548-3.702 2.337-5.462 2.337-2.76 0-4.43-1.7-4.703-4.764l10.682-.365.273-.607c0-.213.03-.395.03-.577 0-3.974-2.397-6.28-6.038-6.28-4.096 0-7.282 3.126-7.282 7.707 0 4.006 2.882 6.858 6.918 6.858 1.912 0 3.793-.637 5.462-1.912l.12-2.397zm-23.515-3.64l7.556 7.342h3.095l-7.858-7.495 5.796-5.856h-2.7l-5.887 6.008zm-.03 7.342V42.682l-2.397.637v21.148h2.398zm-9.587 0v-6.463c0-3.307 1.335-4.612 5.34-4.915v-2.397c-2.033 0-3.793.82-5.4 2.457v-2.033h-2.398v13.35h2.458zm-9.224-2.458c-1.458.76-2.67 1.244-3.915 1.244-2.7 0-4.52-1.942-4.52-5.22 0-3.336 2-5.49 4.975-5.49 1.062 0 2.215.303 3.46.91v8.556zm2.67 2.458c-.153-.94-.274-1.912-.274-2.943V51.117l-2.397.243c-1.336-.425-2.55-.667-3.733-.667-4.37 0-7.16 2.943-7.16 7.282 0 4.248 2.7 7.1 6.492 7.1 1.486 0 2.973-.486 4.58-1.396.092.485.183.97.365 1.425l2.124-.637zm-4.613-17.963c0 .85.668 1.487 1.487 1.487s1.456-.637 1.456-1.487c0-.79-.667-1.487-1.456-1.487s-1.487.698-1.487 1.487m-5.19 0c0 .85.64 1.487 1.458 1.487s1.487-.637 1.487-1.487c0-.79-.698-1.487-1.487-1.487s-1.457.698-1.457 1.487m-8.556 12.562V53.03h3.732v-1.913h-3.732v-4.763l-2.458.637v4.127h-2.79v1.912h2.79v6.34c0 2.55.06 4.097 1.882 5.37h3.398c-2.61-1.334-2.822-2.79-2.822-5.673m-20.026 1.487l.213 3.004c2.153 1.092 4.216 1.638 6.128 1.638 4.127 0 6.888-2.61 6.888-6.16 0-2.76-1.73-5.036-5.098-6.523l-1.517-.667c-2.7-1.184-4.035-2.398-4.035-4.218 0-1.85 1.457-3.186 3.763-3.186 1.73 0 3.43.667 5.25 2.033v-2.73c-1.397-.85-3.187-1.457-5.13-1.457-3.73 0-6.22 2.336-6.22 5.46 0 2.58 1.61 4.613 4.795 6.07l1.487.667c2.67 1.214 4.248 2.337 4.248 4.552 0 2.245-1.76 3.823-4.52 3.823-1.943 0-3.885-.85-6.252-2.306m-13.44-4.248l-8.618.334c.395-2.64 2.367-4.37 4.673-4.37 2.246 0 3.854 1.548 3.945 4.036m1.396 4.46c-1.91 1.548-3.7 2.337-5.46 2.337-2.762 0-4.43-1.7-4.704-4.764l10.68-.365.274-.607c0-.213.03-.395.03-.577 0-3.974-2.397-6.28-6.038-6.28-4.096 0-7.282 3.126-7.282 7.707 0 4.006 2.883 6.858 6.918 6.858 1.912 0 3.793-.637 5.462-1.912l.12-2.397zm-19.215 3.702v-6.463c0-3.307 1.335-4.612 5.34-4.915v-2.397c-2.032 0-3.792.82-5.4 2.457v-2.033h-2.397v13.35h2.457zm-7.797-8.162l-8.618.334c.395-2.64 2.367-4.37 4.673-4.37 2.246 0 3.854 1.548 3.945 4.036m1.395 4.46c-1.91 1.548-3.7 2.337-5.46 2.337-2.762 0-4.43-1.7-4.704-4.764l10.68-.365.272-.607c0-.213.03-.395.03-.577 0-3.974-2.396-6.28-6.037-6.28-4.097 0-7.283 3.126-7.283 7.707 0 4.006 2.883 6.858 6.918 6.858 1.912 0 3.793-.637 5.462-1.912l.12-2.397zm-24.364.364l-.305 2.246c1.487 1.122 3.277 1.73 5.098 1.73 2.973 0 4.794-1.64 4.794-4.158 0-2.002-1.153-3.186-3.64-4.157l-1.063-.423c-1.88-.73-2.67-1.093-2.67-2.337 0-1 .79-1.73 2.093-1.73 1.184 0 2.55.547 4.096 1.67l.486-2.094c-1.58-.91-3.066-1.396-4.643-1.396-2.64 0-4.248 1.548-4.248 3.975 0 2.063 1.152 2.974 3.427 3.914l1.275.515c1.578.668 2.548 1.032 2.548 2.397 0 1.062-.94 1.85-2.427 1.85-1.365 0-3.004-.667-4.824-2.002m-13.564 3.338v-6.22c0-3.702 2.58-5.4 5.006-5.4 2.033 0 2.852 1.213 2.852 3.67v7.95h2.397v-8.253c0-3.61-1.698-5.462-4.702-5.462-2.002 0-3.944 1.032-5.552 3.065v-2.7h-2.397v13.35h2.396zm-19.268-13.35v8.526c0 3.61 1.7 5.46 4.703 5.46 2.004 0 3.885-1 5.615-3.003l.152 3.005 2.184-.637v-13.35h-2.396v6.493c0 3.702-2.58 5.402-5.006 5.402-2.033 0-2.853-1.184-2.853-3.642v-8.253h-2.397zm-14.412 7.95v-6.04h3.732v-1.91h-3.732v-4.764l-2.457.637v4.127h-2.793v1.912h2.792v6.34c0 2.55.06 4.097 1.88 5.37h3.398c-2.61-1.334-2.822-2.79-2.822-5.673m-15.9 2.063l-.302 2.246c1.486 1.122 3.277 1.73 5.097 1.73 2.975 0 4.795-1.64 4.795-4.158 0-2.002-1.153-3.186-3.64-4.157l-1.063-.423c-1.88-.73-2.67-1.093-2.67-2.337 0-1 .79-1.73 2.094-1.73 1.183 0 2.548.547 4.096 1.67l.485-2.094c-1.577-.91-3.064-1.396-4.642-1.396-2.64 0-4.248 1.548-4.248 3.975 0 2.063 1.153 2.974 3.43 3.914l1.273.515c1.578.668 2.55 1.032 2.55 2.397 0 1.062-.942 1.85-2.428 1.85-1.366 0-3.004-.667-4.825-2.002m-6.675-14.96c0 1.003.79 1.76 1.76 1.76 1 0 1.79-.757 1.79-1.76 0-1-.79-1.79-1.79-1.79s-1.76.79-1.76 1.79m3.004 18.298V50.48l-2.458.637v13.35h2.458zM480.96 27.406v-6.038h3.734v-1.912h-3.733v-4.764l-2.456.638v4.126h-2.792v1.912h2.792v6.34c0 2.55.06 4.097 1.88 5.372h3.4c-2.61-1.335-2.823-2.792-2.823-5.674M470.525 14.51c0 1.002.79 1.76 1.76 1.76 1 0 1.79-.758 1.79-1.76 0-1-.79-1.79-1.79-1.79s-1.76.79-1.76 1.79m3.004 18.297V18.82l-2.458.636v13.35h2.458zm-7.89-8.162l-8.616.333c.394-2.64 2.367-4.37 4.673-4.37 2.245 0 3.853 1.55 3.944 4.037m1.395 4.46c-1.912 1.547-3.702 2.336-5.462 2.336-2.76 0-4.43-1.698-4.703-4.762l10.68-.365.274-.606c0-.213.03-.395.03-.577 0-3.975-2.397-6.28-6.038-6.28-4.096 0-7.282 3.125-7.282 7.706 0 4.005 2.882 6.858 6.918 6.858 1.912 0 3.793-.638 5.462-1.912l.12-2.397zm-23.515-3.64l7.555 7.342h3.095l-7.86-7.495 5.797-5.856h-2.7l-5.887 6.008zm-.03 7.342V11.02l-2.398.638v21.15h2.398zm-25.61 0v-6.22c0-3.702 2.337-5.37 4.492-5.37 1.91 0 2.67 1.182 2.67 3.64v7.95h2.306v-6.22c0-3.702 2.336-5.37 4.49-5.37 1.942 0 2.67 1.182 2.67 3.64v7.95h2.367v-8.253c0-3.64-1.426-5.462-4.308-5.462-1.973 0-3.61 1.062-5.34 3.095-.638-1.972-2.155-3.095-4.158-3.095-1.912 0-3.61 1.032-5.22 3.034v-2.67h-2.336v13.35h2.367zm-9.162-2.458c-1.457.758-2.67 1.243-3.914 1.243-2.7 0-4.52-1.942-4.52-5.22 0-3.337 2-5.49 4.975-5.49 1.06 0 2.214.303 3.458.91v8.556zm2.67 2.457c-.152-.94-.273-1.912-.273-2.943V19.456l-2.397.243c-1.335-.426-2.55-.67-3.732-.67-4.37 0-7.16 2.945-7.16 7.283 0 4.248 2.7 7.1 6.492 7.1 1.487 0 2.974-.485 4.582-1.395.09.485.182.97.364 1.426l2.124-.637zm-25.336-3.338l-.303 2.244c1.485 1.123 3.276 1.73 5.096 1.73 2.974 0 4.794-1.64 4.794-4.157 0-2.003-1.153-3.186-3.64-4.157l-1.063-.425c-1.88-.728-2.67-1.092-2.67-2.336 0-1.002.79-1.73 2.094-1.73 1.184 0 2.55.546 4.097 1.668l.485-2.093c-1.577-.91-3.064-1.396-4.642-1.396-2.64 0-4.248 1.546-4.248 3.974 0 2.063 1.153 2.973 3.43 3.914l1.273.516c1.578.667 2.55 1.03 2.55 2.397 0 1.063-.942 1.852-2.428 1.852-1.366 0-3.004-.668-4.825-2.003m-13.563 3.337v-6.22c0-3.702 2.578-5.4 5.006-5.4 2.033 0 2.852 1.212 2.852 3.67v7.95h2.397v-8.253c0-3.61-1.7-5.462-4.703-5.462-2.003 0-3.945 1.032-5.553 3.065v-2.7h-2.398v13.35h2.397zm-9.83-18.297c0 1.002.787 1.76 1.758 1.76 1.002 0 1.79-.758 1.79-1.76 0-1-.788-1.79-1.79-1.79-1 0-1.76.79-1.76 1.79m3.004 18.297V18.82l-2.457.636v13.35h2.457zm-7.888-8.162l-8.617.333c.394-2.64 2.366-4.37 4.672-4.37 2.245 0 3.853 1.55 3.944 4.037m1.396 4.46c-1.912 1.547-3.702 2.336-5.462 2.336-2.76 0-4.43-1.698-4.703-4.762l10.68-.365.273-.606c0-.213.03-.395.03-.577 0-3.975-2.396-6.28-6.037-6.28-4.096 0-7.282 3.125-7.282 7.706 0 4.005 2.883 6.858 6.92 6.858 1.91 0 3.79-.638 5.46-1.912l.122-2.397zm-34.682 3.702v-6.22c0-3.702 2.337-5.37 4.49-5.37 1.913 0 2.67 1.182 2.67 3.64v7.95h2.307v-6.22c0-3.702 2.337-5.37 4.49-5.37 1.943 0 2.67 1.182 2.67 3.64v7.95h2.368v-8.253c0-3.64-1.426-5.462-4.31-5.462-1.97 0-3.61 1.062-5.34 3.095-.636-1.972-2.153-3.095-4.156-3.095-1.912 0-3.61 1.032-5.22 3.034v-2.67h-2.335v13.35h2.366zm-7.736-8.162l-8.618.333c.395-2.64 2.367-4.37 4.673-4.37 2.245 0 3.854 1.55 3.945 4.037m1.395 4.46c-1.91 1.547-3.702 2.336-5.46 2.336-2.763 0-4.43-1.698-4.704-4.762l10.68-.365.273-.606c0-.213.03-.395.03-.577 0-3.975-2.397-6.28-6.038-6.28-4.096 0-7.282 3.125-7.282 7.706 0 4.005 2.883 6.858 6.918 6.858 1.912 0 3.793-.638 5.462-1.912l.12-2.397zm-15.474 2.215v-9.345h-9.012v2.215h6.464v5.522c-1.91.94-3.67 1.426-5.492 1.426-5.067 0-8.465-3.793-8.465-9.072 0-5.462 3.732-9.316 8.647-9.316 2.246 0 4.4.82 6.767 2.397l.152-2.73c-2.124-1.244-4.46-1.85-6.918-1.85-6.523 0-11.226 4.823-11.226 11.5 0 6.644 4.612 11.468 11.105 11.468 2.518 0 5.097-.79 7.98-2.215"></path><path fill="#003399" d="M9.95 10.698h12.82c-1.197 7.22-2.22 12.763-3.552 19.89H40.22l3.6-19.89h12.99l-9.827 54.474H34.08l4.074-23.275H17.13c-.006-.01-4.35 23.28-4.35 23.275H0l9.95-54.474zM128.87 9.015l27.85 31.468 5.505-29.785h12.667s-10.508 55.862-10.516 55.894c-.077.33-1.244.875-2.176-.057 0 0-27.386-31.152-27.406-31.15-.012-.037-5.528 29.786-5.528 29.786s-12.345-.02-12.35 0l10.178-55.82c.12-.67 1.343-.69 1.775-.335M99.267 37.106c-1.232 12.557-10.67 16.998-24.32 16.52-.002.003 5.615-31.297 5.615-31.297 14.458-1.106 19.447 7.202 18.705 14.776M87.243 10.86H69.65S59.92 65.172 59.91 65.166h17.79c15.755.006 33.37-7.685 34.858-28.06.92-16.907-11.85-26.127-25.313-26.246M194.29 48.356c-.004-.004 9.703-13.903 9.69-13.894.013.017 4.216 13.89 4.216 13.89.015.06-13.907.004-13.907.004m15.705-38.553c-.238-.782-1.417-.656-1.733-.24.155.052-38.087 55.896-38.096 55.896h13.1s5.1-7.838 5.093-7.844h22.33l2.367 7.843h13.37C220.79 47.64 209.994 9.802 209.994 9.802"></path></svg>