<svg xmlns:xlink="http://www.w3.org/1999/xlink" xmlns="http://www.w3.org/2000/svg" viewBox="0 0 113.05 26.29" width="150"  height="35" ><g data-name="Ebene 2"><g data-name="Logo mit Unterzeile"><path d="M12.88 0h14.49v3.15A6.49 6.49 0 0 1 25 8.57L13 21c-2.95 3-5 3.88-7.94 3.15A6.78 6.78 0 0 1 0 17.36V6.78c1.42 1.84 2 2.69 3.83 3.49 5.67 2.49 11.29-3 9.73-8.54A9 9 0 0 0 12.88 0" fill="#65b32e"/><path d="M32.87 15.53h-3.25V0h3.25v15.53zm7.06.11a9.53 9.53 0 0 1-1.45-.1 3.24 3.24 0 0 1-1.17-.4 2 2 0 0 1-.79-.82 3 3 0 0 1-.29-1.41v-7h-2V3.64h2V0h3.08v3.64h2.44V5.9h-2.44v5.86a1.72 1.72 0 0 0 .32 1.24 1.75 1.75 0 0 0 1.22.32 4.93 4.93 0 0 0 .55 0h.35v2.32a6.17 6.17 0 0 1-.81.08h-1zm13.99-.11h-10.9v-2.34l6.47-7.29h-6V3.64h9.99v2.34l-6.47 7.29h6.91v2.26zm6.3.3a6.8 6.8 0 0 1-2.54-.45 5.16 5.16 0 0 1-1.9-1.27 5.68 5.68 0 0 1-1.21-2 7.3 7.3 0 0 1-.42-2.53 7 7 0 0 1 .43-2.49 5.78 5.78 0 0 1 1.24-2 5.88 5.88 0 0 1 1.92-1.29 6 6 0 0 1 2.48-.49 5.68 5.68 0 0 1 2.64.59 5.41 5.41 0 0 1 1.85 1.57 6.36 6.36 0 0 1 1 2.25 8.32 8.32 0 0 1 .29 2.55h-8.78v.13a3.46 3.46 0 0 0 .87 2.43 3.56 3.56 0 0 0 4 .24 2.3 2.3 0 0 0 .96-1.07h2.67a5.31 5.31 0 0 1-2 2.89 6.25 6.25 0 0 1-3.45.92zm-.1-10.26a3 3 0 0 0-1.38.29 2.62 2.62 0 0 0-.89.7 2.73 2.73 0 0 0-.47.87 3.63 3.63 0 0 0-.15.71v.1h5.72v-.1A3.6 3.6 0 0 0 62 6.27a2.47 2.47 0 0 0-1.91-.7zm38.39 10.26a6.79 6.79 0 0 1-2.51-.45 5.29 5.29 0 0 1-1.91-1.27 5.81 5.81 0 0 1-1.2-2 7.3 7.3 0 0 1-.43-2.53 7 7 0 0 1 .44-2.49A5.72 5.72 0 0 1 96 3.8a6 6 0 0 1 2.47-.49 5.69 5.69 0 0 1 2.65.59A5.28 5.28 0 0 1 103 5.47a6.56 6.56 0 0 1 1 2.25 9 9 0 0 1 .24 2.55h-8.72v.13a3.5 3.5 0 0 0 .87 2.43 3.57 3.57 0 0 0 4.06.24 2.36 2.36 0 0 0 .91-1.05H104a5.36 5.36 0 0 1-2 2.89 6.29 6.29 0 0 1-3.46.92zm-.09-10.26a3 3 0 0 0-1.42.29 2.61 2.61 0 0 0-1.36 1.57 3.63 3.63 0 0 0-.15.71v.1h5.71a.77.77 0 0 1 0-.1 3.68 3.68 0 0 0-.89-1.87 2.47 2.47 0 0 0-1.91-.7zm-13.1 10.26a7 7 0 0 1-2.53-.44 5.41 5.41 0 0 1-1.93-1.25 5.51 5.51 0 0 1-1.24-2 7.23 7.23 0 0 1-.44-2.58A7.39 7.39 0 0 1 79.62 7a5.6 5.6 0 0 1 1.24-2 5.72 5.72 0 0 1 1.93-1.26 6.79 6.79 0 0 1 2.53-.45 6.93 6.93 0 0 1 2.55.45A5.52 5.52 0 0 1 89.81 5a5.65 5.65 0 0 1 1.24 2 7.35 7.35 0 0 1 .44 2.6 7.23 7.23 0 0 1-.44 2.58 5.47 5.47 0 0 1-1.24 2 5.36 5.36 0 0 1-1.94 1.25 7.14 7.14 0 0 1-2.55.44zm0-10.25a2.88 2.88 0 0 0-1.47.35 2.85 2.85 0 0 0-.94.92 3.58 3.58 0 0 0-.5 1.29 7.09 7.09 0 0 0-.15 1.46 6.9 6.9 0 0 0 .15 1.4 3.84 3.84 0 0 0 .49 1.29 2.79 2.79 0 0 0 .95.92 2.88 2.88 0 0 0 1.47.34 3 3 0 0 0 1.49-.34 2.62 2.62 0 0 0 1-.92 3.73 3.73 0 0 0 .5-1.29 7 7 0 0 0 .15-1.44 7.16 7.16 0 0 0-.15-1.46 3.58 3.58 0 0 0-.5-1.29 2.79 2.79 0 0 0-1-.92 3 3 0 0 0-1.49-.35zm23.25 9.95h-3.09V3.64h2.92V5.9l.08-.14a8.05 8.05 0 0 1 .7-.94 5.29 5.29 0 0 1 1-.81 4.12 4.12 0 0 1 1.08-.51 3.56 3.56 0 0 1 1.18-.19 2.3 2.3 0 0 1 .6.09v2.85h-.42a4.82 4.82 0 0 0-.65 0 3.73 3.73 0 0 0-1.61.32 2.83 2.83 0 0 0-1.06.87 3.32 3.32 0 0 0-.57 1.28 6.35 6.35 0 0 0-.17 1.55v5.35zm-30.39 0H75.1V8.8a4.44 4.44 0 0 0-.49-2.31 1.94 1.94 0 0 0-1.77-.8 2.88 2.88 0 0 0-2.21 1.12 3.86 3.86 0 0 0-.5 2.48v6.24h-3.08V0h3.08v5.33h.05l.1-.19a3.43 3.43 0 0 1 1.56-1.32 5 5 0 0 1 2-.51 5.42 5.42 0 0 1 2.16.36 3.1 3.1 0 0 1 1.3 1 3.71 3.71 0 0 1 .7 1.49 9.77 9.77 0 0 1 .2 2v7.34z" fill="#1d1d1b"/><path d="M33 24.33h-1l-2.38-6.63h1l1.89 5.75 1.92-5.75h.92zm6.35-1.52a2 2 0 0 1-2.06 1.64c-1.53 0-2.25-1.06-2.3-2.53a2.31 2.31 0 0 1 2.26-2.5c1.7 0 2.22 1.59 2.17 2.75H35.9a1.36 1.36 0 0 0 1.42 1.58 1.17 1.17 0 0 0 1.25-.94zm-.76-1.34a1.39 1.39 0 0 0-1.39-1.35 1.3 1.3 0 0 0-1.3 1.35zm1.62-1.94H41v1a1.74 1.74 0 0 1 1.77-1.12v.84C41.46 20.26 41 21 41 22.2v2.13h-.79zM44 22.82c0 .71.64.93 1.29.93.49 0 1.16-.11 1.16-.72s-.78-.71-1.57-.89-1.57-.43-1.57-1.35 1-1.37 1.79-1.37c1.06 0 1.91.33 2 1.5h-.79c-.05-.61-.59-.8-1.11-.8s-1 .13-1 .61.84.66 1.58.84 1.57.43 1.57 1.36c0 1.14-1.07 1.52-2 1.52s-2-.44-2-1.63zm4.88-4.15h-.79v-1h.79zm-.79.86h.79v4.8h-.79zm5.21 1.54a1.12 1.12 0 0 0-1.19-.95c-1.14 0-1.49.9-1.49 1.87S51 23.75 52 23.75a1.25 1.25 0 0 0 1.32-1.17h.81A2 2 0 0 1 52 24.45 2.19 2.19 0 0 1 49.78 22c0-1.44.74-2.57 2.27-2.57a1.84 1.84 0 0 1 2.07 1.65zM55 17.7h.79v2.54a1.63 1.63 0 0 1 1.52-.82c1.26 0 1.65.72 1.65 1.76v3.15h-.79v-3.25a.9.9 0 0 0-1-1 1.35 1.35 0 0 0-1.42 1.5v2.71H55zm9 5.11a1.93 1.93 0 0 1-2 1.64c-1.53 0-2.26-1.06-2.3-2.53a2.31 2.31 0 0 1 2.25-2.5c1.7 0 2.22 1.59 2.18 2.75h-3.6A1.42 1.42 0 0 0 62 23.75a1.16 1.16 0 0 0 1.24-.94zm-.76-1.34a1.38 1.38 0 0 0-2.76 0zm1.63-1.94h.74v1a1.74 1.74 0 0 1 1.76-1.12v.84c-1.27 0-1.73.72-1.73 1.94v2.13h-.79zm7.13 4.8h-.74v-.76a1.66 1.66 0 0 1-1.56.88c-1.26 0-1.65-.73-1.65-1.76v-3.16h.79v3.25a.9.9 0 0 0 1 1 1.36 1.36 0 0 0 1.43-1.51v-2.74H72zm1.08-4.8h.74v.76a1.69 1.69 0 0 1 1.57-.87c1.26 0 1.65.72 1.65 1.76v3.15h-.79v-3.25a.9.9 0 0 0-1-1 1.35 1.35 0 0 0-1.42 1.5v2.71h-.79zm9.1 4.39c0 1.57-.72 2.37-2.23 2.37-.9 0-1.94-.37-2-1.42h.79c0 .58.72.78 1.24.78 1 0 1.44-.74 1.44-1.82v-.31a1.63 1.63 0 0 1-1.5.87A2.18 2.18 0 0 1 77.77 22 2.27 2.27 0 0 1 80 19.42a1.55 1.55 0 0 1 1.43.8v-.69h.75zm-.78-2.09c0-.84-.37-1.71-1.37-1.71s-1.42.82-1.42 1.74.32 1.83 1.36 1.83 1.43-.95 1.43-1.86zm5.85.98a1.93 1.93 0 0 1-2 1.64c-1.54 0-2.26-1.06-2.31-2.53a2.31 2.31 0 0 1 2.26-2.5c1.7 0 2.22 1.59 2.17 2.75h-3.64a1.41 1.41 0 0 0 1.49 1.58 1.17 1.17 0 0 0 1.25-.94zm-.76-1.34a1.39 1.39 0 0 0-1.39-1.35 1.36 1.36 0 0 0-1.37 1.35zm1.58-1.94h.74v.76a1.69 1.69 0 0 1 1.56-.87c1.27 0 1.66.72 1.66 1.76v3.15h-.79v-3.25a.91.91 0 0 0-1-1 1.35 1.35 0 0 0-1.42 1.5v2.71h-.79z" fill="#878787"/></g></g></svg>