<svg xmlns:xlink="http://www.w3.org/1999/xlink" xmlns:dc="http://purl.org/dc/elements/1.1/" xmlns:cc="http://creativecommons.org/ns#" xmlns:rdf="http://www.w3.org/1999/02/22-rdf-syntax-ns#" xmlns:svg="http://www.w3.org/2000/svg" xmlns="http://www.w3.org/2000/svg" viewBox="0 0 863.01331 203.32001" height="203.32001" width="863.01331" xml:space="preserve" id="svg2" version="1.1"><metadata id="metadata8"><rdf:RDF><cc:Work rdf:about=""><dc:format>image/svg+xml</dc:format><dc:type rdf:resource="http://purl.org/dc/dcmitype/StillImage"/></cc:Work></rdf:RDF></metadata><defs id="defs6"/><g transform="matrix(1.3333333,0,0,-1.3333333,0,203.32)" id="g10"><g transform="scale(0.1)" id="g12"><path id="path14" style="fill:#231f20;fill-opacity:1;fill-rule:evenodd;stroke:none" d="m 6471.37,436.32 -564.38,-0.269 V 333.84 h 361.53 c 1.91,-11.531 -34.34,-239.09 -361.53,-245.9494 -217.46,0 -419.76,94.8794 -411.72,319.5704 16.06,218.816 184.73,303.297 401.33,309.617 211.37,6.172 333.75,-83.078 351.8,-164.414 h 198.87 C 6366.91,705.867 6155.23,805.77 5894.73,805.242 5582.85,804.625 5296.6,623.836 5304.45,393.051 5306.45,153.738 5573.59,0.929688 5905.98,1.19922 6239.06,1.46875 6474.96,192.191 6471.37,436.32"/><path id="path16" style="fill:none;stroke:#231f20;stroke-width:2.4000001;stroke-linecap:butt;stroke-linejoin:miter;stroke-miterlimit:3.86369991;stroke-dasharray:none;stroke-opacity:1" d="m 6471.37,436.32 -564.38,-0.269 V 333.84 h 361.53 c 1.91,-11.531 -34.34,-239.09 -361.53,-245.9494 -217.46,0 -419.76,94.8794 -411.72,319.5704 16.06,218.816 184.73,303.297 401.33,309.617 211.37,6.172 333.75,-83.078 351.8,-164.414 h 198.87 C 6366.91,705.867 6155.23,805.77 5894.73,805.242 5582.85,804.625 5296.6,623.836 5304.45,393.051 5306.45,153.738 5573.59,0.929688 5905.98,1.19922 6239.06,1.46875 6474.96,192.191 6471.37,436.32 Z"/><path id="path18" style="fill:#231f20;fill-opacity:1;fill-rule:evenodd;stroke:none" d="M 2651.29,701.414 2396.23,331.609 h 490.06 z m -94.4,100.488 -560.93,-787.7536 h 164.67 l 155.25,214.9606 h 640.7 L 3095.16,14.1094 h 198.86 L 2789.88,801.902 h -232.99"/><path id="path20" style="fill:none;stroke:#231f20;stroke-width:2.5;stroke-linecap:butt;stroke-linejoin:miter;stroke-miterlimit:3.86369991;stroke-dasharray:none;stroke-opacity:1" d="M 2651.29,701.414 2396.23,331.609 h 490.06 z m -94.4,100.488 -560.93,-787.7536 h 164.67 l 155.25,214.9606 h 640.7 L 3095.16,14.1094 h 198.86 L 2789.88,801.902 Z"/><path id="path22" style="fill:#ed1c24;fill-opacity:1;fill-rule:evenodd;stroke:none" d="M 3246.6,882.574 3368.63,708.668 3838.28,1351.93 3717.77,1522.75 3246.6,882.574"/><path id="path24" style="fill:none;stroke:#ed1c24;stroke-width:2.5;stroke-linecap:butt;stroke-linejoin:miter;stroke-miterlimit:3.86369991;stroke-dasharray:none;stroke-opacity:1" d="m 3246.6,882.574 122.03,-173.906 469.65,643.262 -120.51,170.82 z"/><path id="path26" style="fill:#ed1c24;fill-opacity:1;fill-rule:evenodd;stroke:none" d="m 3415.35,642.613 122.03,-173.902 469.65,643.259 -120.51,170.82 -471.17,-640.177"/><path id="path28" style="fill:none;stroke:#ed1c24;stroke-width:2.5;stroke-linecap:butt;stroke-linejoin:miter;stroke-miterlimit:3.86369991;stroke-dasharray:none;stroke-opacity:1" d="m 3415.35,642.613 122.03,-173.902 469.65,643.259 -120.51,170.82 z"/><path id="path30" style="fill:#ed1c24;fill-opacity:1;fill-rule:evenodd;stroke:none" d="m 3584.61,401.691 122.03,-173.91 469.65,643.262 -120.51,170.817 -471.17,-640.169"/><path id="path32" style="fill:none;stroke:#ed1c24;stroke-width:2.5;stroke-linecap:butt;stroke-linejoin:miter;stroke-miterlimit:3.86369991;stroke-dasharray:none;stroke-opacity:1" d="m 3584.61,401.691 122.03,-173.91 469.65,643.262 -120.51,170.817 z"/><path id="path34" style="fill:#231f20;fill-opacity:1;fill-rule:evenodd;stroke:none" d="m 3010.8,803.355 h 200.86 l 498.07,-709.4956 518.2,709.4956 h 174.73 L 3832.27,14.2188 H 3543.05 L 3010.8,803.355"/><path id="path36" style="fill:none;stroke:#231f20;stroke-width:2.5;stroke-linecap:butt;stroke-linejoin:miter;stroke-miterlimit:3.86369991;stroke-dasharray:none;stroke-opacity:1" d="m 3010.8,803.355 h 200.86 l 498.07,-709.4956 518.2,709.4956 h 174.73 L 3832.27,14.2188 h -289.22 z"/><path id="path38" style="fill:#231f20;fill-opacity:1;fill-rule:evenodd;stroke:none" d="m 1759.58,466.879 c 93.55,13.211 99.51,95.715 99.67,111.047 0.16,15.332 -4.88,111.347 -105.16,119.941 -1.31,0.11 -30.2,2.598 -51.6,2.832 H 1243.22 V 463.852 h 452 c 0,0 19.35,-1.141 64.36,3.027 z m -699.74,335.18 V 13.8789 h 183.38 V 362.121 h 292.7 L 1823.07,13.8789 h 216.99 L 1739.88,365.641 c 0,0 26.02,0.168 44.07,2.379 15.17,1.871 44.26,7.23 74.69,16.761 73.35,22.957 162.49,73.489 171.61,186.172 7.29,90.039 -63.22,232.258 -309.53,231.106 h -660.88"/><path id="path40" style="fill:none;stroke:#231f20;stroke-width:2.5;stroke-linecap:butt;stroke-linejoin:miter;stroke-miterlimit:3.86369991;stroke-dasharray:none;stroke-opacity:1" d="m 1759.58,466.879 c 93.55,13.211 99.51,95.715 99.67,111.047 0.16,15.332 -4.88,111.347 -105.16,119.941 -1.31,0.11 -30.2,2.598 -51.6,2.832 H 1243.22 V 463.852 h 452 c 0,0 19.35,-1.141 64.36,3.027 z m -699.74,335.18 V 13.8789 h 183.38 V 362.121 h 292.7 L 1823.07,13.8789 h 216.99 L 1739.88,365.641 c 0,0 26.02,0.168 44.07,2.379 15.17,1.871 44.26,7.23 74.69,16.761 73.35,22.957 162.49,73.489 171.61,186.172 7.29,90.039 -63.22,232.258 -309.53,231.106 z"/><path id="path42" style="fill:#231f20;fill-opacity:1;fill-rule:evenodd;stroke:none" d="M 185.039,280.621 394.059,417.719 765.352,14.1797 H 999.59 L 537.395,510.891 976.758,802.074 H 749.984 L 185.043,430.309 V 801.902 H 1.25 V 14.4883 H 185.039 V 280.621"/><path id="path44" style="fill:none;stroke:#231f20;stroke-width:2.5;stroke-linecap:butt;stroke-linejoin:miter;stroke-miterlimit:3.86369991;stroke-dasharray:none;stroke-opacity:1" d="M 185.039,280.621 394.059,417.719 765.352,14.1797 H 999.59 L 537.395,510.891 976.758,802.074 H 749.984 L 185.043,430.309 V 801.902 H 1.25 V 14.4883 h 183.789 z"/><path id="path46" style="fill:#231f20;fill-opacity:1;fill-rule:evenodd;stroke:none" d="m 4721.46,701.402 -255.06,-369.8 h 490.06 z m -94.4,100.489 -560.94,-787.7504 h 164.67 l 155.25,214.9614 h 640.71 L 5165.32,14.1016 h 198.87 L 4860.05,801.891 h -232.99"/><path id="path48" style="fill:none;stroke:#231f20;stroke-width:2.5;stroke-linecap:butt;stroke-linejoin:miter;stroke-miterlimit:3.86369991;stroke-dasharray:none;stroke-opacity:1" d="m 4721.46,701.402 -255.06,-369.8 h 490.06 z m -94.4,100.489 -560.94,-787.7504 h 164.67 l 155.25,214.9614 h 640.71 L 5165.32,14.1016 h 198.87 L 4860.05,801.891 Z"/></g></g></svg>