<svg height="452" viewBox="-8.7987306 -8.7987306 704.2039112 310.8884812" width="1024" xmlns="http://www.w3.org/2000/svg"><path d="m686.60644 14.61425v-14.61425h-151.74805c-.083 0-.17577 0-.2539 0-10.92774 0-30.66406 0-47.3291 6.36717 0 0 3.62793 9.5752 3.67675 18.63283.03419 8.01757-3.66699 17.08007-3.66699 17.08007v76.66504c0 3.39355 1.26953 5.23926 3.55469 6.2793 4.19434 1.91894 9.16016 3.32519 14.08203 5.21972 3.28125 1.26465 6.91406-1.43555 9.33593-5.68847 7.01662-12.30958 14.4336-27.42676 14.4336-27.42676s7.7002-4.16015 11.33789-12.00195c3.33009-7.19728 2.87598-11.5625 2.87598-11.5625 25.69336 37.39746 26.05468 88.70605 26.05468 88.70605s-28.45215-6.50879-43.0371-9.89747c-9.48731-2.20215-20.66895-4.86816-25.85937-4.86816-6.7627 0-12.47071 4.34083-12.68068 10.54688-.10741 3.16895 1.7627 8.71093 5.09767 17.79785 3.53027 9.60937 4.00391 10.63965 8.43261 23.47656h22.61719l-4.97559-19.81934c17.51954 5.67871 24.11134 14.2627 43.13477 19.81934h124.91699v-63.33984s-3.82812-7.09961-9.63379-17.27051h9.63379v-14.61914h-18.12989c-2.20213-3.71582-4.5166-7.55371-6.88963-11.40625h25.01952v-14.61914h-34.29687c-1.83594-2.79786-3.68164-5.51758-5.4834-8.11036-.78125-1.11327-1.5625-2.20702-2.34375-3.29589h42.12402v-14.61915h-53.21777c-3.23242-4.0039-6.49414-7.81737-9.75587-11.40625h62.97364v-14.61425h-77.71972c-5.30274-4.64356-10.48829-8.50586-15.46875-11.41113zm-.02441 272.92968v-31.70898h-22.91015v7.45606h11.14257v21.55274c-.99121 1.26463-3.77441 2.52441-7.2754 2.52441-13.38866 0-16.17675-12.6709-16.17675-27.58301 0-8.26173 0-24.52149 12.58789-24.52149 8.61816 0 9.06739 7.63184 9.33594 11.31347h12.75879c0-11.85058-8.62304-17.24121-22.09473-17.24121-19.14062 0-24.97559 13.20313-24.97559 31.43555 0 18.14941 8.08107 32.51954 27.57325 32.51954 8.54004 0 15.3662-2.96388 20.03418-5.74708zm-66.30371 4.76074v-61.9873h-9.61427v45.9961h-.18066l-23.98925-45.9961h-12.8418v61.9873h9.60938v-48.24217h.18066l25.15137 48.24217zm-67.02149-21.11327v-40.87403h-11.76758v40.87403c0 9.70702-1.25976 16.17676-10.78613 16.17676-8.98438 0-10.50293-6.46974-10.50293-16.17676v-40.87403h-11.76757v40.87403c0 11.05468 2.3291 22.09961 22.2705 22.09961 20.21973 0 22.55371-11.04493 22.55371-22.09961zm-75.28809-23.80372c0 9.07227-5.92772 11.23048-14.28222 11.23048h-2.33887v-21.73829h2.33887c7.2754 0 14.28222.62989 14.28222 10.50781zm14.28224 44.91699-3.50098-16.43554c-1.52832-7.19238-2.78321-13.11523-11.95313-14.82422v-.18066c5.5713-1.44043 12.93946-4.76074 12.93946-14.37012 0-14.10645-12.30469-16.17676-26.04981-16.17676h-14.10644v61.9873h11.76757v-27.1289h3.68164c9.25294 0 11.05469 4.13086 13.20801 15.4541l2.24609 11.6748zm-60.28321 0v-7.46092h-25.23925v-21.28908h23.17382v-7.09472h-23.17382v-19.04297h24.43358v-7.09961h-36.20605v61.9873zm-58.04199 0v-61.9873h-11.76758v25.96191h-21.5625v-25.96191h-11.76758v61.9873h11.76758v-28.92577h21.5625v28.92577zm-60.19043-45.09276c0-10.87403-7.09961-17.87599-21.74317-17.87599-18.77929 0-25.33203 14.375-25.33203 30.81055 0 17.51465 7.45605 33.14454 27.03614 33.14454 7.46094 0 13.56934-2.3291 17.52441-3.86231v-9.69727c-2.25097 1.7041-7.54883 6.10352-15.36132 6.10352-16.53321 0-16.80665-20.47852-16.80665-27.66602 0-8.2666 1.79687-22.90527 12.22169-22.90527 7.54393 0 9.07715 7.09472 9.07715 11.94825zm-65.67383 45.09276v-61.9873h-11.76758v61.9873zm-28.56934-17.42675c0-19.22364-30.2832-19.94629-30.2832-32.0752 0-3.8623 3.50586-6.37695 8.44727-6.37695 7.18749 0 14.9121 3.14453 17.07519 4.22364v-9.61426c-2.33886-.44434-8.90136-1.69923-15.4541-1.69923-13.38867 0-20.9375 6.01563-20.9375 15.98634 0 19.58496 29.375 19.3164 29.375 33.33007 0 5.83984-5.74707 7.54395-9.69726 7.54395-7.00684 0-13.92579-3.68165-18.68653-6.64551v10.95703c2.24609.62988 9.34082 2.78321 16.80175 2.78321 13.29103 0 23.35938-4.93653 23.35938-18.41309zm-68.82324-27.49024c0 9.07227-5.92774 11.23048-14.28222 11.23048h-2.33887v-21.73829h2.33887c7.27538 0 14.28222.62989 14.28222 10.50781zm14.28223 44.91699-3.50587-16.43554c-1.52343-7.19238-2.7832-13.11523-11.94335-14.82422v-.18066c5.5664-1.44043 12.93457-4.76074 12.93457-14.37012 0-14.10645-12.30469-16.17676-26.0498-16.17676h-14.10645v61.9873h11.76758v-27.1289h3.68652c9.25293 0 11.04492 4.13086 13.20312 15.4541l2.2461 11.6748zm-60.27832 0v-7.46092h-25.249018v-21.28908h23.178708v-7.09472h-23.178708v-19.04297h24.433588v-7.09961h-36.20117v61.9873zm-49.956054-61.9873h-10.419921l-16.083984 47.79785h-.185547l-15.805664-47.79785h-12.22168l21.113281 61.9873h12.128907zm220.039054-230.30274h-57.63671l-39.87305 110.72267-39.86329-110.69825-57.568348-.02442 79.716798 199.29688h35.45898zm-146.22558 199.29688-17.70995-44.27246h-57.587899v-155.02442h-53.149413v199.29688zm327.75391 0h-53.14454v-88.57421l-35.43456 88.57421h-53.13965l-.01954-88.57421-35.41504 88.57421h-53.13476l79.76563-199.31151h53.08593v110.7373l44.37012-110.7373h53.06641z" fill="#009c31"/></svg>