<svg xmlns:xlink="http://www.w3.org/1999/xlink" xmlns="http://www.w3.org/2000/svg" aria-hidden="true" fill="none" height="62" viewBox="0 0 263 62" width="263"><g clip-path="url(#clip0_728_3351)" fill="none"><path d="M0 24.052C0 10.7713 10.7713 0 24.0596 0s24.0596 10.7713 24.0596 24.052c0 13.2808-10.7713 24.0596-24.0596 24.0596S0 37.3479 0 24.052Z" fill="#FFFFFF"></path> <path d="M79.7976 24.6264v7.6117c0 .8239-.5594 1.3908-1.3606 1.3908s-1.3908-.5594-1.3908-1.3908v-7.7176c0-1.6024-1.0129-2.4339-2.3508-2.4339-.8541 0-1.6025.2948-2.2979.7483v9.4032c0 .8239-.5593 1.3908-1.3605 1.3908-.8013 0-1.3909-.5594-1.3909-1.3908V23.742c0-.6954-.3779-1.1187-.8012-1.3606-.3779-.2116-.8012-.2948-1.3379-.2948-.9071 0-1.6856.1361-2.5095.378v9.7735c0 .8239-.5594 1.3908-1.3606 1.3908s-1.3908-.5594-1.3908-1.3908v-10.416c0-.7484.4535-1.3379 1.2018-1.5798 1.3077-.4233 2.7212-.6954 4.1649-.6954 1.3606 0 2.4869.3704 3.3637 1.1489 1.0658-.7181 2.4868-1.1489 3.6887-1.1489 3.2276 0 5.1248 1.8972 5.1248 5.0719M94.1446 20.915v10.4689c0 .7181-.4536 1.3077-1.2019 1.5496-1.3077.4308-2.6985.6954-4.1649.6954-3.5753 0-5.3969-1.7914-5.3969-5.2609v-7.453c0-.8012.5895-1.3605 1.3605-1.3605s1.3909.5593 1.3909 1.3605v7.5588c0 1.7083.8843 2.6456 2.6455 2.6456.9071 0 1.7612-.1588 2.6154-.378V20.915c0-.8012.5895-1.3605 1.3605-1.3605s1.3909.5593 1.3909 1.3605Zm-6.2738-4.9434c0 .9071-.7181 1.6327-1.6025 1.6327-.8844 0-1.6024-.7181-1.6024-1.6327 0-.8541.718-1.6025 1.6024-1.6025.8844 0 1.6025.7484 1.6025 1.6025Zm5.0492 0c0 .9071-.7256 1.6327-1.6327 1.6327-.907 0-1.6024-.7181-1.6024-1.6327 0-.8541.7181-1.6025 1.6024-1.6025.8844 0 1.6327.7484 1.6327 1.6025ZM108.748 24.8154v7.4529c0 .8012-.59 1.3606-1.361 1.3606s-1.39-.5594-1.39-1.3606v-7.5588c0-1.6856-.907-2.6153-2.646-2.6153-.907 0-1.791.1361-2.615.3779v9.8038c0 .8012-.59 1.3605-1.3608 1.3605-.771 0-1.3908-.5593-1.3908-1.3605V21.8372c0-.7483.4308-1.3379 1.2018-1.5798 1.3078-.4233 2.6988-.6954 4.1648-.6954 3.575 0 5.397 1.8141 5.397 5.2609M121.195 20.4917c.424.2419.696.6652.696 1.149 0 .7181-.507 1.2547-1.232 1.2547-.537 0-.832-.2116-1.338-.4233-.537-.2116-1.202-.3779-2.034-.3779-1.602 0-2.592.96-2.592 2.8345v3.341c0 1.867.96 2.8572 2.592 2.8572.832 0 1.52-.1889 2.056-.4308.454-.189.771-.3704 1.255-.3704.748 0 1.285.5064 1.285 1.2548 0 .4837-.264.907-.695 1.1489-1.066.5593-2.457.907-3.848.907-3.31 0-5.397-2.0559-5.397-5.3667v-3.341c0-3.4468 2.215-5.3667 5.397-5.3667 1.391 0 2.774.3477 3.848.9373M127.099 15.7376v4.5957c.884-.4838 2.109-.771 2.993-.771 3.235 0 5.019 1.8972 5.019 5.3138v7.4001c0 .8012-.589 1.3605-1.36 1.3605-.771 0-1.391-.5593-1.391-1.3605v-7.5588c0-1.7385-.937-2.6154-2.593-2.6154-.937 0-1.844.2948-2.668.9373v9.2444c0 .8012-.59 1.3606-1.361 1.3606s-1.39-.5594-1.39-1.3606v-16.531c0-.8013.589-1.3606 1.39-1.3606.802 0 1.361.5593 1.361 1.3606M149.074 24.9212v1.3076c0 .771-.612 1.6252-1.685 1.6252h-6.327v.5064c0 1.3908.696 2.7514 2.646 2.7514 1.171 0 2.003-.2948 2.698-.5594.401-.1587.665-.2418.938-.2418.718 0 1.254.5593 1.254 1.2547 0 .4838-.211.9071-.718 1.149-1.202.6122-3.152.907-4.165.907-3.446 0-5.397-2.2979-5.397-5.3667v-3.341c0-3.2352 2.087-5.3667 5.397-5.3667 3.311 0 5.367 2.1618 5.367 5.3667m-8.012-.0831v.4837h5.261v-.4006c0-1.7914-.771-2.8345-2.616-2.8345-1.844 0-2.645 1.0431-2.645 2.7514ZM163.209 24.8154v7.4529c0 .8012-.59 1.3606-1.361 1.3606s-1.39-.5594-1.39-1.3606v-7.5588c0-1.6856-.907-2.6153-2.646-2.6153-.907 0-1.791.1361-2.615.3779v9.8038c0 .8012-.59 1.3605-1.361 1.3605s-1.391-.5593-1.391-1.3605V21.8372c0-.7483.431-1.3379 1.202-1.5798 1.308-.4233 2.699-.6954 4.165-.6954 3.575 0 5.397 1.8141 5.397 5.2609M177.17 24.9212v1.3076c0 .771-.612 1.6252-1.685 1.6252h-6.327v.5064c0 1.3908.695 2.7514 2.645 2.7514 1.172 0 2.004-.2948 2.699-.5594.401-.1587.665-.2418.937-.2418.718 0 1.255.5593 1.255 1.2547 0 .4838-.212.9071-.718 1.149-1.202.6122-3.152.907-4.165.907-3.447 0-5.397-2.2979-5.397-5.3667v-3.341c0-3.2352 2.086-5.3667 5.397-5.3667 3.311 0 5.367 2.1618 5.367 5.3667m-8.013-.0831v.4837h5.261v-.4006c0-1.7914-.778-2.8345-2.615-2.8345-1.837 0-2.646 1.0431-2.646 2.7514ZM186.542 19.7437c.696.136 1.096.6122 1.096 1.3076 0 .6954-.536 1.2548-1.307 1.2548-.401 0-.938-.1588-1.603-.1588-.854 0-1.443.5896-1.443 1.5194v8.6018c0 .8013-.59 1.3606-1.361 1.3606s-1.391-.5593-1.391-1.3606v-8.6774c0-2.4869 1.572-4.0364 4.006-4.0364.771 0 1.497.0831 2.003.189ZM206.065 20.8923c0 .2117-.053.4536-.136.6954l-3.636 10.7864c-.317.9373-1.043 1.2548-1.791 1.2548s-1.497-.3175-1.814-1.2548l-3.636-10.8468c-.083-.2419-.136-.4309-.136-.6425 0-.6652.454-1.3379 1.361-1.3379.642 0 1.118.3477 1.307.9599l2.91 9.131 2.911-9.131c.211-.6425.665-.9599 1.307-.9599.907 0 1.338.6651 1.338 1.3379M218.864 24.9214v1.3077c0 .771-.613 1.6251-1.686 1.6251h-6.327v.5065c0 1.3908.696 2.7513 2.646 2.7513 1.171 0 2.003-.2947 2.698-.5593.401-.1587.665-.2419.938-.2419.718 0 1.254.5594 1.254 1.2548 0 .4837-.211.907-.718 1.1489-1.202.6123-3.152.9071-4.165.9071-3.446 0-5.397-2.2979-5.397-5.3668v-3.341c0-3.2351 2.087-5.3667 5.397-5.3667 3.311 0 5.367 2.1618 5.367 5.3667m-8.012-.0831v.4838h5.261v-.4007c0-1.7914-.771-2.8345-2.616-2.8345-1.844 0-2.645 1.0431-2.645 2.7514ZM228.238 19.7437c.695.136 1.096.6122 1.096 1.3076 0 .6954-.537 1.2548-1.308 1.2548-.401 0-.937-.1588-1.602-.1588-.855 0-1.444.5896-1.444 1.5194v8.6018c0 .8013-.59 1.3606-1.361 1.3606s-1.39-.5593-1.39-1.3606v-8.6774c0-2.4869 1.572-4.0364 4.006-4.0364.771 0 1.496.0831 2.003.189ZM241.805 24.9212v1.3076c0 .771-.612 1.6252-1.686 1.6252h-6.326v.5064c0 1.3908.695 2.7514 2.645 2.7514 1.172 0 2.003-.2948 2.699-.5594.4-.1587.665-.2418.937-.2418.718 0 1.255.5593 1.255 1.2547 0 .4838-.212.9071-.718 1.149-1.202.6122-3.152.907-4.165.907-3.447 0-5.397-2.2979-5.397-5.3667v-3.341c0-3.2352 2.086-5.3667 5.397-5.3667 3.311 0 5.367 2.1618 5.367 5.3667m-8.013-.0831v.4837h5.261v-.4006c0-1.7914-.771-2.8345-2.615-2.8345-1.845 0-2.646 1.0431-2.646 2.7514ZM248.164 15.9794c0 .9071-.718 1.6327-1.603 1.6327-.884 0-1.602-.7181-1.602-1.6327 0-.9146.718-1.6024 1.602-1.6024.885 0 1.603.718 1.603 1.6024Zm-.242 4.9435v11.3532c0 .8013-.559 1.3606-1.361 1.3606-.801 0-1.39-.5593-1.39-1.3606V20.9229c0-.8013.589-1.3606 1.39-1.3606.802 0 1.361.5593 1.361 1.3606ZM262.531 24.8154v7.4529c0 .8012-.589 1.3606-1.36 1.3606-.771 0-1.391-.5594-1.391-1.3606v-7.5588c0-1.6856-.907-2.6153-2.646-2.6153-.907 0-1.791.1361-2.615.3779v9.8038c0 .8012-.59 1.3605-1.361 1.3605s-1.39-.5593-1.39-1.3605V21.8372c0-.7483.43-1.3379 1.201-1.5798 1.308-.4233 2.699-.6954 4.165-.6954 3.576 0 5.397 1.8141 5.397 5.2609M69.4798 48.1721c.4762 0 .771.3326.771.7105 0 .1285-.0529.2722-.1436.4007l-6.4477 10.5142h6.0622c.3477 0 .6047.2343.6047.6047s-.257.6047-.6047.6047h-6.9768c-.4611 0-.7332-.3326-.7332-.6954 0-.1436.0378-.2948.1436-.4535l6.4477-10.4765h-5.9563c-.3478 0-.6047-.2419-.6047-.6047s.2569-.6047.6047-.6047h6.8331ZM79.0427 52.2914v7.6949c0 .3477-.2041.6198-.6047.7483-.8995.2948-1.7914.4611-2.7665.4611-2.2525 0-3.3863-1.2094-3.3863-3.2805v-5.6238c0-.3628.257-.6198.6198-.6198s.6198.257.6198.6198v5.6616c0 1.3227.7332 2.0862 2.1391 2.0862.7332 0 1.4438-.1285 2.124-.3326v-7.4227c0-.3628.2722-.6198.6199-.6198.3628 0 .6198.257.6198.6198M83.2514 48.6105v6.5384l3.8852-3.2957c.1663-.1285.3099-.1814.4762-.1814.3326 0 .5896.2344.5896.6047 0 .1663-.053.3326-.2419.4762l-3.7719 3.1294 3.9911 4.2858c.1285.1285.1814.257.1814.4233 0 .3099-.2192.6047-.6047.6047-.2041 0-.3326-.0529-.4762-.2192l-4.0288-4.3992v3.991c0 .3628-.2722.6198-.6199.6198s-.6198-.257-.6198-.6198V48.603c0-.3704.257-.6198.6198-.6198.3629 0 .6199.257.6199.6198M97.0622 52.2914v7.6949c0 .3477-.2041.6198-.6047.7483-.8995.2948-1.7914.4611-2.7665.4611-2.2525 0-3.3863-1.2094-3.3863-3.2805v-5.6238c0-.3628.257-.6198.6198-.6198s.6198.257.6198.6198v5.6616c0 1.3227.7332 2.0862 2.1392 2.0862.7332 0 1.4437-.1285 2.124-.3326v-7.4227c0-.3628.2721-.6198.6198-.6198.3628 0 .6198.257.6198.6198M106.804 54.9524v5.6237c0 .3628-.272.6198-.62.6198-.347 0-.619-.257-.619-.6198v-5.6388c0-1.3379-.749-2.1089-2.14-2.1089-.748 0-1.443.1285-2.139.3326v7.4151c0 .3628-.257.6198-.627.6198-.348 0-.62-.257-.62-.6198V52.904c0-.3629.204-.6425.62-.771.899-.2722 1.776-.4611 2.766-.4611 2.238 0 3.387 1.2094 3.387 3.2805M113.162 48.0814c.295.0756.514.257.514.5669 0 .3099-.257.5291-.567.5291-.234 0-.423-.0907-.914-.0907-.787 0-1.285.5518-1.285 1.2246v1.542h2.139c.385 0 .62.257.62.6047 0 .3325-.235.5895-.62.5895h-2.139v7.5286c0 .3855-.273.6198-.62.6198-.348 0-.62-.257-.62-.6198V50.4473c0-1.542 1.005-2.4566 2.472-2.4566.362 0 .619.0151 1.028.0907M116.55 48.6105v3.2427h2.147c.385 0 .62.257.62.6048 0 .3325-.242.582-.62.582h-2.147v5.5481c0 .9524.461 1.4286 1.262 1.4286.499 0 .658-.0907.9-.0907.333 0 .605.2041.605.5896 0 .3099-.204.5291-.529.582-.386.0756-.643.0907-1.006.0907-1.413 0-2.471-.8768-2.471-2.6229V48.603c0-.3704.272-.6198.619-.6198.371 0 .62.257.62.6198M122.598 60.2965c0 .4762-.401.8995-.9.8995s-.899-.4007-.899-.8995c0-.4989.423-.8995.899-.8995.477 0 .9.4006.9.8995ZM130.613 48.6105v11.9656c0 .3628-.295.6198-.642.6198-.348 0-.643-.257-.643-.6198V48.6105c0-.3703.295-.6198.643-.6198.347 0 .642.257.642.6198ZM140.457 54.9524v5.6237c0 .3628-.273.6198-.62.6198-.363 0-.62-.257-.62-.6198v-5.6388c0-1.3379-.748-2.1089-2.147-2.1089-.748 0-1.444.1285-2.139.3326v7.4151c0 .3628-.257.6198-.62.6198s-.62-.257-.62-.6198V52.904c0-.3629.204-.6425.62-.771.9-.2722 1.777-.4611 2.767-.4611 2.237 0 3.386 1.2094 3.386 3.2805M149.353 48.6105v3.7719c.71-.4913 1.557-.7181 2.252-.7181 1.905 0 3.281 1.1187 3.281 3.3334v2.8421c0 2.2374-1.353 3.3561-3.386 3.3561-.991 0-1.958-.1436-2.858-.4762-.332-.1134-.529-.3855-.529-.7483V48.6105c0-.3703.272-.6198.62-.6198.363 0 .62.257.62.6198Zm0 5.0191v6.0999c.68.2192 1.413.3099 2.139.3099 1.376 0 2.147-.8088 2.147-2.1089v-3.0008c0-1.3379-.771-2.1089-2.147-2.1089-.771 0-1.542.2948-2.139.8088ZM163.987 55.0431v1.0658c0 .3855-.294.7861-.808.7861h-4.725v.9902c0 1.2094.696 2.1618 2.147 2.1618.809 0 1.429-.1814 2.033-.4233.205-.0756.31-.1134.439-.1134.332 0 .589.257.589.5669 0 .2344-.113.4233-.347.5291-.809.3629-1.943.5896-2.714.5896-2.147 0-3.386-1.4135-3.386-3.3712v-2.7816c0-2.0333 1.323-3.3712 3.386-3.3712 2.064 0 3.386 1.353 3.386 3.3712Zm-5.533-.0529v.7332h4.286v-.6954c0-1.353-.733-2.1996-2.139-2.1996-1.406 0-2.147.8465-2.147 2.1618ZM171.298 52.1632c.242.1058.37.2948.37.5291 0 .3477-.272.5669-.567.5669-.128 0-.294-.0378-.438-.0907-.514-.2041-.99-.3477-1.686-.3477-.824 0-1.67.4611-1.67 1.3152 0 .6954.552 1.0658 1.187 1.3379l1.594.6803c1.081.4611 1.815 1.1565 1.815 2.381 0 1.542-1.157 2.6532-2.971 2.6532-.968 0-1.814-.2192-2.494-.5518-.22-.1134-.348-.2722-.348-.514 0-.3477.242-.5669.567-.5669.113 0 .272.0755.423.1285.401.1436.99.3477 1.791.3477 1.081 0 1.815-.6425 1.815-1.4664 0-.6425-.53-1.1716-1.573-1.5949l-1.353-.5669c-.786-.3326-1.67-.9147-1.67-2.2904 0-1.4815 1.247-2.4566 2.857-2.4566.839 0 1.686.2041 2.343.4989M175.638 48.6105v3.2427h2.147c.385 0 .62.257.62.6048 0 .3325-.242.582-.62.582h-2.147v5.5481c0 .9524.461 1.4286 1.262 1.4286.499 0 .658-.0907.9-.0907.332 0 .605.2041.605.5896 0 .3099-.204.5291-.53.582-.385.0756-.642.0907-1.005.0907-1.413 0-2.472-.8768-2.472-2.6229V48.603c0-.3704.273-.6198.62-.6198.371 0 .62.257.62.6198M186.589 55.0431v1.0658c0 .3855-.295.7861-.809.7861h-4.724v.9902c0 1.2094.695 2.1618 2.147 2.1618.809 0 1.428-.1814 2.033-.4233.204-.0756.31-.1134.438-.1134.333 0 .59.257.59.5669 0 .2344-.113.4233-.348.5291-.808.3629-1.942.5896-2.713.5896-2.147 0-3.387-1.4135-3.387-3.3712v-2.7816c0-2.0333 1.323-3.3712 3.387-3.3712 2.063 0 3.386 1.353 3.386 3.3712Zm-5.533-.0529v.7332h4.286v-.6954c0-1.353-.733-2.1996-2.139-2.1996-1.406 0-2.147.8465-2.147 2.1618ZM195.954 54.9524v5.6237c0 .3628-.272.6198-.62.6198-.362 0-.619-.257-.619-.6198v-5.6388c0-1.3379-.749-2.1089-2.147-2.1089-.748 0-1.444.1285-2.147.3326v7.4151c0 .3628-.257.6198-.62.6198-.347 0-.619-.257-.619-.6198V52.904c0-.3629.204-.6425.619-.771.9-.2722 1.777-.4611 2.767-.4611 2.237 0 3.386 1.2094 3.386 3.2805ZM211.776 48.6105v11.9656c0 .3628-.295.6198-.62.6198-.348 0-.643-.257-.643-.6198v-5.6237h-5.533v5.6237c0 .3628-.295.6198-.642.6198-.348 0-.643-.257-.643-.6198V48.6105c0-.3703.295-.6198.643-.6198.347 0 .642.257.642.6198v5.1098h5.533v-5.1098c0-.3703.295-.6198.643-.6198.332 0 .62.257.62.6198ZM221.027 54.4006v5.6237c0 .3326-.167.6199-.53.7483-.733.257-1.7.4233-2.638.4233-2.161 0-3.605-.7861-3.605-2.8043s1.67-2.7816 3.59-2.7816h1.943v-1.2094c0-.9373-.718-1.5722-1.943-1.5722-.657 0-1.247.1285-1.829.4233-.219.1133-.401.2041-.627.2041-.272 0-.567-.2419-.567-.567 0-.2192.113-.4006.295-.5139.642-.3629 1.595-.6955 2.675-.6955 1.799 0 3.243.8995 3.243 2.7288m-3.22 2.3659c-1.338 0-2.305.4384-2.305 1.6478 0 1.3001.967 1.6327 2.366 1.6327.642 0 1.285-.1059 1.927-.2948v-2.9857h-1.988Zm-.68-7.5815c0 .4233-.348.7861-.786.7861-.439 0-.786-.3704-.786-.7861s.347-.7861.786-.7861c.438 0 .786.3477.786.7861Zm3.227 0c0 .4233-.347.7861-.786.7861-.438 0-.786-.3704-.786-.7861s.348-.7861.786-.7861c.439 0 .786.3477.786.7861ZM230.642 54.9524v5.6237c0 .3628-.272.6198-.62.6198-.363 0-.62-.257-.62-.6198v-5.6388c0-1.3379-.748-2.1089-2.147-2.1089-.748 0-1.443.1285-2.146.3326v7.4151c0 .3628-.257.6198-.62.6198s-.62-.257-.62-.6198V52.904c0-.3629.204-.6425.62-.771.899-.2722 1.776-.4611 2.766-.4611 2.238 0 3.387 1.2094 3.387 3.2805ZM240.022 48.6105v11.3609c0 .3704-.22.6425-.552.7483-.9.3326-1.867.4762-2.842.4762-2.034 0-3.409-1.096-3.409-3.3334v-2.8572c0-2.2147 1.391-3.3334 3.28-3.3334.711 0 1.557.2192 2.268.718v-3.7718c0-.3628.257-.6198.62-.6198s.62.257.62.6198m-5.549 6.3191v3.0236c0 1.3001.787 2.0862 2.162 2.0862.733 0 1.467-.0907 2.147-.3099v-6.1c-.62-.514-1.391-.8088-2.147-.8088-1.375 0-2.162.771-2.162 2.1089ZM249.378 55.0431v1.0658c0 .3855-.295.7861-.809.7861h-4.724v.9902c0 1.2094.696 2.1618 2.147 2.1618.809 0 1.428-.1814 2.033-.4233.204-.0756.31-.1134.439-.1134.332 0 .589.257.589.5669 0 .2344-.113.4233-.348.5291-.808.3629-1.942.5896-2.713.5896-2.147 0-3.387-1.4135-3.387-3.3712v-2.7816c0-2.0333 1.323-3.3712 3.387-3.3712 2.063 0 3.386 1.353 3.386 3.3712Zm-5.533-.0529v.7332h4.286v-.6954c0-1.353-.733-2.1996-2.139-2.1996-1.406 0-2.147.8465-2.147 2.1618ZM258.738 54.9524v5.6237c0 .3628-.272.6198-.62.6198-.363 0-.62-.257-.62-.6198v-5.6388c0-1.3379-.748-2.1089-2.147-2.1089-.748 0-1.443.1285-2.139.3326v7.4151c0 .3628-.257.6198-.62.6198-.347 0-.619-.257-.619-.6198V52.904c0-.3629.204-.6425.619-.771.9-.2722 1.777-.4611 2.767-.4611 2.237 0 3.386 1.2094 3.386 3.2805M263.002 60.2965c0 .4762-.4.8995-.899.8995s-.9-.4007-.9-.8995c0-.4989.423-.8995.9-.8995.476 0 .899.4006.899.8995Z" fill="#FFFFFF"></path> <path class="mv" d="M25.6152 18.8213c-1.2094 0-2.5927.4082-3.666 1.0733-.8995-.718-2.0409-1.0733-3.3939-1.0733-1.353 0-2.827.2419-4.2632.7105-.8768.2797-1.421.9978-1.421 1.8746v10.4462c0 .9902.7181 1.7083 1.7007 1.7083.9827 0 1.6781-.703 1.6781-1.7083v-9.5618c.771-.2041 1.4588-.3024 2.1996-.3024.514 0 .8768.0756 1.1791.257.4309.2419.6425.6047.6425 1.096v8.5188c0 .9902.7181 1.7083 1.7008 1.7083.9826 0 1.678-.703 1.678-1.7083v-9.2595c.6727-.4082 1.3228-.6123 1.988-.6123 1.2774 0 2.0408.7937 2.0408 2.124v7.7402c0 .9902.7181 1.7083 1.7008 1.7083.9826 0 1.678-.703 1.678-1.7083v-7.6343c0-3.3788-2.0333-5.397-5.4499-5.397M38.156 28.9501l-2.6531-8.9194c-.2268-.7408-.8239-1.1792-1.61-1.1792-1.1036 0-1.6781.8315-1.6781 1.6478 0 .2722.0681.5065.1512.7408l3.6433 10.8544c.3175.9297 1.0885 1.4664 2.1165 1.4664 1.028 0 1.7612-.5215 2.0862-1.4588l6.493-16.206c-.5064-1.3984-1.1338-2.7363-1.8821-3.9986-.1663.1738-.3024.3855-.3931.6425L38.156 28.9425v.0076Z" fill="#1793D7"></path></g> <defs><clipPath id="clip0_728_3351"><path d="M0 0h263v61.1958H0z" fill="currentColor"></path> </clipPath> </defs></svg>