<svg xmlns:xlink="http://www.w3.org/1999/xlink" xmlns="http://www.w3.org/2000/svg" id="Ebene_1_Kopie" data-name="Ebene 1 Kopie" viewBox="0 0 430.27 80.81" width="430.27"  height="80.81" ><defs><style>.cls-1{fill:#fff;}</style></defs><title>logo19Zeichenfläche 1</title><path class="cls-1" d="M112.47,31.57c-10.51,0-15.8,8.12-15.8,17.73,0,10.37,5,17.82,16.77,17.82A18.13,18.13,0,0,0,126,62.2l-4.25-5.89a13.37,13.37,0,0,1-8.35,3.13c-4.92,0-7.45-2.76-7.68-7.23h20.5a28.17,28.17,0,0,0,.6-5.89C126.86,38.94,122.91,31.57,112.47,31.57Zm5.89,14.23H105.84c.22-3.87,2.16-7,6.63-7,3.21,0,6,1.86,6,5.88A10,10,0,0,1,118.36,45.8Zm45.89-.51V66.53l-8.4-.23V46.1c0-4.1-1.57-6.26-6.11-6.26a10.6,10.6,0,0,0-6.64,2.53V66.3h-9v-34h8.72v3.88c1.79-2.54,4.37-4.16,9.81-4.16C160.3,32,164.25,36.49,164.25,45.29Zm27.07,12.88.15,7.83a22.73,22.73,0,0,1-7.23,1.12c-7,0-9.69-4.55-9.69-10.73V39.91h-6.19V33.06l6.19-.75V21l9-1.42v12.7h7.6v7.6h-7.6V55.12c0,2.53,1.34,3.65,3.72,3.65A15.2,15.2,0,0,0,191.32,58.17Zm18.56.15h1.64v8.35H206.9c-6.94,0-9-4.4-9-10.06V14.87h9v40.4C207,57.43,207.64,58.32,209.88,58.32Zm8.05-26h9v34h-9Zm25.56,17c0,5.66,2,9.83,7.31,9.83,3.13,0,5.21-1.71,6.63-4.17l6.26,4.55c-2.38,5.06-7.38,7.6-13.64,7.6-11.25,0-15.73-8.2-15.73-17.81s4.48-17.74,15.73-17.74c6.26,0,11.26,2.53,13.64,7.6l-6.26,4.47c-1.49-2.46-3.5-4.1-6.63-4.1C245.5,39.54,243.49,43.64,243.49,49.31Zm56.16-3.79.46,20.78h-8.32V46.1c0-4.1-1.64-6.26-6.19-6.26A10.54,10.54,0,0,0,279,42.37V66.3h-9V14.87h9V35.52c1.86-1.87,3.69-3.49,9-3.49C295.7,32,299.65,36.72,299.65,45.52Zm22-14c-10.51,0-15.81,8.12-15.81,17.73,0,10.37,5,17.82,16.77,17.82a18.11,18.11,0,0,0,12.6-4.92L331,56.31a13.37,13.37,0,0,1-8.35,3.13c-4.91,0-7.45-2.76-7.67-7.23h20.5a28.21,28.21,0,0,0,.59-5.89C336.07,38.94,332.12,31.57,321.69,31.57Zm5.88,14.23H315.05c.23-3.87,2.16-7,6.64-7,3.2,0,6,1.86,6,5.88A8.11,8.11,0,0,1,327.57,45.8Zm-316.78-35A4.42,4.42,0,0,1,9.47,7.49a4.4,4.4,0,0,1,1.32-3.26,4.5,4.5,0,0,1,3.29-1.31,4.48,4.48,0,0,1,3.28,1.31,4.41,4.41,0,0,1,1.33,3.26,4.43,4.43,0,0,1-1.33,3.26,4.48,4.48,0,0,1-3.28,1.31A4.5,4.5,0,0,1,10.79,10.75Zm14.81,0a4.42,4.42,0,0,1-1.32-3.26A4.4,4.4,0,0,1,25.6,4.23a4.77,4.77,0,0,1,6.57,0A4.41,4.41,0,0,1,33.5,7.49a4.43,4.43,0,0,1-1.33,3.26,4.77,4.77,0,0,1-6.57,0Zm200.18,9.31a4.66,4.66,0,0,1,0,6.52,4.77,4.77,0,0,1-6.57,0,4.57,4.57,0,0,1,3.29-7.83A4.44,4.44,0,0,1,225.78,20.06ZM21.54,15.17C5.66,15.17,0,26.35,0,41.18S5.74,67,21.47,67C37,67,43,55.94,43,41.18S37.34,15.17,21.54,15.17ZM21.47,58.7c-9.1,0-11.33-7.16-11.33-17.52s2.61-17.66,11.4-17.66,11.33,7.23,11.33,17.66S30.41,58.7,21.47,58.7Zm382.32-3.93c.6,1.07,1.68,2.62,3.5,5.48,1.35,2.11.89,4.9.67,5.93h-1.72A13.22,13.22,0,0,0,406.5,64c.12-3.14-2.78-5.6-4.28-8.65a12,12,0,0,1-.55-2.88h1.71A7.92,7.92,0,0,0,403.79,54.77ZM85.42,32.31h8.79V40H85.42V66.3h-9V40H62.53V66.3h-9V40H48.15V33.06l5.37-.75V27.24c0-8,4-12.37,12.37-12.37h4.77v7.68H66.41c-3,0-3.88,1.79-3.88,4.77v5H76.4V27.24c0-8,4-12.37,12.37-12.37h4.77v7.68H89.29c-3,0-3.87,1.79-3.87,4.77ZM410,5.39v8H396.66V.59a39.54,39.54,0,0,0-13.61,0V13.36H369.71v-8a40.41,40.41,0,1,0,40.3,0Zm1.48,45c.12.44.73,2.16.73,2.16a7.92,7.92,0,0,1-.86.32,2.15,2.15,0,0,1-2.81-1.42s-.23-.62-.35-1.06c-.45-1.65-.54-2.89.65-5.61a40,40,0,0,0,2.27-5.6h-1.7a42.5,42.5,0,0,1-2.35,5.56c-1.19,2.72-1.17,3.95-.72,5.61.12.44.55,1.65.55,1.65l.31.83a3.75,3.75,0,0,0,.38,3.5c1.1,1.8.87,1.48,1.62,2.63a10.15,10.15,0,0,1,1.16,7.22h.71c1.23,0,1.6.66,1.6,1.14v.78c0,.06,0,.07,0,.07H369.79s0,0,0-.07v-.78c0-.48.38-1.14,1.6-1.14H403.9a6.18,6.18,0,0,0-1.15-5.62c-1.33-1.89-5.66-8.28-5.66-8.28a4.29,4.29,0,0,1-2.17-2.36l-12.08,0a2.4,2.4,0,0,1-2.07,1.48c-1.83,0-9.45-4.17-11.14-3.91-.61.1-4.58,4.3-4.58,4.3l-2.69,0s5.41-6,6.82-6.87c.5-.25.66-.4,3.58.78L376.1,47l-.78-1.89s-5.17-2.39-6.23-2.19c-1,.4-5.54,5.17-5.84,5.5h-2.68c2.65-2.79,6.12-6.38,7.58-7.65,1-.89,1.58-.44,4.53.64,1.51.54,2.33.92,2.33.92s1.55-3.07,6.79-14.24l-1.26-.69a19,19,0,0,0-4.45,5.3c-.14.28-1.34.45-2.39,0a2,2,0,0,1-1.26-1.86c1.17-4.7,4-10.49,6.27-12l.82,1.94c7.87-.14,11.08,7.65,11.33,8.27,0,0,.06.16.07.2h-3.39l.57,1.53H391c1.08,0,1.4.66,1.4,1.07,0,.08,0,.63,0,.67H388.8l.58,1.53h2.92c1.26,0,1.39.73,1.41,1.14s0,.59,0,.59h-3.63l.59,1.58h10.79A7.12,7.12,0,0,1,407,40.09l.16.2a14.84,14.84,0,0,1,.85-2.15,3.53,3.53,0,0,1,3-1.87c1.69-.12,2.86.42,3.25,1.72s-.87,3.83-2.16,6.76C410.89,47.47,411.05,48.72,411.49,50.38Z"/></svg>