<svg xmlns:xlink="http://www.w3.org/1999/xlink" xmlns="http://www.w3.org/2000/svg" class="a-svg" viewBox="0 0 737.8 133.7" width="160" height="28.99430740038" fill="#E20017" role="img" aria-labelledby="logo-oevo-title" focusable="false"><title id="logo-oevo-title" fill="#E20017"></title><g fill="#E20017"></g><g fill="#E20017"></g><path fill="#E20017" class="st0" d="M0,40.1L40.2,0H7.7C7.7,0,0,0,0,7.7C0,7.7,0,40.1,0,40.1z"></path><path fill="#E20017" class="st0" d="M96.4,52.7L48.2,4.5L0,52.7v28c0,0.1,0,7.8,3.9,11.7l0,0l39.8,39.7c1.6,1.1,5,2.8,8.6,0.2l40.1-39.9l0,0c3.8-3.8,3.9-11.2,3.9-11.6V52.7H96.4z M48.2,103.9L13.8,69.8L48.2,36l34.4,33.8L48.2,103.9z"></path><path fill="#E20017" class="st0" d="M96.4,40.1V7.7c0,0,0-7.7-7.7-7.7H56.2L96.4,40.1z"></path><g fill="#E20017"></g><path fill="#868685" class="st1" d="M362.3,113.1c0,0.3,0.1,0.5,0.3,0.7c0.2,0.2,0.5,0.3,0.9,0.3h2.5v3.8c-0.5,0.2-1.1,0.4-1.7,0.5s-1.2,0.2-1.9,0.2c-1.1,0-2.2-0.2-3.1-0.6s-1.7-0.9-2.4-1.6c-0.7-0.7-1.2-1.6-1.6-2.6s-0.5-2.2-0.5-3.5c0-1.2,0.2-2.3,0.5-3.3s0.8-1.8,1.4-2.5s1.4-1.2,2.2-1.6c0.9-0.4,1.8-0.6,2.9-0.6c0.6,0,1.1,0,1.6,0.1s0.9,0.1,1.3,0.3c0.4,0.1,0.8,0.3,1.2,0.5c0.4,0.2,0.8,0.4,1.3,0.7c0.5,0.3,0.9,0.4,1.3,0.3s0.8-0.3,1-0.7l1.7-2.6c-0.5-0.5-1.1-0.9-1.7-1.3s-1.3-0.8-2.1-1.1c-0.8-0.3-1.6-0.5-2.5-0.7s-1.9-0.3-2.9-0.3c-2,0-3.8,0.3-5.5,0.9s-3,1.5-4.2,2.6c-1.1,1.1-2,2.5-2.6,4c-0.6,1.6-0.9,3.3-0.9,5.1c0,1.8,0.3,3.5,1,5.1s1.6,2.9,2.8,4c1.2,1.1,2.6,2,4.3,2.7c1.7,0.6,3.6,1,5.6,1c1.6,0,3.1-0.2,4.5-0.6s2.8-1.1,4.1-2v-10.5h-8.9v3.3H362.3z"></path><path fill="#868685" class="st1" d="M339.8,114.1c-0.3-0.4-0.6-0.7-0.9-1s-0.7-0.5-1.1-0.7c0.8-0.3,1.5-0.7,2.2-1.2c0.6-0.5,1.1-1,1.6-1.6c0.4-0.6,0.7-1.3,1-2c0.2-0.7,0.3-1.5,0.3-2.3c0-1.1-0.2-2-0.5-2.9c-0.4-0.9-1-1.7-1.8-2.4c-0.8-0.7-1.8-1.2-3.1-1.6c-1.3-0.4-2.8-0.6-4.6-0.6h-8.3v25h5.8v-9.2h1.5c0.4,0,0.8,0.1,1,0.2s0.5,0.4,0.7,0.7l4.2,7.3c0.4,0.7,1.1,1.1,2.1,1.1h5.2 L339.8,114.1z M336.9,107.2c-0.2,0.5-0.4,0.9-0.8,1.2c-0.4,0.4-0.8,0.6-1.4,0.8c-0.6,0.2-1.2,0.3-2,0.3h-2.3v-7.4h2.3c1.5,0,2.6,0.3,3.3,0.9c0.7,0.6,1.1,1.5,1.1,2.6C337.1,106.2,337.1,106.8,336.9,107.2z"></path><path fill="#868685" class="st1" d="M303.7,117.9c-0.6-0.3-1.1-0.6-1.6-1.1c-0.4-0.5-0.7-1.1-1-1.8c-0.2-0.7-0.3-1.5-0.3-2.4V97.8H295v14.8c0,1.5,0.2,2.9,0.7,4.2c0.5,1.3,1.2,2.4,2.1,3.3s2.1,1.6,3.4,2.2c1.3,0.5,2.8,0.8,4.5,0.8s3.2-0.3,4.5-0.8s2.5-1.2,3.4-2.2c0.9-0.9,1.6-2,2.1-3.3s0.7-2.7,0.7-4.2V97.8h-5.8v14.8c0,0.9-0.1,1.7-0.3,2.4c-0.2,0.7-0.5,1.3-1,1.8s-0.9,0.8-1.6,1.1c-0.6,0.3-1.3,0.4-2.1,0.4C305,118.3,304.3,118.1,303.7,117.9"></path><path fill="#868685" class="st1" d="M286.9,111.8c-0.8-0.9-2-1.5-3.7-1.9c0.8-0.3,1.4-0.6,1.9-1s1-0.8,1.3-1.2c0.3-0.5,0.6-0.9,0.8-1.5c0.2-0.5,0.2-1.1,0.2-1.6c0-1-0.2-2-0.5-2.8s-0.9-1.5-1.7-2.1c-0.8-0.6-1.8-1-3-1.4c-1.2-0.3-2.7-0.5-4.4-0.5h-9.2v25h10c1.5,0,2.8-0.2,4-0.6s2.1-0.9,2.9-1.6s1.4-1.5,1.8-2.4s0.6-1.9,0.6-3C288.1,113.9,287.7,112.7,286.9,111.8z M274.6,102.2h3.4c0.7,0,1.2,0.1,1.7,0.2s0.9,0.3,1.2,0.5c0.3,0.2,0.5,0.6,0.7,1c0.1,0.4,0.2,0.9,0.2,1.5s-0.1,1.1-0.3,1.5c-0.2,0.4-0.5,0.7-0.8,0.9c-0.4,0.2-0.8,0.4-1.3,0.5s-1.1,0.1-1.7,0.1h-3v-6.2H274.6z M282.2,116.4c-0.1,0.4-0.3,0.7-0.6,1c-0.3,0.3-0.7,0.6-1.1,0.8c-0.5,0.2-1.1,0.3-1.9,0.3h-4v-6.2h4c0.7,0,1.3,0.1,1.8,0.2s0.9,0.3,1.2,0.6c0.3,0.3,0.5,0.6,0.6,0.9c0.1,0.4,0.2,0.8,0.2,1.2C282.4,115.6,282.3,116,282.2,116.4z"></path><path fill="#868685" class="st1" d="M255.2,97.9v13.2c0,0.4,0,0.8,0,1.3s0.1,0.9,0.1,1.4l-11.9-15c-0.2-0.2-0.3-0.3-0.4-0.5c-0.1-0.1-0.3-0.2-0.4-0.3c-0.1-0.1-0.3-0.1-0.5-0.1s-0.4,0-0.6,0h-3.1v25h5.1v-13.4c0-0.4,0-0.8,0-1.2c0-0.4,0-0.8-0.1-1.3l11.8,14.9c0.3,0.4,0.6,0.6,0.9,0.7s0.7,0.2,1.1,0.2h3v-25L255.2,97.9L255.2,97.9z"></path><polygon fill="#868685" class="st1" points="231.4,102.3 231.4,97.9 215.3,97.9 215.3,122.8 231.4,122.8 231.4,118.4 221.1,118.4 221.1,112.4 229,112.4 229,108.1 221.1,108.1 221.1,102.3 		"></polygon><path fill="#868685" class="st1" d="M207.3,105.4c-0.6-1.5-1.5-2.8-2.6-4c-1.1-1.1-2.5-2-4.1-2.6s-3.4-0.9-5.3-0.9h-9.7v25h9.7c1.9,0,3.7-0.3,5.3-0.9s3-1.5,4.1-2.6s2-2.4,2.6-4c0.6-1.5,0.9-3.2,0.9-5C208.2,108.5,207.9,106.9,207.3,105.4z M201.8,113.7c-0.3,1-0.8,1.8-1.4,2.5c-0.6,0.7-1.3,1.2-2.2,1.6s-1.9,0.6-3,0.6h-3.9v-16.1h3.9c1.1,0,2.1,0.2,3,0.6s1.6,0.9,2.2,1.6c0.6,0.7,1.1,1.5,1.4,2.5c0.3,1,0.5,2.1,0.5,3.3C202.3,111.6,202.1,112.7,201.8,113.7z"></path><polygon fill="#868685" class="st1" points="169.8,118.2 169.8,97.9 164,97.9 164,122.8 179,122.8 179,118.2 		"></polygon><path fill="#868685" class="st1" d="M156,105.3c-0.6-1.6-1.5-2.9-2.6-4s-2.5-2-4.1-2.7s-3.4-1-5.3-1c-1.9,0-3.7,0.3-5.3,1s-3,1.5-4.1,2.7c-1.1,1.1-2,2.5-2.6,4c-0.6,1.6-0.9,3.2-0.9,5s0.3,3.5,0.9,5c0.6,1.6,1.5,2.9,2.6,4.1s2.5,2,4.1,2.7s3.4,1,5.3,1c1.9,0,3.7-0.3,5.3-1s3-1.6,4.1-2.7s2-2.5,2.6-4.1s0.9-3.2,0.9-5C156.9,108.5,156.6,106.9,156,105.3z M150.5,113.7c-0.3,1-0.8,1.8-1.4,2.5c-0.6,0.7-1.3,1.2-2.2,1.6s-1.9,0.5-3,0.5s-2.1-0.2-3-0.5c-0.9-0.4-1.6-0.9-2.2-1.6c-0.6-0.7-1.1-1.5-1.4-2.5c-0.3-1-0.5-2.1-0.5-3.4c0-1.2,0.2-2.3,0.5-3.3s0.8-1.8,1.4-2.5c0.6-0.7,1.3-1.2,2.2-1.6s1.9-0.5,3-0.5s2.1,0.2,3,0.5c0.9,0.4,1.6,0.9,2.2,1.6c0.6,0.7,1.1,1.5,1.4,2.5c0.3,1,0.5,2.1,0.5,3.3C151,111.6,150.9,112.7,150.5,113.7z"></path><g fill="#E20017"></g><path fill="#004494" class="st2" d="M149.9,10.6c0.4-0.9,0.6-1.8,0.6-2.8s-0.2-1.9-0.6-2.8c-0.4-0.9-0.9-1.7-1.6-2.3c-0.7-0.7-1.5-1.2-2.4-1.6c-0.9-0.4-1.9-0.6-3-0.6c-1,0-1.9,0.2-2.7,0.6c-0.9,0.4-1.6,0.9-2.3,1.6c-0.7,0.7-1.2,1.4-1.6,2.3c-0.4,0.9-0.6,1.8-0.6,2.8s0.2,2,0.6,2.8c0.4,0.9,0.9,1.6,1.6,2.3c0.7,0.7,1.4,1.2,2.3,1.5c0.9,0.4,1.8,0.5,2.7,0.5c1.1,0,2-0.2,3-0.5c0.9-0.4,1.7-0.9,2.4-1.5C149,12.2,149.5,11.5,149.9,10.6"></path><path fill="#004494" class="st2" d="M196.9,10.6c0.4-0.9,0.6-1.8,0.6-2.8s-0.2-1.9-0.6-2.8c-0.4-0.9-0.9-1.7-1.6-2.3c-0.7-0.7-1.5-1.2-2.4-1.6 C192,0.7,191,0.5,190,0.5s-2,0.2-2.9,0.6c-0.9,0.4-1.7,0.9-2.4,1.6c-0.7,0.7-1.2,1.4-1.6,2.3c-0.4,0.9-0.6,1.8-0.6,2.8s0.2,2,0.6,2.8c0.4,0.9,0.9,1.6,1.6,2.3c0.7,0.7,1.5,1.2,2.4,1.5c0.9,0.4,1.9,0.5,2.9,0.5s2-0.2,2.9-0.5c0.9-0.4,1.7-0.9,2.4-1.5 C195.9,12.2,196.5,11.5,196.9,10.6"></path><path fill="#004494" class="st2" d="M200,35.1c-1.7-4.3-4.2-8.1-7.3-11.3c-3.2-3.2-6.9-5.7-11.4-7.5c-4.4-1.8-9.4-2.7-14.8-2.7s-10.3,0.9-14.8,2.7s-8.3,4.3-11.4,7.5c-3.2,3.2-5.6,6.9-7.4,11.3c-1.7,4.3-2.6,9-2.6,14s0.9,9.7,2.6,14c1.7,4.3,4.2,8.1,7.4,11.3c3.2,3.2,7,5.7,11.4,7.5c4.5,1.8,9.4,2.7,14.8,2.7s10.3-0.9,14.8-2.7c4.4-1.8,8.2-4.3,11.4-7.5s5.6-7,7.3-11.3s2.6-9,2.6-14S201.7,39.4,200,35.1z M184.7,58.4c-0.9,2.8-2.2,5.1-3.8,7c-1.7,1.9-3.7,3.4-6.1,4.4c-2.4,1-5.2,1.5-8.3,1.5s-5.9-0.5-8.3-1.5c-2.4-1-4.5-2.5-6.2-4.4s-3-4.2-3.8-7c-0.9-2.8-1.3-5.9-1.3-9.3s0.4-6.5,1.3-9.3c0.9-2.8,2.2-5.1,3.8-7c1.7-1.9,3.7-3.4,6.2-4.4c2.4-1,5.2-1.5,8.3-1.5s5.8,0.5,8.3,1.5c2.4,1,4.5,2.5,6.1,4.4c1.7,1.9,3,4.2,3.8,7c0.9,2.8,1.3,5.8,1.3,9.3 C186,52.5,185.6,55.6,184.7,58.4z"></path><polygon fill="#004494" class="st2" points="225.4,26.7 254,26.7 254,14.3 209.2,14.3 209.2,83.9 225.4,83.9 225.4,56.8 249.2,56.8 249.2,44.3 225.4,44.3 		"></polygon><polygon fill="#004494" class="st2" points="276.7,26.7 305.2,26.7 305.2,14.3 260.4,14.3 260.4,83.9 276.7,83.9 276.7,56.8 300.5,56.8 300.5,44.3 276.7,44.3 		"></polygon><polygon fill="#004494" class="st2" points="311.7,83.9 356.5,83.9 356.5,71.5 327.9,71.5 327.9,54.9 349.8,54.9 349.8,42.9 327.9,42.9 327.9,26.7 356.5,26.7 356.5,14.3 311.7,14.3 		"></polygon><path fill="#004494" class="st2" d="M415.9,83.9h8.4V14.3h-14.2v36.8c0,1.1,0,2.3,0.1,3.6c0.1,1.3,0.2,2.6,0.3,3.9l-33.1-41.8c-0.4-0.5-0.8-1-1.2-1.3c-0.4-0.3-0.7-0.6-1.1-0.7c-0.4-0.2-0.8-0.3-1.3-0.4c-0.5-0.1-1.1-0.1-1.8-0.1h-8.5v69.6h14.2V46.6c0-1,0-2.1-0.1-3.3c0-1.2-0.1-2.4-0.3-3.6l32.8,41.5c0.8,1,1.7,1.7,2.5,2.1C413.6,83.7,414.6,83.9,415.9,83.9"></path><polygon fill="#004494" class="st2" points="465.3,27.1 484.9,27.1 484.9,14.3 429.6,14.3 429.6,27.1 449.2,27.1 449.2,83.9 465.3,83.9 		"></polygon><polygon fill="#004494" class="st2" points="490.2,83.9 532.1,83.9 532.1,71 506.3,71 506.3,14.3 490.2,14.3 		"></polygon><rect x="537.4" y="14.3" fill="#004494" class="st2" width="16.2" height="69.6"></rect><path fill="#004494" class="st2" d="M578.4,58.6c-1-2.8-1.5-5.9-1.5-9.5c0-3.5,0.4-6.7,1.3-9.4c0.9-2.8,2.1-5.1,3.7-7c1.6-1.9,3.5-3.3,5.7-4.3s4.7-1.5,7.3-1.5c1.7,0,3.2,0.1,4.4,0.4c1.3,0.3,2.4,0.6,3.3,0.9c0.9,0.4,1.8,0.8,2.4,1.2c0.7,0.4,1.3,0.8,1.9,1.2c0.6,0.4,1.1,0.7,1.6,0.9c0.5,0.3,1,0.4,1.6,0.4c0.9,0,1.5-0.2,2-0.5c0.5-0.4,0.9-0.8,1.2-1.2l5.4-7.3c-1.3-1.3-2.8-2.6-4.5-3.7c-1.7-1.1-3.5-2.1-5.5-2.9c-2-0.8-4.2-1.4-6.5-1.9s-4.8-0.7-7.4-0.7c-5.1,0-9.8,0.9-14.1,2.6c-4.3,1.8-7.9,4.2-11,7.4s-5.4,6.9-7.1,11.2c-1.7,4.3-2.5,9.1-2.5,14.3c0,5.1,0.8,9.8,2.3,14.2c1.6,4.3,3.8,8.1,6.7,11.3c2.9,3.2,6.5,5.7,10.6,7.5c4.2,1.8,8.9,2.7,14.2,2.7c5.8,0,10.8-0.9,15-2.8s7.7-4.6,10.5-8.3l-6.4-6.7c-0.4-0.4-0.7-0.6-1.1-0.7c-0.4-0.1-0.8-0.2-1.1-0.2c-0.5,0-0.9,0.1-1.4,0.3c-0.4,0.2-0.9,0.5-1.2,0.8c-1,0.9-1.9,1.6-2.8,2.1c-0.9,0.6-1.9,1-3,1.3c-1,0.3-2.2,0.6-3.4,0.7s-2.5,0.2-4,0.2c-2.5,0-4.9-0.5-7.2-1.5c-2.2-1-4.2-2.4-5.8-4.3C580.7,63.7,579.4,61.3,578.4,58.6"></path><polygon fill="#004494" class="st2" points="668.5,83.9 684.8,83.9 684.8,14.3 668.5,14.3 668.5,43.4 640.2,43.4 640.2,14.3 624,14.3 624,83.9 640.2,83.9 640.2,54.5 668.5,54.5 		"></polygon><polygon fill="#004494" class="st2" points="709.2,71.5 709.2,54.9 731.1,54.9 731.1,42.9 709.2,42.9 709.2,26.7 737.8,26.7 737.8,14.3 693,14.3 693,83.9 737.8,83.9 737.8,71.5 		"></polygon></svg>