<svg xmlns:xlink="http://www.w3.org/1999/xlink" xmlns="http://www.w3.org/2000/svg" viewBox="0 0 506.41 105.22" width="506.41"  height="105.22" ><defs><style>.cls-1{fill:#46747d;}.cls-2{fill:#c3dae3;}.cls-3{fill:#272726;}</style></defs><g id="Ebene_2" data-name="Ebene 2"><g id="Ebene_1-2" data-name="Ebene 1"><path class="cls-1" d="M94.88,37.87A48.58,48.58,0,0,0,1,62.16L94.88,37.87Z"/><path class="cls-2" d="M2.23,67.13a48.58,48.58,0,0,0,94-24.3L2.23,67.13Z"/><path class="cls-3" d="M139.19,32.81A30.73,30.73,0,0,0,131,54.13a30.79,30.79,0,0,0,8.64,21.68q8.64,9.28,22.27,9.28t22.21-9.28a30.83,30.83,0,0,0,8.63-21.68,30.8,30.8,0,0,0-8.17-21.38,30.91,30.91,0,0,0-45.4.06Zm39,4.51a23.41,23.41,0,0,1,6.85,17,24.12,24.12,0,0,1-3.11,12,22,22,0,0,1-8.41,8.56,23.9,23.9,0,0,1-23.26,0,22,22,0,0,1-8.41-8.56,24.12,24.12,0,0,1-3.11-12,23.5,23.5,0,0,1,6.82-17,22.47,22.47,0,0,1,32.63,0ZM207,105.22h7.62V73.39a32.77,32.77,0,0,0,10.71,8.76A29.92,29.92,0,0,0,259.72,76a30.61,30.61,0,0,0,8.89-22.17,30,30,0,0,0-9-21.87,29.22,29.22,0,0,0-21.58-9.09A27.59,27.59,0,0,0,225,26a30.62,30.62,0,0,0-10.38,9.31V24.37H207v80.85Zm42.2-71.9a22.82,22.82,0,0,1,8.54,8.78,24,24,0,0,1,0,23.91,23.34,23.34,0,0,1-8.61,8.88,22.34,22.34,0,0,1-11.53,3.18,23.91,23.91,0,0,1-11.86-3.15,22.06,22.06,0,0,1-8.63-8.53,24.38,24.38,0,0,1-3-12.12A23.54,23.54,0,0,1,220.8,37.1a22.36,22.36,0,0,1,16.63-6.9,23,23,0,0,1,11.73,3.12Zm40.34-8.95H279.11V31H289.5V83.57h7.62V31h12.07V24.37H297.12v-22H289.5v22ZM318.87,1.85A6.08,6.08,0,0,0,317,6.31a6,6,0,0,0,1.84,4.41,6,6,0,0,0,4.39,1.85,6.06,6.06,0,0,0,4.44-1.85,6,6,0,0,0,1.84-4.41,6.08,6.08,0,0,0-1.84-4.46A6.06,6.06,0,0,0,323.26,0a6,6,0,0,0-4.39,1.85Zm.61,81.72h7.61V24.37h-7.61v59.2Zm23.39,0h7.62V58.49q0-11.1,2.2-16.49a18.88,18.88,0,0,1,6.8-8.57,17.06,17.06,0,0,1,9.88-3.18,13.44,13.44,0,0,1,7.88,2.31,12.16,12.16,0,0,1,4.66,6.15q1.32,3.84,1.33,14.55V83.57h7.62V60.39q0-12.73,2.11-18.17a18.77,18.77,0,0,1,6.7-8.71,17.05,17.05,0,0,1,10.11-3.26,13.87,13.87,0,0,1,7.84,2.18,11.77,11.77,0,0,1,4.63,5.74q1.37,3.55,1.36,13.08V83.57h7.78V51.25q0-11.1-2.28-16.65a18.51,18.51,0,0,0-7-8.65,19.17,19.17,0,0,0-10.82-3.1A22.5,22.5,0,0,0,399,26.47a28.09,28.09,0,0,0-9.5,10.58,23.91,23.91,0,0,0-4.25-8A17.45,17.45,0,0,0,379,24.54a20.09,20.09,0,0,0-8.17-1.69,23.18,23.18,0,0,0-12.14,3.48,29.45,29.45,0,0,0-8.17,8.27V24.37h-7.62v59.2Zm156-59.2V35.26A30,30,0,0,0,488.54,26a27.87,27.87,0,0,0-13.19-3.1,29.25,29.25,0,0,0-21.6,9.09,30,30,0,0,0-9,21.87A30.58,30.58,0,0,0,453.67,76a30,30,0,0,0,34.49,6.17,32.79,32.79,0,0,0,10.75-8.76V83.57h7.5V24.37ZM492.63,37.1a23.55,23.55,0,0,1,6.77,17.17,24.38,24.38,0,0,1-3,12.12,22.07,22.07,0,0,1-8.61,8.53,23.82,23.82,0,0,1-11.85,3.15,22.48,22.48,0,0,1-11.6-3.18A23.36,23.36,0,0,1,455.7,66a24,24,0,0,1,0-23.91A22.95,22.95,0,0,1,476,30.2a22.41,22.41,0,0,1,16.66,6.9Z"/></g></g></svg>