<svg xmlns:xlink="http://www.w3.org/1999/xlink" xmlns="http://www.w3.org/2000/svg" viewBox="0 0 342.2 153.1" style="enable-background:new 0 0 342.2 153.1" xml:space="preserve" width="342.2"  height="153.1" >
  <style>
    .st2{fill:#004f9f}.st3{fill:#fff}.st4{fill:#e3051b}.st6{fill:#024589}.st7,.st8{fill:red}.st8{fill-rule:evenodd;clip-rule:evenodd}
  </style>
  <g id="Ebene_2">
    <path style="fill:none" d="M-10-26.2v193.4h362V-26.2H-10z"/>
    <path class="st6" d="M341 92.5H.6v-3.2H341v3.2zm0-89.8H.6V-.5H341v3.2zM11.2 39.3c.9 0 1.8-.1 2.6-.3.6-.1 1.1-.4 1.6-.7.4-.3.7-.6.9-1.1.2-.4.2-.9.2-1.4 0-1.1-.6-2.1-1.5-2.7-1.6-1-3.4-1.8-5.3-2.3-1.1-.4-2.2-.8-3.3-1.3-1.1-.5-2-1.1-2.9-1.9C2.7 26.9 2 26 1.4 25c-.6-1.2-.9-2.6-.8-3.9 0-1.4.3-2.8.9-4.1.6-1.2 1.4-2.3 2.4-3.1 1.1-.9 2.4-1.6 3.8-2 1.6-.5 3.4-.7 5.1-.7 3.4-.1 6.8.7 9.8 2.3l-2.2 5.9c-1-.5-2-.9-3.1-1.3-1.3-.4-2.7-.6-4.1-.5-1.3-.1-2.7.2-3.9.7-.8.5-1.2 1.4-1.2 2.3 0 .5.1 1.1.4 1.5.3.5.7.8 1.2 1.1.6.4 1.2.7 1.8.9.7.3 1.4.6 2.3.8 1.7.6 3.2 1.3 4.5 1.9 1.2.5 2.2 1.3 3.2 2.2.8.8 1.5 1.8 1.9 2.9.4 1.3.7 2.7.6 4.1.1 2.8-1.1 5.5-3.3 7.2-2.2 1.7-5.4 2.6-9.8 2.6-1.3 0-2.7-.1-4-.3-1.1-.2-2.1-.4-3.1-.6-.8-.2-1.6-.5-2.3-.8-.6-.2-1.1-.5-1.6-.8L2 37.4c2.9 1.3 6 2 9.2 1.9M42.9 19.4c-.2.5-.4 1.1-.7 2-.3.8-.7 1.8-1.1 2.9-.4 1.1-.9 2.3-1.4 3.6-.5 1.3-1 2.7-1.5 4.1h9.5c-.5-1.4-1-2.8-1.5-4.1-.5-1.3-.9-2.5-1.4-3.6-.4-1.1-.8-2-1.1-2.9-.3-.9-.6-1.5-.8-2m9 25.6c-.4-1.2-.8-2.3-1.2-3.6l-1.3-3.6H36.5c-.4 1.2-.8 2.4-1.3 3.6-.4 1.2-.8 2.4-1.2 3.5h-7.8c1.2-3.6 2.4-6.9 3.6-9.9 1.1-3 2.2-5.9 3.3-8.6 1.1-2.7 2.1-5.2 3.2-7.6 1-2.4 2.1-4.8 3.2-7.1h7.1c1.1 2.3 2.2 4.6 3.2 7.1 1.1 2.4 2.1 5 3.2 7.6 1.1 2.7 2.2 5.5 3.3 8.6 1.1 3 2.3 6.3 3.6 9.9l-8 .1zM79.3 19.4c-.2.5-.4 1.1-.7 2-.3.8-.7 1.8-1.1 2.9-.4 1.1-.9 2.3-1.4 3.6s-1 2.7-1.5 4.1h9.5c-.5-1.4-1-2.8-1.5-4.1s-.9-2.5-1.4-3.6c-.4-1.1-.8-2-1.1-2.9-.3-.9-.6-1.5-.8-2m9 25.6c-.4-1.2-.8-2.3-1.2-3.6l-1.3-3.6H72.9c-.4 1.2-.8 2.4-1.3 3.6-.4 1.2-.8 2.4-1.2 3.5h-7.8c1.2-3.6 2.4-6.9 3.6-9.9 1.1-3 2.2-5.9 3.3-8.6 1.1-2.7 2.1-5.2 3.2-7.6 1-2.4 2.1-4.8 3.2-7.1H83c1.1 2.3 2.2 4.6 3.2 7.1 1.1 2.4 2.1 5 3.2 7.6 1.1 2.7 2.2 5.5 3.3 8.6 1.1 3 2.3 6.3 3.6 9.9h-8zM110.6 17.9h-1.5c-.4 0-.8.1-1.2.1v9h2.1c2.8 0 4.8-.4 6-1.1 1.2-.8 1.9-2.1 1.8-3.6.1-1.4-.6-2.8-1.8-3.5-1.6-.7-3.5-1.1-5.4-.9m-.4-6.4c5 0 8.8.9 11.4 2.7 2.6 1.8 4 4.5 4 8.3.1 2-.5 4-1.6 5.7-1.2 1.5-2.8 2.7-4.6 3.4.7.8 1.4 1.8 2.1 2.8.7 1.1 1.5 2.2 2.2 3.3l2.1 3.6c.7 1.3 1.3 2.5 1.9 3.7h-8.3c-.6-1.1-1.2-2.2-1.9-3.3-.6-1.1-1.3-2.2-1.9-3.3-.7-1.1-1.3-2-1.9-3-.6-.9-1.3-1.8-1.9-2.6H108V45h-7.5V12.4c1.7-.3 3.4-.5 5-.7 1.8-.1 3.3-.2 4.7-.2M154.4 38.6V45h-22.2V11.9h7.5v26.7zM174.5 19.4c-.2.5-.4 1.1-.7 2-.3.8-.7 1.8-1.1 2.9-.4 1.1-.9 2.3-1.4 3.6s-1 2.7-1.5 4.1h9.5c-.5-1.4-1-2.8-1.5-4.1-.5-1.3-.9-2.5-1.4-3.6-.4-1.1-.8-2-1.1-2.9-.4-.9-.7-1.5-.8-2m8.9 25.6c-.4-1.2-.8-2.3-1.2-3.6l-1.3-3.6H168l-1.3 3.6c-.4 1.2-.8 2.4-1.2 3.5h-7.8c1.2-3.6 2.4-6.9 3.6-9.9 1.1-3 2.2-5.9 3.3-8.6 1.1-2.7 2.1-5.2 3.2-7.6 1-2.4 2.1-4.8 3.2-7.1h7.1c1.1 2.3 2.2 4.6 3.2 7.1 1.1 2.4 2.1 5 3.2 7.6 1.1 2.7 2.2 5.5 3.3 8.6 1.1 3 2.3 6.3 3.6 9.9l-8 .1zM217.9 45c-2.1-3.8-4.4-7.5-6.9-11.2-2.4-3.6-5.1-7.1-7.9-10.5V45h-7.4V11.9h6.1c1.1 1.1 2.2 2.3 3.5 3.9 1.3 1.5 2.6 3.2 3.9 4.9 1.3 1.7 2.6 3.5 3.9 5.4 1.3 1.9 2.5 3.7 3.7 5.4V11.9h7.4V45h-6.3zM238.6 39c.4 0 .8.1 1.2.1h1.6c3.7 0 6.5-.9 8.3-2.8 1.9-2.1 2.9-4.9 2.7-7.8 0-3.5-.9-6.1-2.6-7.9-1.7-1.8-4.4-2.7-8.2-2.7H240c-.5 0-1.1.1-1.5.1l.1 21zm21.5-10.6c.1 2.6-.4 5.1-1.3 7.5-.8 2-2.1 3.9-3.8 5.3-1.8 1.5-3.8 2.5-6 3.2-2.6.7-5.3 1.1-7.9 1.1-1.3 0-2.9-.1-4.7-.2-1.8-.1-3.5-.3-5.3-.7V12.3c1.8-.3 3.6-.5 5.4-.6 1.9-.1 3.5-.2 4.8-.2 2.6 0 5.2.3 7.7 1 2.2.6 4.2 1.6 6 3 1.7 1.4 3 3.2 3.8 5.3 1 2.4 1.4 5 1.3 7.6M22.5 54.7c-.9 2.6-1.7 5-2.6 7.2-.8 2.2-1.6 4.3-2.4 6.3-.8 2-1.5 3.9-2.3 5.7-.8 1.8-1.5 3.6-2.3 5.3H9.7c-.8-1.8-1.6-3.5-2.3-5.3-.8-1.9-1.6-3.8-2.4-5.8-.8-2-1.6-4.1-2.4-6.3-.8-2.2-1.7-4.6-2.5-7.2h3.8c1.3 3.7 2.5 7.3 3.7 10.7 1.2 3.4 2.5 6.6 3.8 9.6 1.3-3 2.5-6.2 3.8-9.6 1.2-3.4 2.5-7 3.7-10.7h3.6zM35.7 68.2c.1-1.3-.3-2.6-1.1-3.6s-1.9-1.5-3.2-1.4c-.7 0-1.4.1-2 .4-.6.3-1.1.7-1.5 1.1-.4.5-.7 1-.9 1.6-.2.6-.4 1.2-.4 1.9h9.1zM23.2 70c0-1.4.2-2.9.7-4.2.4-1.1 1-2.1 1.9-3 .8-.8 1.7-1.4 2.7-1.8 1-.4 2-.6 3.1-.6 2.1-.1 4.2.7 5.7 2.3 1.3 1.5 2 3.9 2 7v1.1H26.6c0 1.6.6 3.1 1.6 4.3 1.2 1.1 2.9 1.6 4.5 1.5 1 0 2-.1 2.9-.3.6-.1 1.2-.3 1.8-.6l.5 2.7c-.7.3-1.4.5-2.1.7-1.1.2-2.3.4-3.4.4-1.4 0-2.8-.2-4.1-.7-1.1-.4-2.1-1.1-2.9-2-.8-.9-1.3-1.9-1.7-3-.4-1.2-.6-2.5-.5-3.8M50.8 60.4c.3 0 .6 0 1 .1.4 0 .7.1 1.1.1.4.1.7.1 1 .2.2 0 .4.1.7.2l-.6 2.9c-.4-.1-.9-.2-1.3-.3-.8-.1-1.5-.2-2.3-.2-.6 0-1.2.1-1.8.2-.6.1-1 .2-1.2.3v15.4H44V61.6c.9-.3 1.9-.6 2.9-.8 1.3-.3 2.6-.4 3.9-.4M63.1 76.8c1 .1 2-.1 3-.5.6-.3 1-1 1-1.7 0-.8-.3-1.5-1-1.9-1-.6-2-1.2-3.1-1.6-.7-.3-1.4-.6-2-.9-.6-.3-1.2-.6-1.7-1s-.9-.9-1.1-1.4c-.3-.7-.4-1.4-.4-2.1-.1-1.5.6-2.9 1.8-3.9 1.4-1 3.1-1.5 4.9-1.4.5 0 1 0 1.5.1s1 .1 1.4.2l1.2.3c.3.1.6.2.8.2l-.6 2.8c-.5-.3-1.1-.4-1.7-.6-.9-.2-1.8-.3-2.7-.3-.8 0-1.7.2-2.4.5s-1.1 1-1 1.7c0 .4.1.7.2 1.1.2.3.4.6.7.8.4.3.8.5 1.2.7.5.2 1 .4 1.7.7.9.3 1.6.7 2.3 1 .6.3 1.2.7 1.7 1.1.5.4.9.9 1.1 1.5.3.7.4 1.4.4 2.2.1 1.5-.6 3-1.9 3.8-1.6 1-3.5 1.4-5.4 1.3-1.3 0-2.6-.1-3.8-.4-.9-.3-1.5-.5-1.9-.6l.6-2.8c.4.1 1 .3 1.8.6 1.2.3 2.3.5 3.4.5M78.9 79.1h-3.3V60.8h3.3v18.3zm-1.7-21.6c-.6 0-1.1-.2-1.5-.6-.8-.9-.8-2.3 0-3.1.8-.8 2.1-.8 3 0 .8.9.8 2.3 0 3.1-.4.4-1 .6-1.5.6M93.1 79.5c-1.3 0-2.7-.2-3.9-.7-1.1-.4-2-1.1-2.8-2-.8-.9-1.4-1.9-1.7-3-.4-1.2-.6-2.5-.6-3.9 0-1.3.2-2.6.6-3.9.4-1.1 1-2.2 1.7-3 .8-.9 1.7-1.6 2.8-2 1.2-.5 2.4-.7 3.6-.7.8 0 1.7.1 2.5.2s1.6.4 2.4.7L97 64c-.5-.3-1.1-.4-1.7-.6-.7-.1-1.4-.2-2.1-.2-1.6-.1-3.1.5-4.2 1.7-1.1 1.5-1.6 3.2-1.5 5 0 .9.1 1.8.3 2.7.2.8.6 1.5 1.1 2.1.5.6 1.1 1.1 1.8 1.4.9.3 1.8.5 2.7.5.8 0 1.6-.1 2.4-.2.6-.1 1.1-.3 1.7-.5l.5 2.7c-.3.1-.5.3-.8.3l-1.2.3c-.4.1-.9.2-1.4.2-.5.1-1 .1-1.5.1M102.3 79.1V52.3l3.3-.6v9.4c1.3-.5 2.6-.7 4-.7 1.2 0 2.5.2 3.6.6.9.4 1.7 1 2.3 1.7.6.8 1 1.7 1.2 2.7.2 1.1.4 2.3.4 3.4v10.3h-3.3v-9.6c0-1-.1-1.9-.2-2.9-.1-.7-.4-1.4-.8-1.9s-.8-.9-1.4-1.1c-.7-.2-1.4-.4-2.2-.3-.4 0-.7 0-1.1.1-.4 0-.7.1-1.1.2-.3.1-.6.1-.9.2-.2 0-.4.1-.6.2v15.2h-3.2zM134.4 68.2c.1-1.3-.3-2.6-1.1-3.6s-1.9-1.5-3.2-1.4c-.7 0-1.4.1-2 .4-.6.3-1.1.7-1.5 1.1-.4.5-.7 1-.9 1.6-.2.6-.4 1.2-.4 1.9h9.1zM121.8 70c0-1.4.2-2.9.7-4.2.4-1.1 1-2.1 1.9-3 .8-.8 1.7-1.4 2.7-1.8 1-.4 2-.6 3.1-.6 2.1-.1 4.2.7 5.7 2.3 1.3 1.5 2 3.9 2 7v1.1h-12.5c0 1.6.6 3.1 1.6 4.3 1.2 1.1 2.9 1.6 4.5 1.5 1 0 2-.1 2.9-.3.6-.1 1.2-.3 1.8-.6l.5 2.7c-.7.3-1.4.5-2.1.7-1.1.2-2.3.4-3.4.4-1.4 0-2.8-.2-4.1-.7-1.1-.4-2.1-1.1-2.9-2-.8-.9-1.3-1.9-1.7-3-.6-1.2-.7-2.5-.7-3.8M149.9 60.4c.3 0 .6 0 1 .1.4 0 .7.1 1.1.1.4.1.7.1 1 .2.2 0 .4.1.7.2l-.6 2.9c-.4-.1-.9-.2-1.3-.3-.8-.1-1.5-.2-2.3-.2-.6 0-1.2.1-1.8.2-.6.1-1 .2-1.2.3v15.4h-3.3V61.6c.9-.3 1.9-.6 2.9-.8 1.2-.3 2.5-.4 3.8-.4M172.4 78.6c-.8.2-1.7.4-3 .6-1.4.2-2.8.3-4.3.3-1.2 0-2.4-.2-3.6-.6-.9-.4-1.7-1-2.3-1.7-.6-.8-1-1.7-1.3-2.7-.3-1.1-.4-2.3-.4-3.4V60.8h3.3v9.6c-.1 1.7.2 3.3 1.1 4.8.9 1 2.2 1.6 3.6 1.4h1.1c.4 0 .7-.1 1.1-.1.3 0 .6-.1.9-.1.2 0 .4-.1.6-.1V60.8h3.3v17.8zM178.7 61.3c.8-.2 1.7-.4 3-.6 1.4-.2 2.9-.3 4.3-.3 1.2 0 2.5.2 3.6.6.9.4 1.7 1 2.3 1.7.6.8 1 1.7 1.2 2.7.2 1.1.4 2.3.4 3.4v10.3h-3.3v-9.6c0-1-.1-1.9-.2-2.9-.1-.7-.4-1.4-.8-1.9s-.8-.9-1.4-1.1c-.7-.2-1.4-.4-2.2-.3h-1.1c-.4 0-.7.1-1.1.1-.3 0-.6.1-.9.1-.3 0-.5.1-.6.1v15.5h-3.3V61.3zM211.1 63.7c-.4-.1-.9-.2-1.3-.3-.7-.1-1.5-.1-2.2-.1-1.6-.1-3.1.5-4.1 1.7-1 1.3-1.5 2.9-1.4 4.6 0 .9.1 1.8.4 2.7.2.7.6 1.3 1.1 1.9.4.5 1 .9 1.6 1.1.6.2 1.2.4 1.8.4.8 0 1.6-.1 2.4-.4.6-.2 1.2-.5 1.7-.9V63.7zm0 13.6c-.5.3-1.1.5-1.6.7-.9.3-1.9.5-2.8.4-1.1 0-2.1-.2-3.1-.5s-1.8-.9-2.6-1.6c-.8-.8-1.3-1.7-1.7-2.8-.5-1.3-.7-2.6-.6-3.9 0-1.3.2-2.5.6-3.7.4-1.1 1-2.1 1.7-2.9.8-.8 1.7-1.5 2.8-1.9 1.2-.5 2.5-.7 3.7-.7 1.3 0 2.7.1 4 .3 1.1.2 2.1.4 2.9.6v16.3c0 2.8-.7 4.9-2.2 6.1-1.5 1.3-3.7 1.9-6.6 1.9-1.1 0-2.2-.1-3.3-.3-.9-.2-1.8-.4-2.7-.7l.6-2.9c.8.3 1.6.5 2.4.7 1 .2 2 .3 3 .3 1.5.1 3-.3 4.2-1.2.9-1 1.4-2.3 1.3-3.7v-.5zM231.9 68.2c.1-1.3-.3-2.6-1.1-3.6s-1.9-1.5-3.2-1.4c-.7 0-1.4.1-2 .4-.6.3-1.1.7-1.5 1.1-.4.5-.7 1-.9 1.6-.2.6-.4 1.2-.4 1.9h9.1zM219.4 70c0-1.4.2-2.9.7-4.2.4-1.1 1-2.1 1.9-3 .8-.8 1.7-1.4 2.7-1.8 1-.4 2-.6 3.1-.6 2.1-.1 4.2.7 5.7 2.3 1.3 1.5 2 3.9 2 7v1.1H223c0 1.6.6 3.1 1.7 4.3 1.2 1.1 2.9 1.6 4.5 1.5 1 0 2-.1 2.9-.3.6-.1 1.2-.3 1.8-.6l.5 2.7c-.7.3-1.4.5-2.1.7-1.1.2-2.3.4-3.4.4-1.4 0-2.8-.2-4.1-.7-1.1-.4-2.1-1.1-2.9-2-.8-.9-1.3-1.9-1.7-3-.7-1.2-.8-2.5-.8-3.8M240.8 61.3c.8-.2 1.7-.4 3-.6 1.4-.2 2.9-.3 4.3-.3 1.2 0 2.5.2 3.6.6.9.4 1.7 1 2.3 1.7.6.8 1 1.7 1.2 2.7.2 1.1.4 2.3.4 3.4v10.3h-3.3v-9.6c0-1-.1-1.9-.2-2.9-.1-.7-.4-1.4-.8-1.9s-.8-.9-1.4-1.1c-.7-.2-1.4-.4-2.2-.3h-1.1c-.4 0-.7.1-1.1.1-.3 0-.6.1-.9.1-.3 0-.5.1-.6.1v15.5h-3.3l.1-17.8zM284 10.9v44.2c.2 15.5 12.9 27.8 28.4 27.6 15.2-.2 27.4-12.4 27.6-27.6V10.9h-56z"/>
    <path class="st3" d="M304.5 28.2c-.2-.4-1.3-1.4-5.4-3.6-2.4-1.4-2.8-2.5-2.9-3.2-.1-.6.6-1.3.7-1.9.1-.5-.2-1.1-.7-1-.6.1-1.2.1-1.8 0-.3 0-.6 0-.6.5 0 .3.1 1.3-.3 1.3-.5 0-1-.5-1.1-1.5 0-1-.7-1.4-1-1.4-.2 0-.6 0-.9.7-.3.8-.9.8-1.2 1.2-.3.4-.4.8.2 1.1.6.2.9.3 1 .8 0 .8-.9.6-1.5 1.1-.4.3.1.7.2 1 .1.3.1.8.4 1.1.3.3 1-.4 1.5-.5s1 0 .8.6c-.2.6-.8.4-.7 1 0 .4.4.4.7.7.3.3.5.9.9.7.4-.2.5-.6 1-.6s.8.4.6 1c-.2.6-.6.7-.4 1.3.2.7.3.2.6.1.4-.2.1.7.4 1.1.2.3.3-.3.5-.3.3 0 .1 1 .4.9s.4-.5.8-.4c.4.1 0 1.3.4 1.6.3.1.5-.4.8-.7.4-.3.7 0 .7.7s0 1.2.5 1c.6-.1 1.3-.6 1.4.1.1.7.2 1.2.5 1 .3-.1 1.4-1.5 2-1.8.7-.4-.1-.9-.6-.8-.5.1-.9.4-1 .2s.8-.4.6-.9c-.1-.5-.8-1.1-.4-1.5.4-.3.8 0 1.8-.2 1.1-.2 1.3-.1 1.1-.5M303.6 36.9c-1.7.7-3.3 1.7-4.6 2.9-2.3 1.9-3.6 2.8-4.4 2.7-1.1-.3-1-2.2-1.4-2.6-.2-.3-.6-.3-.9-.1-.1.1-.2.2-.2.3-.3.6-.7 1.2-1.3 1.5-.2.2-.3.6-.1.8l.2.2c.5.2 1.6.7 1.5 1.2-.1.5-.7.7-1.3.4-.5-.2-1.1-.1-1.5.3-.1.2-.1.4.4 1.1s.3.9.5 1.4c.1.3.4.7 1 .2.5-.4 1-.8 1.2-.4.5.8-1 1.5-.9 2.3.1.5.7.3 1.3.4.9.2.9.5 1.4.4.5-.1.4-1.1.3-2.2 0-.4.3-.7.7-.7.2 0 .5.1.6.3.4.5-.1 1 .6 1.4.4.2.6 0 1.2 0 .5 0 1.1 0 1.2-.4.1-.5-.5-1.6-.4-2.2.1-.4 1-1.1 1.5-.3.3.4.3 1.2.6 1.5.4.4 1.4-1.8 1.9-2 .5-.2.3.4.5.8.3.6.6.4.6.2 0-.8.4-1.3.7-1.3.4 0 1 1.4 1.3.9.1-.3.2-.6.2-.9 0-.6.3-.6.6-.6.7.1 1.5 1.2 1.9.9.3-.2-.2-1.8.3-2 .4-.2 1.2 1.2 1.9.8 0 0 .6.1.3-1.8-.3-1.8-.5-1.7-1-2.3-.5-.4-.7-1-.7-1.6 0-.5.1-1-1.2-.6-1.2.4-1.7.6-2 .5-.3-.1-.3-.5-.2-1.1.2-1 .3-1.2-.2-1-.9.2-1.5.4-2.1.7M288.9 18.3c.1.1.3.5.5.3.4-.3.7-.6.9-1 .1-.3.1-.4-.3-.4-.5-.1-.9-.2-1.4-.2-.2 0-.3.2-.2.4.1.3.3.6.5.9M288.6 24.4c.1 0 .5 0 .4-.2-.1-.4-.2-.8-.4-1.1-.1-.2-.2-.3-.4 0-.3.3-.5.6-.7 1-.1.1 0 .3.2.3h.9M291.7 27.4c.1-.1.4-.2.3-.4-.2-.3-.5-.6-.9-.8-.2-.1-.3-.1-.4.2-.1.4-.2.8-.2 1.2 0 .1.2.2.3.2.4-.1.7-.2.9-.4"/>
    <path class="st3" d="M296 17.6c0 .1.1.4-.1.5-.4.1-.7.1-1.1 0-.2-.1-.3-.1-.1-.4.2-.3.4-.7.6-1 .1-.1.2-.1.3 0 .2.3.3.6.4.9M289.4 47.2c.1-.1.5-.1.5-.3-.1-.4-.3-.9-.6-1.2-.2-.2-.3-.3-.5.1-.3.4-.5.8-.7 1.2-.1.2.1.3.3.3.3 0 .7 0 1-.1M293.6 50.7c.1-.1.3-.4.1-.5-.4-.2-.7-.3-1.1-.3-.2 0-.3 0-.2.4.1.4.2.8.4 1.2.1.1.2.1.4 0 0-.2.2-.5.4-.8M298.6 49.5c0-.1.1-.5-.1-.5-.4 0-.8 0-1.2.1-.2.1-.3.1-.1.4.2.3.5.7.8 1 .1.1.2 0 .3-.1v-.1c.1-.1.2-.4.3-.8M291.3 39.6c.1.1.4.1.4.3-.1.3-.3.7-.6.9-.2.1-.2.2-.4-.1-.2-.3-.3-.7-.5-1.1 0-.1.1-.2.2-.2.3 0 .6.1.9.2M292.1 66.6c.1-.1.5-.1.5-.3-.1-.4-.3-.9-.6-1.2-.2-.2-.3-.3-.5.1-.3.4-.5.8-.7 1.2-.1.2.1.3.3.3.3 0 .6 0 1-.1M296.4 69.4c.1-.1.3-.4.1-.5-.4-.2-.7-.3-1.1-.3-.2 0-.3 0-.2.4.1.4.2.8.4 1.2.1.1.2.1.4 0 0-.3.2-.6.4-.8M300.8 69.4c0-.1.2-.4-.1-.5-.4-.1-.8-.1-1.2-.1-.2.1-.3.1-.1.4.2.4.4.7.6 1.1.1.1.2.1.3 0 .2-.3.4-.6.5-.9M295.7 59.5c.1.1.3.3.2.4l-.9.6c-.2.1-.3.1-.3-.3V59c0-.1.2-.2.3-.1.2.2.5.4.7.6M315.7 24.7c0-.3.1-1.3-1.7-1.4-.8.1-1.6.1-2.4 0-.8-.1-1.4-.8-1.3-1.6.1-1.3.8-1.2 1.3-1.4.7-.3 1.3-.7 1.9-1.2.2-.2.5-.3.8-.3h7c.2 0 .4 0 .6.4s.3 1.3.8 1.3h.8c.6.1.2.7-.2 1.1-.3.7-.3 1.4 0 2.1.2.4.4.8.7 1.2.1.3.1.4-.3.5-.6.1-.7.5-.5.9.1.3.3.5.5.7.2.2.3.4.2.6-.2.3-.3.3-.8.4-.4.1-.5.8-.3 1.4s.6 1.3.5 2c-.1.4-.8 0-1.1.3-.4.3-.4 1.5-.2 2.1.1.6 0 .8-.2.8s-.8-.3-1-.4c-.2 0-.5 0-.4.5.1.8.1 1.7-.2 2.5-.2.4-.6.2-.8-.3-.3-.6-.4-1.9-.9-1.9-.4 0-1 .9-1.2 1.6-.2.5-.7.8-.9 0-.2-.8-.2-1.8-.6-1.6-.4.2-.3.9-1 1.6-.7.7-1.3 1.2-1.6 1.2s-.5-.2-.3-.9.1-1-.1-.9c-.1 0-.3-.1-.4.9-.1 1-.7 1.3-.4 2.1.3.8.7 1.2.3 1.3-.8.1-1.6-.3-2-1-.4-.7-.5-1.6-.3-2.3.2-.8.2-1.1-.2-.8-.6.4-1.2.7-1.9 1-.4.2-.9.3-1.3.2-.4 0-.3-.6 0-1 .6-.9 1.4-1.7 2.2-2.4 1.3-1.1 3.4-1.7 3.8-2.1.2-.3.1-.8-.5-.4-.6.3-2.4.6-3.6 1.6-.9.9-1.8 1.7-2.8 2.4-1.2.7-4.3 1.9-6.1 1.7-1.8-.2-2.3-.6-2-.7 1-.2 2-.6 3-1.1 1-.8 1.9-2.1 3-2.8.8-.6 1.8-1 2.8-1.2.9 0 1.1-.6 0-.6-1 0-2 .4-2.6.2-.6-.2-1-.7-.9-1.1.1-.4.5-.4 1.2-.5 1.1-.2 1.2-.6 2-.6.9 0 2.3.3 2.3.1s-.1-.4-.7-.6c-.4-.1-.8-.3-1.2-.5-.3-.2-.1-.4 0-.4.6-.2 1.3-.1 1.9.1.9.5 1.8.8 2.8.9 1.7.1 2.3 0 2.4-.4.1-.4-.5-.9-1.2-.9-1 0-.8-1-.4-1.1.8-.1 1.5-.1 2.3 0 .6-.2 1.2-.6 1.4-1.3M320.4 68.8c.2 0 .5.1.6-.2 0-.5-.1-.9-.3-1.3-.1-.2-.2-.3-.5 0-.4.3-.7.6-1 1-.1.1 0 .3.1.4h.1c.3 0 .6.1 1 .1M327.7 70.1c0-.1.2-.4 0-.5-.4-.1-.8-.1-1.2-.1-.2.1-.3.1-.2.4.2.4.4.7.6 1.1.1.1.3.1.3 0 .3-.3.4-.6.5-.9M332.3 68.2c0-.1-.1-.5-.3-.4-.4.1-.7.3-1.1.5-.2.2-.2.2.1.4.3.2.7.4 1.1.6.1.1.3-.1.3-.2 0-.2 0-.5-.1-.9M322.5 62c.1.1.4.1.4.3-.1.3-.3.7-.6.9-.2.1-.2.2-.4-.1-.2-.3-.3-.7-.5-1.1 0-.1.1-.2.2-.2.4.1.6.1.9.2"/>
    <path class="st3" d="M313.2 48.7c-2.4.2-4.7.7-6.9 1.7-1.5.6-2.1 1.1-3.3 1.1-.4-.1-.8.1-.9.5-.1.4.1.7.4.9.6.3 1.2.6 1.8 1 .7.6 1.1 1.5 1 2.4-.1 1.1-.7 1.4-2 2.2-.7.4-1.3.9-1.8 1.5-.9.8-2 1.3-3.1 1.7-.3.1-.8.1-.9-.7-.1-.7-.2-1-.4-1.2-.2-.2-.5-.4-.7 0-.3.4-.3.6-.8.8-.5.2-.9.2-1.2.5-.3.2-.3.5.1.8.3.2.6.5.8.8.2.4 0 .8-.6.8-.5-.1-1.1-.2-1.6-.2s-1 .4-.9 1c.2.7.3.6.6 1 .4.6.1.7.3 1.1.1.2.5.4.9 0s.5-.5.9-.6c.5-.1.5.2.6.5s-.3.4-.4.7c-.1.3 0 .7.5.9.6.3 1.2.4 1.8.1.2-.1.1-.3.1-.7 0-.4.2-.7.4-1 .3-.2.6-.1.8.1 0 0 .1.1.1.2.2.4-.1.8-.2 1.2 0 .4.4.4 1.3.3.9-.1 1.2.3 1.4-.2.1-.6.1-1.2-.1-1.7-.4-.8.2-1.4 1-.7.8.8 1.1.8 1.6.9.5.1.4-.3.2-.4-.3-.3-.4-.9-.1-1 .3-.1.6 0 1.2.1.8.1 1.5.1 2.3-.1.2-.2-.4-.7-.4-1 0-.3.3-.4.6-.4.4 0 1.3.2 1.4.1.2-.1-.2-.4-.4-.6-.3-.4.4-.7 1-.5.2.1.9.5 1.2.4.3-.1.1-.5 0-.6-.2-.4.2-.8.7-.8.5 0 1 .4 1.2.4.2 0 0-.5-.1-.9-.2-.4-.1-.8.2-1 .4-.3.9.1 1.1 0 .2-.1.2-.4.2-.8 0-.6-.9-3-.9-3.4 0-.5.3-1.9 1.2-2.2 1.2-.3 2.4-.5 3.6-.6 1-.2 2-.4 2.9-.9.3-.2.4-.7-.3-.7-.7.1-1.1.3-1.2.1-.1-.2.4-.4 1.2-.6 1.5-.4 1.2-1.1-.1-.8-1.2.3-1.6.5-1.7.2-.1-.2 1.1-.6 1.9-.8 1.1-.3 1.6-1.4-.8-.8-.6.1-.8 0-.5-.2.3-.2.7-.4 1-.5 1.1-.4.4-.9-.8-.4-.8.4-1.4.3-.9 0 .5-.3 1-.6 1.3-.7.6-.3.3-1-.7-.4-1.9 1.3-4 2-6.1 2.1"/>
    <path class="st3" d="M322.5 47.8c-.2-.4-.5-.7-.8-.7-.2 0-.4.2-.4.4 0 .1 0 .2.1.3.3.4.5.8.8 1 .3.2.5 0 .5-.4 0-.2-.1-.4-.2-.6"/>
    <path class="st3" d="M334.2 58.5c.5-.3.8-.8.9-1.3 0-.3-.2-.4-.4-.2s-.5.2-.7.1c-.1-.1-.4-.3.3-1.3.6-.9.6-1.4.3-1.7-.2-.2-.5-.3-.8-.2-.5.1-.8.4-1.2.3-.8-.3-.6-.8-1.3-.9-.6-.1-1.7.4-2.3 0-.7-.4-1-1-.7-2.4.1-.5.2-1 .2-1.5 0-.3.1-.6.3-.8.4-.6.9-1 1.4-1.4.7-.4 2.3-1.6 3.5-1.3 2.1.4 1.7-.4 1-1.2-.5-.5-.3-.7-.1-1.1.2-.6.3-1.1.4-1.7.2-1.1.1-2.2-.1-3.3-.3-.8-.3-1.8 0-2.6.4-.6.6-1.5-.5-.9-.4.2-.5.3-.5.2-.1-.2-.6-1-1.3-2.1-1.3-1.9-2.5-4-3.6-6-.8-1.7-1-2.5-.8-3.6.2-.9.7-1.7 1.4-2.4.3-.2.4-.4.7 0 .3.7.9 1.2 1.6 1.3.8.1 1.5.4 2.2.9.3.2.5-.1.5-1s.2-1.5-.5-2.1c-.7-.6-1-.6-.5-1.1.5-.5.8-1.2.7-1.9 0-1-.7-1.7-.9-1.6-.2.1-.2.6-.8 1.2-.5.5-1.4.9-2.3 1.6-.9.7-1.8 1.5-2.5 2.4-.6.8-1 1.6-1.2 2.6-.2 1.4.1 2.8.7 4 .7 1.7 1.6 3.4 2.7 4.9.9 1.3 1.7 2.6 2.4 4 0 .1 0 .1-.1.1-.9.6-1.8 1.2-2.6 1.9s-1.4 1.7-1.5 2.7c-.1.8.3 1.6.9 2.1.8.8 1.2 1 1.3 1.6.1.7-.6 1.4-1.6 1.4-.3 0-.6-.1-.8-.3-.4-.4-.8-.8-1.3-1.2-1.5-1.1-2.8-2.2-4.3-3.4-.9-.8-1.8-1.8-2.4-2.8-.5-.5-.9-1-1.1-1.6 0-.2-.2-.3-.4-.3-.1 0-.1.1-.2.1-.3.4-.5.8-.7 1.3-.1.4-.6 1-1.1.2-.5-.8-.5-1.3-.9-1.1-.4.2-.5.7-1.1 1.3-.5.5-1.2.8-1.3 1-.3.4-.3 1 0 1.4.3.6.1 1-.3.9-.3-.1-.6-.2-.8-.3 0 0-.6-.4-.8-.1-.3 1.1.1 2.2 1.1 2.9 1.3 1 2.8 1.5 4.5 1.5 1.9.1 3.8.6 5.5 1.4.8.7 1.1 1.7.7 2.7-.5.8-.9 1.6-1.3 2.4 0 .7 0 1.4.1 2.1 0 1.2-.4 1.2-.6 1.7-.2.6.3 1.2 1.3.8.6-.4 1.4-.4 2.1-.1.6.3 2.6 1.2 2.7 2.6s-.5 1.9-.5 2.8c-.1.8.4 1.6-.1 1.9-.4.3-1 .3-1.4-.1-.1-.1-.1-.2-.1-.2-.4-.7-.7-1.3-1.1-1.4-.4-.1-.8.1-.9.5-.2.4-.4.8-.8 1.1-.2.3-.2.6 0 .9l.1.1c.3.2.9.1 1.1.4.2.2.2.5 0 .7-.2.3-.5.4-1.3.1-.3-.2-.7-.2-1 0-.3.1-.4.5-.3.9.2.3.3.6.4 1 .1.6 0 1.1.3 1.3.4.3.8.2 1.4-.3.6-.6 1.1-1.2 1.6-1.4.2-.1.5-.1.8.4.1.3.1.6.1.9 0 .3 0 .6.5.5.2-.1.5-.1.7-.2.4 0 .7 0 1.1.2.5.2.9.1.8-.4-.1-.5-.2-1.1-.2-1.6 0-.6.4-.8.7-.6.3.3.5.7.5 1.2 0 .2.2.7.8.3.6-.3.6-.5 1-.6.7-.1 1.1-.2 1.1-.9 0-.6-.5-.6-.6-1-.1-.3 0-.4.6-.7.6-.4 1.1-.9 1.4-1.6.3-.5 0-.5-.3-.5s-.4-.4 0-.8c.5-.5.9-1 1.2-1.5.3-.5.1-.8-.4-.7-.4.1-.8-.2-1-.5-.1-.4 0-.5.6-1zM329.6 41c-.1-.5.1-1 .4-1.4.4-.5.9-.9 1.4-1.3.4-.3 1-.7 1.4-.9h.1c.3 1 .4 2.1.4 3.2 0 .9-.2 1.8-.5 2.6-.2.2-.6.3-.7-.3.1-.7 0-1.4-.3-2-.5-1.4-.8-1.7-1.1-1.6-.4.2-.7.5-.7.9-.1.4.5 1.4.4 1.7-.1.4-.7.1-.8-.9z"/>
    <path class="st3" d="M329.3 38c-.5.3-.9.1-1.3-.6-1-1.5-1.7-3.1-2-4.8-.2-1.2-.1-2.5.3-3.7.4-.7.6-.6.8-.6s.5.5.3 1.3c-.2.9-.3 1.8-.2 2.7.1.4.1.8.5.5.4-.3.6-.3.6 0s-.3 1.9 0 2.3c.3.4.7.1.9 0 .3 0 .5.1.3.4s-.4.6-.3 1l.3 1.2s-.1.2-.2.3M332.4 25.7c1.2.5 1.2.7 1.8.6.5-.1 1-.1 1.2.2s.2.6-.2 1c-.3.4-.5.6-.4 1 0 .3.4 1.9-.1 2.5-.5.6-.7 1-.9.8s-.3-.9-.5-1.4c-.1-.4-.5-.8-.9-.9-.4-.1-1 .1-1-.3s.4-.4.7-.8c.2-.3.3-.7.1-1.1-.2-.6-.9-.9-1.5-.7-.8.1-1.1.2-1.2-.1-.1-.3 0-.4.4-.7.8-.3 1.7-.4 2.5-.1"/>
    <path class="st6" d="M315 20c-.4.1-.6.3-.6.5.1.3.2.3.8.3h.9c.1 0 .2 0 0-.2-.3-.4-.7-.6-1.1-.6"/>
    <path class="st3" d="M312 24.4c-.9-.1-1.7-.1-4.6-1.7-3.2-1.8-2.7-.6-2.6-.1.3 1.1 1.1 2.1 2.2 2.5 1.3.4 2.6.4 3.9.2 1-.1 2.3-.1 2.6-.1.7 0 .9-.6-.1-.6-.3-.1-.5-.1-1.4-.2M322.9 15.3c-.2.1-.1.2-.8.3-.6 0-1.2.2-1.7.6-.2.2-.3.5-.3.7 0 .2-.1.6-.6.4-.6-.1-.5-.8-.4-1.1 0-.4-.2-.7-.6-.7h-.1c-.4 0-.4-.2-.5-.3-.1-.2-.1-.4-.2-.5-.1-.1-.1-.2-.1-.2s-.1 0-.1.2c0 .1-.1.3-.2.5-.1.1-.1.3-.5.3s-.7.3-.7.7v.1c0 .2.1 1-.4 1.1-.6.1-.7-.3-.6-.4 0-.3-.1-.5-.3-.7-.5-.4-1.1-.6-1.7-.6-.6-.1-.5-.2-.8-.3-.5-.2-.5.3-.1.8.4.6.8 1.3 1.1 2 .2.5.9.4.9.4h6.7s.7.1.9-.4c.3-.7.6-1.4 1.1-2 .5-.6.4-1.1 0-.9"/>
    <path class="st6" d="m298.1 28.7.2-.2c.1-.1.2-.1.2-.2s-.1-.2-.2-.2h-.1l-.3.3c-.1.1-.1.2 0 .3h.2M298.8 29.4l.2-.2c.1-.1.2-.1.2-.2s-.1-.2-.2-.2h-.1l-.3.3c-.1.1-.1.2 0 .3h.2M299.7 30c.1 0 .2-.1.2-.1.1-.1.2-.1.2-.2s-.1-.3-.3-.1c-.1.1-.3.2-.3.3-.1.1 0 .2.2.1M300.5 30.8c.1-.1.2-.1.3-.2l.3-.3c.1-.2 0-.4-.5-.2-.2.1-.4.3-.4.5-.1.1 0 .3.3.2M304 43s-.1-.1-.2-.3-.1-.2-.3-.2c-.1 0-.2.1-.2.2s0 .1.1.2.2.3.3.4c.1.1.2.1.3 0 .1-.1.1-.2 0-.3M303.2 43.6s-.1-.1-.2-.3-.1-.2-.3-.2c-.1 0-.2.1-.2.2s0 .1.1.2.2.3.3.4c.1.1.2.1.3 0v-.3M305.3 42.6s-.1-.2-.2-.3-.1-.3-.3-.3c-.1 0-.4.1-.3.4.1.2.2.3.3.5.2.1.5 0 .5-.3M307.8 41.6c0-.1-.1-.3-.1-.4-.1-.3-.1-.4-.3-.4-.2-.1-.5-.1-.4.3.1.3.2.5.4.7.2.2.4.2.4-.2M320.6 44.1c-.1 0-.2.1-.3.2-.2.1-.3.1-.3.3 0 .2 0 .4.3.3.2-.1.4-.2.5-.4.1-.2.1-.4-.2-.4M306.5 42.2c0-.1-.1-.3-.1-.4-.1-.3-.1-.4-.3-.4-.2-.1-.5-.1-.4.3.1.3.2.5.4.7.2.2.4.2.4-.2M309.1 41.1c0-.1-.1-.3-.2-.4-.2-.2-.2-.3-.4-.4-.2-.1-.5-.1-.3.5.1.3.3.5.5.6.3.1.5.1.4-.3M305.7 62.4s-.1-.1-.2-.3-.1-.2-.3-.2c-.1 0-.2.1-.2.2s0 .1.1.2.2.3.3.4c.1.1.2.1.3 0v-.3M304.7 63s-.1-.1-.2-.3c-.1-.1-.1-.2-.3-.2-.1 0-.2.1-.2.2s0 .1.1.2.2.3.3.4c.1.1.2.1.3 0V63M307 61.9s-.1-.2-.2-.3-.1-.3-.3-.3-.4.1-.2.4c.1.2.2.3.3.5.1.1.4 0 .4-.3M309.9 60.6c0-.1-.1-.3-.1-.4-.1-.3-.1-.4-.3-.4-.2-.1-.5-.1-.4.3.1.3.2.5.4.7.2.2.4.2.4-.2M308.5 61.4c0-.1-.1-.3-.1-.4-.1-.3-.1-.4-.3-.4-.2-.1-.5-.1-.4.3.1.3.2.5.4.7.2.1.4.2.4-.2M311.3 59.7c0-.1-.1-.3-.2-.4-.2-.2-.2-.3-.4-.4-.2-.1-.5-.1-.3.5.1.3.3.5.5.6.2.1.5 0 .4-.3M319.5 43.5c-.1 0-.2.1-.3.2-.2.1-.2.1-.3.3-.1.2-.1.4.4.3.2-.1.4-.2.5-.4 0-.3 0-.5-.3-.4M321.2 23s-.5 0-.6.2c-.1.1-.3.5.3.4.3 0 .7-.1 1-.2.2-.1.6-.4.2-.5s-.6.1-.9.1M321.3 24.5s-.5 0-.6.2c-.1.1-.3.5.3.4.2 0 .4 0 .6-.1.2-.1.6-.4.2-.4-.1-.1-.3-.1-.5-.1M321.3 26.4s.5.1.6 0 .4-.4-.2-.5h-.6c-.3 0-.7.3-.3.4.2.1.3.1.5.1M310.4 53.2s-.5 0-.6.2c-.1.1-.3.5.3.4.3 0 .7-.1 1-.2.2-.1.6-.4.2-.5-.4 0-.6.1-.9.1M310.6 54.4s-.5 0-.6.2c-.1.1-.3.5.3.4.2 0 .4 0 .6-.1.2-.1.6-.4.2-.4-.2-.1-.3-.1-.5-.1M310.9 56.1s.4-.2.5-.3c.1-.2.1-.5-.4-.3-.2.1-.4.2-.5.3-.2.1-.5.6-.1.5.2-.1.3-.1.5-.2M331 56.4s-.5 0-.6.2c-.1.1-.3.5.3.4.3 0 .7-.1 1-.2.2-.1.6-.4.2-.5-.4 0-.6.1-.9.1M331.2 57.6s-.5 0-.6.2-.3.5.3.4c.2 0 .4 0 .6-.1.2-.1.6-.4.2-.4-.2-.1-.4-.1-.5-.1M331.7 60.8s-.5 0-.6.2-.3.5.3.4c.2 0 .4 0 .6-.1.2-.1.6-.4.2-.4-.2-.1-.3-.1-.5-.1M331.4 59.6s.5 0 .6-.2.3-.5-.3-.4c-.2 0-.4 0-.6.1-.2.1-.6.4-.2.4.2.1.3.1.5.1M321.2 27.2s-.5-.1-.6 0c-.2.1-.4.4.1.5.2 0 .4.1.6.1.3 0 .7-.1.3-.3 0-.1-.2-.2-.4-.3M320.9 29s-.4-.2-.6-.2c-.2 0-.5.3 0 .5.2.1.4.2.6.2.2.1.7.1.4-.2-.1-.1-.2-.2-.4-.3M320.3 30.7c-.2-.1-.4-.2-.7-.2-.2 0-.5.2 0 .5.2.1.4.2.7.3.3.1.8.1.4-.2 0-.2-.2-.3-.4-.4M319.5 32.2s-.5-.4-.6-.4c-.2 0-.5.2 0 .5.2.1.4.3.6.4.3.1.7.3.5-.1-.2-.2-.3-.3-.5-.4M314.6 42.1c.4-.1.8-.2 1.2-.4.2-.2.3-.5-.1-.4s-1.2.4-1.5.5c-.3.1-.3.4 0 .4.1 0 .3-.1.4-.1M315.7 43c.4-.1.8-.3 1.2-.4.2-.2.3-.6-.1-.4s-1.2.5-1.5.6c-.3.1-.3.4 0 .4.1-.1.3-.1.4-.2M317.4 43.6c.4-.1.7-.3 1.1-.6.2-.2.2-.5-.2-.4s-1.2.6-1.4.7-.3.4 0 .4c.2.1.4 0 .5-.1"/>
    <path class="st7" d="M98.9 117.6c0 2.5-2 4.5-4.5 4.5s-4.5-2-4.5-4.5 2-4.5 4.5-4.5c2.4 0 4.4 2 4.5 4.5zm8.9 16.2H87.2v-2.7h20.7v-1.8c0-2.5-2-4.5-4.5-4.5h-18c-2.5 0-4.5 2-4.5 4.5v9.9h20.7v2.7H80.9v1.8c0 2.5 2 4.5 4.5 4.5h18c2.5 0 4.5-2 4.5-4.5l-.1-9.9zM130.6 133.9V132h-9.2v16.1h2.3v-7.7h5.8v-1.9h-5.8v-4.6h6.9z"/>
    <path class="st8" d="M135.7 132.6c0-.8-.6-1.5-1.4-1.6-.8 0-1.5.6-1.6 1.4 0 .8.6 1.5 1.4 1.6h.1c.8 0 1.4-.6 1.5-1.4zm-.1 15.5v-11.8h-3.8v1.5c.4 0 1.1.1 1.5.2v10.1h2.3z"/>
    <path class="st7" d="M149.3 148.1V140c.2-1.9-1.2-3.6-3.1-3.8h-.7c-1.5-.1-2.9.6-3.7 1.9v-1.6h-2.2v11.8h2.3v-6.8c-.1-1.7 1.2-3.2 2.9-3.2 1.5 0 2.3.8 2.3 2.6v7.5l2.2-.3z"/>
    <path class="st8" d="M161.4 148.1V140c0-2.7-1.4-3.9-4.5-3.9-1.3 0-2.5.2-3.7.5v1.8c1.1-.4 2.2-.6 3.3-.7 2.1 0 2.7.7 2.7 2.2v.6H158c-1.1 0-2.3.2-3.4.5-1.5.5-2.5 2-2.4 3.6 0 2.6 1.6 3.6 3.6 3.6 1.2 0 2.5-.4 3.4-1.2v1l2.2.1zm-2.2-2.6c-.7.7-1.7 1.1-2.7 1.1-1 .1-1.9-.5-2-1.5v-.4c0-1.8 1.3-2.4 3.9-2.4h.8v3.2z"/>
    <path class="st7" d="M174.9 148.1V140c.2-1.9-1.2-3.6-3.1-3.8h-.7c-1.5-.1-2.9.6-3.7 1.9v-1.6h-2.2v11.8h2.3v-6.8c-.1-1.7 1.2-3.2 2.9-3.2 1.5 0 2.3.8 2.3 2.6v7.5l2.2-.3zM186.9 148.1v-1.8h-6.8c.7-1 1.9-2.6 3.1-4.2 1.4-1.7 2.9-3.4 3.4-4.1v-1.7h-8.8v1.8h6.1c-.5.6-1.6 1.9-2.9 3.5-1.5 2-2.9 3.9-3.4 4.7v1.7l9.3.1z"/>
    <path class="st8" d="M199 148.1v-11.8h-2.2v1c-.8-.9-2-1.3-3.2-1.2-2.7 0-4.8 2.2-4.8 6.1 0 4.2 2 6 4.7 6 1.4.1 2.7-.6 3.4-1.7v1.8c0 2-1.1 3-3.4 3-1 0-1.9-.1-2.8-.4l-.4 1.7c1.2.3 2.4.4 3.7.4 1.4.1 2.8-.4 3.9-1.3.8-.9 1.2-2.2 1.1-3.6zm-2.2-5.4c0 2.2-1.1 3.7-2.8 3.7-2.2 0-2.8-2-2.8-4.1 0-2.7 1.2-4.2 3-4.2 1 0 1.9.4 2.6 1.1v3.5z"/>
    <path class="st7" d="M209.2 138.5v-2.1c-.3 0-.6-.1-.9-.1-1.5 0-2.8.9-3.3 2.3v-2.2h-2.2v11.8h2.3v-6.4c0-1.8 1.5-3.3 3.3-3.3h.1c.2-.1.5-.1.7 0zM221.1 148.1v-11.8h-2.3v6.9c.1 1.7-1.3 3.2-3 3.2-1.5 0-2.2-.7-2.2-2.5v-7.6h-2.3v8.1c0 2.6 1.4 3.9 3.8 3.9 1.5.1 2.9-.6 3.7-1.9v1.6l2.3.1z"/>
    <path class="st8" d="M235.2 142.1c0-3.9-1.7-6-4.6-6-1.5-.1-2.8.7-3.5 2v-1.7h-2.2v16.5h2.3v-5.4c.8.7 1.9 1 3 1 3.3-.1 5-2.4 5-6.4zm-2.4 0c0 .8-.1 1.6-.3 2.3-.3 1.3-1.5 2.1-2.8 2.1-1 0-1.9-.4-2.5-1.1v-3c0-2.6 1-4.4 2.9-4.4 2 0 2.7 1.8 2.7 4.1zM248.8 142.1c0-3.9-1.7-6-4.6-6-1.5-.1-2.8.7-3.5 2v-1.7h-2.2v16.5h2.3v-5.4c.8.7 1.9 1 3 1 3.3-.1 5-2.4 5-6.4zm-2.4 0c0 .8-.1 1.6-.3 2.3-.3 1.3-1.5 2.1-2.8 2.1-1 0-1.9-.4-2.5-1.1v-3c0-2.6 1-4.4 2.9-4.4 2 0 2.7 1.8 2.7 4.1zM261.6 141.6c0-3.5-1.6-5.5-4.7-5.5-3.4 0-5.2 2.5-5.2 6.2 0 3.8 2 6.1 5.6 6.1 1.2 0 2.4-.1 3.6-.4l-.4-1.7c-.9.2-1.9.4-2.8.4-2.3 0-3.4-1.3-3.6-3.7h7.5c-.1-.5 0-.9 0-1.4zm-2.4-.3H254c.1-2.3 1-3.6 2.8-3.6 1.6 0 2.4 1.1 2.4 3v.6z"/>
  </g>
</svg>