<svg xmlns:xlink="http://www.w3.org/1999/xlink" xmlns="http://www.w3.org/2000/svg" width="359" height="61" viewBox="0 0 359 61" fill="none">
<path d="M7.24928 52.845H34.3793C38.1293 52.845 41.1293 49.835 41.1293 46.085V31.175H9.93929V27.115H41.1283V24.415C41.1283 20.665 38.1183 17.655 34.3783 17.655H7.24828C3.49828 17.655 0.488281 20.665 0.488281 24.415V39.325H31.6083V43.386H0.488281V46.086C0.489281 49.835 3.49928 52.845 7.24928 52.845ZM13.9993 6.815C13.9993 10.565 17.0493 13.575 20.7893 13.575C24.5293 13.575 27.5493 10.565 27.5493 6.815C27.5493 3.065 24.5393 0.0549927 20.7893 0.0549927C17.0393 0.0549927 13.9993 3.075 13.9993 6.815Z" fill="#E30613"/>
<path d="M80.8787 40.705C80.8787 32.624 76.7487 28.525 69.8187 28.525H62.6387V52.855H69.8187C76.7187 52.845 80.8787 48.785 80.8787 40.705ZM77.0987 40.705C77.0987 46.864 74.3987 49.944 69.8487 49.944H66.1387V31.424H69.8587C74.3987 31.425 77.0987 34.545 77.0987 40.705ZM89.8387 29.535C89.8387 28.345 88.8187 27.405 87.6287 27.405C86.3997 27.405 85.3897 28.355 85.3897 29.535C85.3897 30.695 86.3997 31.635 87.6287 31.635C88.8187 31.635 89.8387 30.695 89.8387 29.535ZM89.7287 52.845V35.135H84.0187V37.375C84.6887 37.415 85.6987 37.545 86.3287 37.654V52.844H89.7287V52.845ZM105.379 38.355V35.135C105.169 35.095 104.709 35.035 104.049 35.035C101.77 35.035 100.02 36.465 99.0387 38.495L98.9687 35.135H95.7087V52.845H99.1087V43.255C99.1087 41.055 100.758 38.255 104.149 38.255C104.68 38.255 105.199 38.325 105.379 38.355Z" fill="#E30613"/>
<path d="M122.378 42.975C122.378 37.655 119.958 34.715 115.238 34.715C110.158 34.715 107.398 38.495 107.398 44.025C107.398 49.655 110.478 53.265 115.868 53.265C118.108 53.265 119.788 53.055 121.258 52.605L120.588 50.015C119.578 50.295 117.889 50.575 116.349 50.575C112.949 50.575 111.269 48.615 110.989 45.046H122.299C122.348 44.445 122.378 43.715 122.378 42.975ZM118.808 42.595H110.928C111.138 39.205 112.507 37.205 115.167 37.205C117.657 37.205 118.808 38.885 118.808 41.785V42.595ZM142.018 52.845C139.707 49.305 136.698 45.355 133.757 42.795L141.217 35.125H137.117L130.497 41.984V27.104H127.098V52.834H130.497V44.124C133.297 46.823 135.917 50.214 137.747 52.834H142.018V52.845ZM154.298 52.675L153.708 50.154C153.288 50.295 152.269 50.465 151.398 50.465C149.578 50.465 148.877 49.585 148.877 47.565V37.795H153.457V35.135H148.877V29.675C147.688 30.265 146.428 30.825 145.478 31.175V35.135H142.707V37.795H145.478V47.944C145.478 51.234 146.908 53.194 150.448 53.194C151.848 53.195 153.218 52.995 154.298 52.675ZM175.578 28.525H171.898C170.608 33.105 168.608 39.795 165.248 48.125C161.849 39.795 159.858 33.075 158.599 28.525H154.788C156.958 36.225 160.599 46.345 163.718 52.855H166.658C169.768 46.335 173.408 36.225 175.578 28.525Z" fill="#E30613"/>
<path d="M191.2 42.975C191.2 37.655 188.79 34.715 184.059 34.715C178.98 34.715 176.219 38.495 176.219 44.025C176.219 49.655 179.299 53.265 184.69 53.265C186.929 53.265 188.61 53.055 190.08 52.605L189.42 50.015C188.4 50.295 186.72 50.575 185.191 50.575C181.791 50.575 180.111 48.615 179.831 45.046H191.141C191.17 44.445 191.2 43.715 191.2 42.975ZM187.63 42.595H179.75C179.96 39.205 181.33 37.205 183.99 37.205C186.469 37.205 187.63 38.885 187.63 41.785V42.595ZM205.559 38.355V35.135C205.349 35.095 204.889 35.035 204.229 35.035C201.959 35.035 200.209 36.465 199.229 38.495L199.16 35.135H195.9V52.845H199.299V43.255C199.299 41.055 200.94 38.255 204.339 38.255C204.85 38.255 205.38 38.325 205.559 38.355ZM220.95 47.845C220.95 44.555 218.78 43.465 215.59 42.485C212.93 41.645 211.32 41.195 211.32 39.685C211.32 38.215 212.4 37.485 214.75 37.485C216.71 37.485 218.36 37.796 219.82 38.286V35.485C218.53 35.095 216.84 34.786 214.53 34.786C210.61 34.786 207.979 36.605 207.979 39.966C207.979 43.046 210.12 44.066 212.99 45.006C215.4 45.806 217.469 46.226 217.469 48.046C217.469 49.546 216.419 50.456 213.549 50.456C210.999 50.456 209.169 49.726 208.369 49.405L207.459 51.956C208.439 52.405 210.569 53.176 213.759 53.176C218.12 53.195 220.95 51.445 220.95 47.845ZM229.39 29.535C229.39 28.345 228.37 27.405 227.18 27.405C225.96 27.405 224.941 28.355 224.941 29.535C224.941 30.695 225.961 31.635 227.18 31.635C228.37 31.635 229.39 30.695 229.39 29.535ZM229.28 52.845V35.135H223.57V37.375C224.24 37.415 225.25 37.545 225.88 37.654V52.844H229.28V52.845ZM247.87 52.285L247.07 49.625C246.509 49.835 245.07 50.255 243.29 50.255C239.86 50.255 238.08 48.225 238.08 43.984C238.08 39.644 239.97 37.684 243.54 37.684C245.01 37.684 246.51 38.064 247.25 38.274V35.474C246.93 35.334 245.22 34.844 242.91 34.844C237.479 34.844 234.44 38.344 234.44 44.014C234.44 49.684 237.419 53.115 242.769 53.115C245 53.125 246.57 52.745 247.87 52.285ZM266.14 52.845V40.555C266.14 36.955 264.071 34.785 260.401 34.785C257.741 34.785 255.921 35.864 254.911 37.484V27.124H251.511V52.854H254.911V42.555C254.911 39.855 256.871 37.695 259.361 37.695C261.631 37.695 262.751 38.885 262.751 41.546V52.856H266.141V52.845H266.14ZM285.91 42.975C285.91 37.655 283.5 34.715 278.769 34.715C273.7 34.715 270.929 38.495 270.929 44.025C270.929 49.655 274.009 53.265 279.4 53.265C281.639 53.265 283.32 53.055 284.79 52.605L284.12 50.015C283.099 50.295 281.42 50.575 279.89 50.575C276.5 50.575 274.821 48.615 274.531 45.046H285.831C285.88 44.445 285.91 43.715 285.91 42.975ZM282.34 42.595H274.46C274.67 39.205 276.03 37.205 278.69 37.205C281.179 37.205 282.33 38.885 282.33 41.785V42.595H282.34ZM300.26 38.355V35.135C300.05 35.095 299.6 35.035 298.93 35.035C296.66 35.035 294.91 36.465 293.93 38.495L293.86 35.135H290.61V52.845H294V43.255C294 41.055 295.64 38.255 299.04 38.255C299.559 38.255 300.09 38.325 300.26 38.355ZM318.07 52.845V35.135H314.679V45.465C314.679 48.125 312.719 50.335 310.2 50.335C307.929 50.335 306.84 49.245 306.84 46.625V35.145H303.45V47.365C303.45 51.256 305.51 53.206 309.15 53.206C311.74 53.206 313.7 52.086 314.75 50.376L314.79 52.855H318.07V52.845ZM338.41 52.845V40.555C338.41 36.955 336.34 34.785 332.67 34.785C330.08 34.785 328.15 35.944 327.1 37.614L327.031 35.125H323.77V52.835H327.17V42.555C327.17 39.855 329.13 37.695 331.62 37.695C333.89 37.695 335.01 38.885 335.01 41.546V52.856H338.41V52.845ZM358.64 52.885V35.135H355.39L355.321 36.635C354.341 35.585 352.871 34.785 350.451 34.785C346.43 34.785 343.201 38.114 343.201 43.995C343.201 50.335 346.14 52.955 350.201 52.955C352.511 52.955 354.121 52.154 355.281 50.364V53.094C355.281 56.134 353.671 57.604 350.131 57.604C348.281 57.604 346.841 57.294 345.861 57.044L345.34 59.634C346.39 59.884 348.18 60.264 350.84 60.264C353.39 60.264 355.43 59.634 356.75 58.334C357.979 57.115 358.64 55.405 358.64 52.885ZM355.25 44.655C355.25 47.975 353.64 50.225 351.05 50.225C347.73 50.225 346.89 47.286 346.89 43.996C346.89 39.966 348.75 37.655 351.411 37.655C353.371 37.655 354.461 38.536 355.261 39.336V44.655H355.25Z" fill="#E30613"/>
</svg>