<svg viewBox="0 0 279 40" xmlns:xlink="http://www.w3.org/1999/xlink" xmlns="http://www.w3.org/2000/svg" width="279" height="40" fill="none"><path fill-rule="evenodd" clip-rule="evenodd" d="m78.15 4.064-4.538 7.016h-18.83v.642H73.27l-4.151 6.973H54.824v.642H68.52l-4.237 6.93H54.61C53.797 34.011 47.078 40 39.203 40h-.257c-7.875 0-14.594-5.99-15.407-13.733h-9.673l-4.236-6.93h13.695v-.642H9.03L4.88 11.722h18.446v-.642H4.537L0 4.064h23.881L21.356 0h10.015l7.704 12.706L46.778 0h10.015l-2.525 4.064h23.881ZM30.985.727H22.64l16.477 26.524L55.51.727h-8.346l-8.088 13.348L30.985.727ZM44.51 25.07v-5.262l-5.435 8.77-5.436-8.77v5.262c0 2.951 2.397 5.262 5.436 5.262 3.038 0 5.435-2.31 5.435-5.262Zm24.18-7.06 3.296-5.56v-.044H54.054v-2.053h19.13L76.78 4.79H53.754l-8.56 13.861v6.418c0 3.336-2.696 5.946-6.12 5.989h-.042c-3.424-.043-6.12-2.653-6.12-5.99v-6.417l-8.56-13.86H1.327l3.595 5.56h19.13v2.054H6.163l3.296 5.562h14.637v2.096H10.956l3.338 5.519h9.887l.043.342c.642 7.487 7.104 13.39 14.722 13.39h.214c7.618 0 14.08-5.86 14.723-13.39l.042-.342h9.93l3.338-5.519H54.097v-2.053H68.69ZM155.572 0h-6.078l19.003 36.064L187.455 0h-5.992l-12.967 25.283L155.571 0Zm-35.095 4.791h-5.221V30.29h5.221v-11.68c0-4.62 0-10.181 6.72-10.181 5.349 0 5.991 2.952 5.991 7.315v14.588h5.222v-15.23c0-6.203-1.969-11.08-9.63-11.08-3.295 0-6.548 1.455-8.174 4.193h-.129V4.79Zm-33.596 0v14.674c0 6.974 3.467 11.722 11.47 11.722s11.47-4.748 11.47-11.722V4.791h-5.222V18.91c0 4.107-1.113 7.7-6.248 7.7-5.179 0-6.249-3.593-6.249-7.7V4.791H86.88Zm56.793 0h5.221v25.54h-5.221V4.791Zm66.08 12.835v.727h-20.714c.042 4.364 3.21 8.47 8.174 8.47 4.023 0 6.163-1.925 8.132-4.962l4.408 2.353c-2.568 4.406-7.319 6.973-12.583 6.973-8.302 0-13.353-5.86-13.353-13.39 0-7.83 4.451-13.733 13.225-13.733 8.645 0 12.711 5.99 12.711 13.562Zm-12.711-9.327c-4.066 0-7.062 2.738-7.704 6.375h15.194c-.642-3.808-3.296-6.375-7.49-6.375Zm21.87-3.508h-5.222V30.29h5.222V17.797c0-4.15.684-9.07 6.334-9.07 1.198 0 2.268.257 3.167 1.027l2.396-4.45c-1.283-.77-2.781-1.24-4.279-1.24-3.467 0-6.163 1.925-7.404 4.92h-.172V4.791h-.042Zm16.006 17.327h-4.665c.471 2.78 1.626 5.09 3.552 6.417 1.883 1.454 4.622 2.224 8.218 2.267 2.182.043 4.108-.256 5.863-.941 1.712-.684 3.038-1.669 3.98-2.952.942-1.283 1.412-2.695 1.455-4.15 0-1.497-.342-2.78-1.07-3.807-.727-1.027-1.754-1.797-3.081-2.353-1.284-.556-3.595-1.284-6.891-2.182l-.384-.109h-.001c-2.039-.576-3.28-.928-3.723-1.089-.813-.3-1.413-.727-1.798-1.198-.385-.427-.556-.984-.556-1.54 0-.898.471-1.668 1.412-2.31.899-.684 2.482-.984 4.622-.941 1.798.043 3.21.428 4.195 1.198.984.77 1.583 1.968 1.754 3.294h4.58c-.257-1.668-.771-3.636-1.541-4.663-.77-1.027-1.969-1.883-3.595-2.481-1.626-.6-3.51-.942-5.692-.984a14.127 14.127 0 0 0-4.066.47c-1.241.342-2.268.727-2.996 1.24a7.536 7.536 0 0 0-2.354 2.44 6.058 6.058 0 0 0-.899 3.208c-.042 1.24.3 2.438.942 3.508.685 1.07 1.669 1.882 2.996 2.524 1.327.599 3.723 1.326 7.147 2.225 2.568.641 4.152 1.197 4.793 1.582.899.6 1.327 1.412 1.327 2.396-.043 1.112-.556 2.096-1.626 2.91-1.07.812-2.696 1.197-4.836 1.154-2.14-.042-3.767-.556-4.965-1.497-1.155-.941-1.883-1.882-2.097-3.636Zm24.352-.3c0-3.55 3.51-6.417 7.276-6.417s7.275 1.711 7.275 6.417c0 4.749-3.509 6.417-7.275 6.417-3.766 0-7.276-2.866-7.276-6.417Zm15.536 6.845c-2.097 1.626-4.922 2.61-8.003 2.61-6.42 0-11.641-4.236-11.641-9.455 0-5.22 5.221-9.454 11.641-9.454 2.867 0 5.435.813 7.489 2.224V12.62c0-1.796-.428-3.08-1.327-3.807-1.198-.984-2.995-1.497-5.349-1.497-2.226 0-3.852.47-4.922 1.24-1.027.727-1.541 1.198-2.054 3.038l-4.879.085c.428-1.84 1.112-3.337 2.054-4.45.942-1.154 2.354-2.138 4.151-2.737 1.798-.642 3.895-.941 6.292-.941 2.354 0 4.279.385 5.777.898 1.498.514 2.44 1.198 3.125 1.968.684.77 1.326 1.797 1.583 2.995.171.77.214 2.096.214 4.064v5.904c0 2.483.016 5.39.028 7.687.008 1.501.015 2.742.015 3.436h-4.28l.007-.1c.041-.562.079-1.093.079-1.74Z" fill="#4770B4"/></svg>