<?xml version="1.0" encoding="UTF-8"?>
<svg id="Layer_1" data-name="Layer 1" xmlns="http://www.w3.org/2000/svg" viewBox="0 0 149.78 69.44">
  <defs>
    <style>
      .cls-1 {
        fill: #024589;
      }
    </style>
  </defs>
  <path class="cls-1" d="M35.38,69.44V0h-1.3v69.44h1.3Z"/>
  <path class="cls-1" d="M103.48,0v69.44h1.3V0h-1.3Z"/>
  <path class="cls-1" d="M7.06,13.32l-2.01,7.66-2.01-7.6v-.06H0l3.35,10.64.02.06h3.28l3.43-10.59.02-.1h-3.03Z"/>
  <path class="cls-1" d="M42.55,24.24c1.16,0,2.75-.21,3.76-1.22.6-.6.91-1.41.91-2.39,0-1.99-1.66-2.71-3.11-3.12-.33-.09-.65-.17-.96-.24-1.08-.26-2.02-.49-2.02-1.06,0-.2.07-.36.19-.48.29-.29.82-.33,1.05-.33.35,0,.99.06,1.35.44.19.19.27.44.26.73v.09h2.92v-.09c0-1.12-.48-2.03-1.37-2.66-.76-.53-1.8-.82-2.94-.82-2.17,0-4.38,1.01-4.38,3.29,0,1.96,1.59,2.68,3.15,3.12.28.08.55.15.81.21,1.15.29,2.15.55,2.15,1.23,0,.72-.82.99-1.59.99-1.27,0-1.85-.48-1.89-1.54v-.08h-2.92v.09c.01,2.4,1.75,3.84,4.66,3.84Z"/>
  <path class="cls-1" d="M52.26,24.02v-10.7h-2.92v10.7h2.92Z"/>
  <path class="cls-1" d="M59.99,24.24c2.96,0,4.98-1.72,5.13-4.38v-.09h-3.06v.08c-.12,1.2-.87,1.86-2.15,1.86-.67,0-1.23-.21-1.65-.63-.53-.53-.82-1.38-.82-2.4s.29-1.87.82-2.4c.42-.42.98-.63,1.65-.63,1.22,0,2,.56,2.14,1.54v.08h3.06v-.09c-.08-2.54-2.67-4.07-5.13-4.07-3.24,0-5.6,2.35-5.6,5.56,0,1.56.56,2.99,1.58,4,1.02,1.02,2.42,1.57,4.02,1.57h.01Z"/>
  <path class="cls-1" d="M70.37,24.02v-4.33h4.19v4.33h2.99v-10.7h-2.99v3.83h-4.19v-3.83h-3v10.7h3Z"/>
  <path class="cls-1" d="M89.1,24.02v-2.54h-5.78v-1.82h5.15v-2.3h-5.15v-1.65h5.63v-2.38h-8.56v10.7h8.71Z"/>
  <path class="cls-1" d="M94.49,24.02v-3.83h1.99c1.21,0,1.38,1.02,1.45,2.07,0,.08.16,1.77.16,1.77h2.81s-.21-2.28-.22-2.46c-.13-1.38-.6-2.25-1.41-2.54.94-.45,1.53-1.44,1.53-2.64,0-.81-.27-1.5-.78-2.02-.66-.66-1.73-1.03-2.99-1.03h-5.45v10.7h2.92-.02ZM94.49,17.89v-2.18h2.09c.44,0,.8.13,1.03.35.17.17.27.41.27.7,0,.76-.41,1.15-1.17,1.15h-2.22Z"/>
  <path class="cls-1" d="M100.67,37.59c-.13-1.38-.6-2.25-1.41-2.54.94-.45,1.53-1.44,1.53-2.64,0-.81-.27-1.5-.78-2.02-.66-.66-1.73-1.03-2.99-1.03h-5.45v10.7h2.92v-3.83h1.99c1.21,0,1.38,1.02,1.45,2.07,0,.08.16,1.77.16,1.77h2.81s-.21-2.28-.22-2.46h-.02ZM97.87,32.78c0,.76-.41,1.15-1.17,1.15h-2.21v-2.18h2.09c.44,0,.8.13,1.03.35.17.17.27.41.27.7h-.01Z"/>
  <path class="cls-1" d="M43.75,29.38l-3.06,3.86v-3.86h-2.64v10.69h2.64v-3.29l.91-1.06,2.35,4.34h3.31l-3.86-6.45,3.96-4.24h-3.61Z"/>
  <path class="cls-1" d="M64.92,40.06h2.61v-10.69h-2.59l-2.1,4.12-2.15-4.12h-2.56v10.69h2.6v-5.73l2.08,3.3h.03l2.07-3.23v5.66Z"/>
  <path class="cls-1" d="M76.46,29.38l-2.11,4.12-2.14-4.12h-2.56v10.69h2.6v-5.73l2.08,3.3h.03l2.06-3.23v5.66h2.63v-10.69h-2.59Z"/>
  <path class="cls-1" d="M84.05,37.53v-1.82h5.15v-2.3h-5.15v-1.66h5.63v-2.37h-8.56v10.69h8.71v-2.53h-5.78Z"/>
  <path class="cls-1" d="M45.62,50.24c.79-.46,1.25-1.23,1.25-2.1,0-.76-.23-1.36-.69-1.81-.64-.64-1.72-.94-3.21-.92h-5.01v10.7h5.15c1.53,0,2.65-.35,3.35-1.05.56-.56.84-1.34.84-2.31,0-1.16-.65-2.13-1.68-2.51ZM42.92,49.55h-2.03v-1.84h2.03c.24,0,.57.05.79.27.15.15.23.37.23.66,0,.72-.65.91-1.02.91ZM44.37,52.64c0,.73-.45,1.09-1.38,1.09h-2.1v-2.23h2.1c.5,0,.87.12,1.1.35.19.19.28.45.28.8h0Z"/>
  <path class="cls-1" d="M64.35,45.41l-2.03,4.16-2.03-4.16h-3.32l3.89,6.71v3.98h2.93v-3.98l3.89-6.71h-3.32Z"/>
  <path class="cls-1" d="M71.58,53.56v-1.81h5.16v-2.3h-5.16v-1.66h5.65v-2.38h-8.56v10.7h8.7v-2.54h-5.78Z"/>
  <path class="cls-1" d="M98.13,45.41h-.09v6.27l-3.51-6.23-.02-.05h-2.96v10.7h2.76v-6.34l3.51,6.3.02.05h2.96v-10.7h-2.67Z"/>
  <path class="cls-1" d="M88.86,53.63c-.12-1.38-.6-2.25-1.42-2.54.94-.45,1.53-1.44,1.53-2.64,0-.81-.27-1.5-.78-2.02-.66-.66-1.73-1.03-2.99-1.03h-5.45v10.7h2.92v-3.83h1.99c1.21,0,1.38,1.02,1.45,2.07,0,.08.16,1.77.16,1.77h2.81s-.21-2.28-.22-2.46h-.01ZM86.06,48.82c0,.76-.41,1.15-1.17,1.15h-2.21v-2.18h2.09c.44,0,.8.13,1.02.35.17.17.27.41.27.7h0Z"/>
  <path class="cls-1" d="M116.66,19.6c0,3.1-1.43,4.65-4.66,4.65s-4.66-1.54-4.66-4.65v-6.27h2.79v6.45c0,1.38.5,2.08,1.87,2.08s1.87-.71,1.87-2.08v-6.45h2.79v6.27Z"/>
  <path class="cls-1" d="M139.3,24.02h-1.66l-.15-1.34c-.72,1.03-2.17,1.56-3.14,1.56-3.25,0-5.33-2.47-5.33-5.58s2.08-5.58,5.33-5.58c2.22,0,4.6,1.17,4.84,3.87h-2.79c-.1-.92-.98-1.46-2.11-1.46-1.8,0-2.49,1.57-2.49,3.17s.69,3.17,2.49,3.17c1.38,0,2.29-.64,2.46-1.61h-1.95v-1.88h4.5v5.68Z"/>
  <path class="cls-1" d="M53.47,29.38h-2.69l-3.54,10.7h2.78l.57-1.88h3.29l.62,1.88h2.99l-4-10.7ZM53.33,35.98h-2.31c.02-.08,1-3.52,1-3.52h.24s.95,3.08,1.08,3.52h-.01Z"/>
  <path class="cls-1" d="M54.22,45.41h-2.69l-3.54,10.7h2.78l.57-1.88h3.29l.62,1.88h2.99l-4-10.7ZM54.08,52.01h-2.31c.02-.08,1-3.52,1-3.52h.24s.95,3.08,1.08,3.52h-.01Z"/>
  <path class="cls-1" d="M25.15,24.02v-3.83h1.99c1.21,0,1.38,1.02,1.45,2.07,0,.08.16,1.77.16,1.77h2.81s-.21-2.28-.22-2.46c-.13-1.38-.6-2.25-1.41-2.54.94-.45,1.53-1.44,1.53-2.64,0-.81-.27-1.5-.78-2.02-.66-.66-1.73-1.03-2.99-1.03h-5.45v10.7h2.92-.02ZM25.15,17.89v-2.18h2.09c.44,0,.8.13,1.03.35.17.17.27.41.27.7,0,.76-.41,1.15-1.17,1.15h-2.22Z"/>
  <path class="cls-1" d="M20.25,24.02v-2.54h-5.78v-1.82h5.16v-2.3h-5.16v-1.65h5.65v-2.38h-8.56v10.7h8.7Z"/>
  <path class="cls-1" d="M145.11,24.24c1.16,0,2.75-.21,3.76-1.22.6-.6.91-1.41.91-2.39,0-1.99-1.66-2.71-3.11-3.12-.33-.09-.65-.17-.96-.24-1.08-.26-2.02-.49-2.02-1.06,0-.2.07-.36.19-.48.29-.29.82-.33,1.05-.33.35,0,.99.06,1.35.44.19.19.35.44.34.73v.09h2.83v-.09c0-1.12-.48-2.03-1.37-2.66-.76-.53-1.8-.82-2.94-.82-2.17,0-4.38,1.01-4.38,3.29,0,1.96,1.59,2.68,3.15,3.12.28.08.55.15.81.21,1.15.29,2.15.55,2.15,1.23,0,.72-.82.99-1.59.99-1.27,0-1.85-.48-1.89-1.54v-.08h-2.92v.09c.01,2.4,1.75,3.84,4.66,3.84h0Z"/>
  <path class="cls-1" d="M118.5,13.32h2.86l3.72,6.59h.02v-6.59h2.63v10.7h-2.87l-3.71-6.67h-.03v6.67h-2.61v-10.7Z"/>
</svg>