<svg xmlns:xlink="http://www.w3.org/1999/xlink" xmlns="http://www.w3.org/2000/svg" width="119" height="37" viewBox="0 0 119 37" fill="none"><path fill-rule="evenodd" clip-rule="evenodd" d="M92.64 4.92002C93.28 4.02002 94.27 3.42002 95.37 3.27002H96.71V8.72002H104.8V11.18C104.8 12.43 103.72 14.04 101.34 14.04H96.71V23.48C96.71 26.61 98.05 27.81 100.39 27.81C101.84 27.91 103.29 27.62 104.58 26.96H104.8V29.1C104.8 31.56 103.07 33.12 99.7 33.12C93.82 33.12 90.97 29.81 90.97 24.18V9.70002C90.8 7.93002 91.41 6.19002 92.64 4.92002ZM63.15 33.37C60.17 33.35 57.31 32.17 55.18 30.08C52.83 27.75 51.54 24.57 51.59 21.26C51.44 17.78 52.6 14.37 54.83 11.7C56.94 9.38002 59.97 8.09002 63.11 8.17002C65.53 8.15002 67.87 9.05002 69.65 10.68C71.53 12.45 72.58 14.94 72.53 17.52C72.53 21.77 69.54 23.35 61.5 23.35H57.66C58.09 26.32 60.74 28.31 64.25 28.31C66.44 28.31 69.4599 27.91 71.45 26.03H71.66V27.91C71.73 29.43 71.05 30.88 69.83 31.79C68.42 32.84 66.17 33.37 63.15 33.37ZM62.59 13.15C61.27 13.15 60 13.7 59.11 14.68C58.22 15.67 57.71 16.95 57.66 18.28L57.61 19.08H60.22C65.5 19.08 67.03 18.56 67.03 16.75C67.09 15.71 66.64 14.7 65.82 14.04C64.88 13.4 63.74 13.09 62.59 13.15ZM48.8801 19.21C47.2101 24.1 44.9401 28.77 42.1301 33.11H41.01C39.28 33.11 38.3701 32.48 37.2001 30.7C34.0401 25.73 30.07 15.23 29.55 8.71001H32.66C34.35 8.72001 35.8 9.91001 36.12 11.57C36.92 16.45 38.42 21.19 40.57 25.64C43.08 20.27 44.8 14.57 45.67 8.70001H48.1301C50.1201 8.70001 50.85 9.59001 50.85 11.56C50.51 14.18 49.84 16.75 48.8801 19.21ZM85.0301 13.86C86.1901 13.85 87.3401 14.09 88.4001 14.57L88.6201 14.56V12.42C88.6201 10.59 87.3701 8.49002 83.7801 8.49002C77.6401 8.49002 75.1801 13.09 75.1801 17.92V29.01C75.1801 31.51 76.8201 32.85 79.4201 32.85H81.0001V19C81.0001 15.33 82.4301 13.85 85.0301 13.86ZM107.87 25.56C107.87 30.43 110.34 33.06 114.83 33.06C117.31 33.06 118.29 32.04 118.29 29.46V28.16H117.21C114.66 28.16 113.66 27.4 113.66 24.99V13.18C113.66 10.14 112.1 8.71002 109.51 8.71002H107.87V25.56Z" fill="#4D5D66"/><path fill-rule="evenodd" clip-rule="evenodd" d="M110.73 7.09C112.69 7.09 114.27 5.5 114.27 3.54C114.27 1.58 112.68 0 110.72 0C108.76 0 107.18 1.59 107.18 3.55C107.18 5.51 108.77 7.09 110.73 7.09ZM27.1501 32.44C28.0715 32.866 29.1598 32.6834 29.8801 31.9798V31.99C30.2001 31.68 30.4201 31.29 30.5301 30.86C30.8601 29.57 30.0801 28.26 28.7901 27.93L20.7101 25.77C17.4401 24.86 16.0101 23.33 15.3901 22.2C14.5901 20.55 14.5801 18.63 15.3601 16.98C15.5501 16.61 15.7901 16.26 16.0801 15.95C16.3701 15.62 16.7901 15.43 17.2301 15.41C18.0701 15.55 18.8501 15.93 19.4601 16.52L19.5801 16.62L20.6101 17.47C20.6151 17.47 20.6176 17.4725 20.6201 17.475C20.6226 17.4775 20.6251 17.48 20.6301 17.48C21.1301 17.91 21.8801 17.86 22.3201 17.37C22.7501 16.87 22.7001 16.12 22.2101 15.68C22.1001 15.57 21.9701 15.49 21.8301 15.42L20.6401 14.83C20.0401 14.5 19.4401 13.9 19.4801 13.37C19.5201 13.12 19.6501 12.89 19.8401 12.73C20.1801 12.42 20.5601 12.17 20.9801 11.99C21.0781 11.9365 23.1533 10.9699 23.7103 10.7105L23.8401 10.65L24.0201 10.56C24.1101 10.51 24.1901 10.45 24.2601 10.38C24.6701 9.97 24.7301 9.33 24.4101 8.85C24.0401 8.29 23.2901 8.15 22.7301 8.52L21.3401 9.54C20.1001 10.46 18.6101 10.98 17.0701 11.03C15.7401 11.16 14.4801 10.4 13.9701 9.17L13.0201 6.49C12.9601 6.31 12.8601 6.14 12.7201 6.01C12.2401 5.55 11.4901 5.56 11.0301 6.03C10.7201 6.32 10.6001 6.76 10.7201 7.17C10.7701 7.3 10.8201 7.42 10.8801 7.54L12.1401 9.96L12.2001 10.09C12.9201 11.45 13.2801 12.96 13.2401 14.49V14.59C13.1301 15.73 12.8101 16.84 12.2901 17.86C12.0301 18.28 11.7301 18.66 11.3801 19.01C10.5401 19.9 9.36006 20.4 8.13006 20.36C8.02006 20.36 6.05006 20.1 2.71006 19.65L2.57006 19.63H2.54006C2.11006 19.58 1.69006 19.73 1.39006 20.04C0.850059 20.6 0.870059 21.48 1.42006 22.01C1.68006 22.25 2.01006 22.4 2.36006 22.41L6.56006 22.85C7.77006 22.81 8.86006 23.59 9.20006 24.75C9.60006 25.76 9.23006 27.1 8.12006 28.73L7.76006 29.27L5.94006 31.96C5.90008 32.01 5.87009 32.06 5.8401 32.1099L5.84008 32.11L5.84006 32.11C5.60006 32.51 5.45006 32.95 5.41006 33.41C5.26006 35.04 6.47006 36.48 8.10006 36.63C9.73006 36.78 11.1701 35.57 11.3201 33.94C11.3201 33.9269 11.4058 33.0012 11.5024 31.9579L11.5024 31.9577C11.6272 30.6108 11.7701 29.0682 11.7701 29.04C11.8201 28.52 12.0501 28.03 12.4101 27.66C12.9301 27.18 13.6301 26.93 14.3401 26.97C15.5601 27.03 16.7601 27.34 17.8601 27.87L27.1301 32.44H27.1501ZM7.86006 17.69C6.81006 17.69 5.96006 16.83 5.97006 15.78C5.97006 14.97 6.49006 14.25 7.26006 13.99C7.45006 13.93 7.64006 13.9 7.84006 13.9C8.89006 13.83 9.80006 14.61 9.87006 15.66C9.94006 16.71 9.16006 17.62 8.11006 17.69C8.03006 17.7 7.95006 17.7 7.86006 17.69Z" fill="#FF9000"/><path fill-rule="evenodd" clip-rule="evenodd" d="M15.39 22.1901C16 23.2901 17.36 24.7601 20.42 25.6701C20.73 25.7501 8.24004 25.2901 17.06 11.0401C18.59 10.9901 20.08 10.4701 21.31 9.55009L22.7 8.53009C23.18 8.21009 23.82 8.27009 24.23 8.68009C24.7 9.15009 24.7 9.92009 24.23 10.3901C24.16 10.4601 24.08 10.5201 23.99 10.5701C23.9688 10.5843 23.9073 10.6135 23.859 10.6365C23.8392 10.6459 23.8217 10.6543 23.81 10.6601L20.95 12.0001C20.53 12.1801 20.15 12.4301 19.81 12.7401C19.62 12.9101 19.49 13.1301 19.45 13.3801C19.41 13.9001 20 14.5101 20.61 14.8401L21.8 15.4201C21.95 15.4801 22.08 15.5701 22.2 15.6801C22.205 15.6851 22.2125 15.6901 22.22 15.6951C22.2275 15.7001 22.235 15.7051 22.24 15.7101C22.72 16.1701 22.74 16.9301 22.29 17.4101C21.83 17.8901 21.07 17.9101 20.59 17.4601C20.2 17.1301 19.6 16.6301 19.57 16.6101L19.45 16.5101C18.84 15.9201 18.06 15.5301 17.22 15.4001C16.78 15.4201 16.37 15.6101 16.07 15.9401C15.79 16.2401 15.54 16.5901 15.36 16.9701C14.58 18.6301 14.59 20.5501 15.39 22.1901ZM10.48 35.7601C9.33002 36.9301 7.44002 36.9301 6.28002 35.7701C5.30002 34.8001 5.12002 33.2901 5.85002 32.1301C5.90142 32.1586 6.02866 32.3032 6.21081 32.5101C7.30437 33.7525 10.3771 37.2435 10.9 31.3801C10.9295 31.0396 10.9256 30.6094 10.9213 30.1376C10.8935 27.0899 10.8498 22.307 19.6915 28.7839L17.87 27.8901C16.77 27.3601 15.57 27.0501 14.35 26.9901C13.64 26.9501 12.94 27.2001 12.42 27.6801C12.05 28.0501 11.83 28.5401 11.78 29.0601C11.78 29.0883 11.6371 30.6311 11.5124 31.978L11.5123 31.9783C11.4157 33.0215 11.33 33.947 11.33 33.9601C11.26 34.6401 10.96 35.2701 10.48 35.7601ZM19.6915 28.7839L25.92 31.8401L19.7 28.7901L19.6915 28.7839ZM27.15 32.4301C28.35 33.0101 29.79 32.5001 30.37 31.3001C30.81 30.3801 30.62 29.2701 29.9 28.5501C29.77 28.4201 29.62 28.3001 29.46 28.2001C30.4544 33.0063 25.138 31.3782 24.8611 31.2934L24.85 31.2901L27.13 32.4101L27.15 32.4301ZM1.1181 20.5385C1.18747 20.7036 1.69807 21.9188 2.82998 21.9001L2.84775 21.8995C4.09772 21.8585 9.05104 21.6957 9.26998 24.9501C9.24998 24.8801 9.22998 24.8201 9.19998 24.7501C8.85998 23.5901 7.76998 22.8101 6.55998 22.8501L2.35998 22.4101C2.00998 22.4001 1.66998 22.2501 1.41998 22.0101C1.02998 21.6201 0.909983 21.0301 1.10998 20.5201C1.11063 20.5207 1.11331 20.5271 1.1181 20.5385Z" fill="#E86600"/></svg>