<svg xmlns:xlink="http://www.w3.org/1999/xlink" xmlns="http://www.w3.org/2000/svg" class="a-svg" viewBox="0 0 234 56" width="160" height="38.290598290598" fill="#e30613" role="img" aria-labelledby="logo-vgh-title" focusable="false"><title id="logo-vgh-title" fill="#E30613"></title><path fill="#E30613" stroke-width="0px" d="M188.8,2h44.7v26.8c0,5.3-1.8,14.5-14.3,21.3-5.3,2.9-8,5.4-8,5.4,0,0-2.7-2.5-8-5.4-12.6-6.8-14.3-16-14.3-21.3V2h0Z"></path><path fill="#0446BE" stroke-width="0px" d="M28,38.3h-.2L16.5,2H-.2l17.7,50.1h19.7L55.5,2h-15.6l-11.9,36.3ZM156,2v19.9h-16.6V2h-15.3v50.1h15.3v-19.8h16.6v19.8h15.3V2h-15.3ZM87.8,32.3h9.3v11.1c-2.1.4-4.8.9-7.4.9-10.3,0-15.4-6.7-15.4-16.9s4.1-16.9,12.9-16.9,8,3.6,10.6,6.9l12.9-7C107.4,6.5,100.5,0,85.1.5c-16.1.6-25.9,10.8-25.9,26.9s9.8,26.4,25.9,26.9c12.4,0,14.7-1.1,26.2-2.8v-27.3h-23.5v8.1Z"></path><path fill="#FFFFFF" stroke-width="0px" d="M225.9,29c-.6-.3-.7-.8-.7-1.4,0-1,.9-2.2.9-3.4s-.5-2.7-1.9-3c-1-.2-1.9.1-2.8.8-1,.8-1.7.7-2.2.8-.3-.3-.6-.5-1-.7-1.4-.8-2.8-.3-4.6-.7-2-.4-2.7-1-3.2-2.1-.2-.6-.5-1.1-.6-1.8,0,.2.3.3.4.5,0-.5-.2-.8-.4-1,0,0,.3,0,.5,0-.3-.4-.6-.9-.7-1.6-.1-.5-.2-.9-.4-1.3.2.1.4.1.6.2-.7-.7-1-1.3-1.1-1.6-.6-1.5-1.5-2-2.2-2.3.1-.2.1-.4.1-.5,0-.2,0-.3.2-.5,0,0,0-.2,0-.3-.1-.1-.1,0-.3.1-.1,0-.3.2-.4.3-.1.1-.2.2-.3.5-.3-.1-.6-.2-.8-.2s-.8,0-.8.4c-.2.1-.4.3-.4.5-.2.2-.7.5-.9.7-.2.2-.4.5-.7.7-.3.2-.9.5-1.1.7-.2.2-.3.3-.4.4,0,.1-.2.3-.4.4-.1.1-.2.3-.2.4s0,.3.2.5c0,.2,0,.5,0,.6.1.2.5.3.6.3s.2-.2.2-.2c0,.3,0,.4.1.4.2.1.5.1.8,0,.2,0,0-.2.2-.5.3,0,.4-.2.4-.2.1,0,.8-.2,1-.2.2-.1.4-.1.5-.2.2-.1.6,0,.7.2,0,.1.3.3.2.9-.1.4-.3,1.6-.6,1.9-.7.8-1.6,1.9-1.9,2.4-.2.2-.4,1-.5,1.1,0,.2-.3.6-.3.9v.2c-.3,0-.6-.1-1.1-.3-1.1-.4-1.7-.4-1.9-.5s-.3-.3-.8-.4c-.4-.1-.6.2-.7.2-.2.1-.3.4-.3.7s-.1.2-.1.3c0,.1-.3.6-.6,1-.2.4-.5.8-.5.8h-.1c0,.2-.2.2-.2.3-.1.1-.1.2-.1.4s0,.3,0,.5c-.1.2-.4.7-.4,1s.1.2.1.2c0,.1.1.6.2.7,0,.1.1.2.2.2s.7-.3,1-.6c.2-.2.1-.5.1-.7s0-.2-.1-.2c0-.1-.2-.1-.3-.4,0-.1.2-.2.3-.2q.1-.1.2-.1c0,0,0-.3.2-.5,0,0,0-.2,0-.3.1-.2.8-1.4,1.2-1.9.3.1.6.2.7.3.2.2,1.4,1.1,1.6,1.2.1.1.6.2.7.3.2.1.2.3.6.8-.8.2-1.4.4-1.6.4-.4.1-.6,0-1,.1-.5,0-1.2.7-1.6,1.3-.2.2-.9.9-1.1,1-.2.1-.3.3-.3.3,0,0-.1.6-.2.8-.3.1-.4.4-.6.8-.1.2-.1.3,0,.4v.7c0,.1,0,.3.2.3s.8,0,1.1-.5c0-.2,0-.6,0-.6.1-.1.2-.3.2-.4v-.5c.3,0,.5-.2.5-.2.1-.1.7-1,.7-1.1.2-.2.7-.7.9-.8,0,0,.3,0,.5-.1.1-.1.2-.2.3-.3h.5c.4.1,1.1.5,1.8.6.7.1,1.2.1,1.6.3.4.2.7.3,1.3-.2.1-.1.2-.2.2-.2,1.7,1,3.9,1.8,5.7,2,2.2.3,3.1-.2,4,.1,1.3,1.8,1.7,1.9,2.5,2.8.2.3.7.8,1,1.2.3.3.8.7.7,1.7-.1.6-.2,1.3-.2,1.5,0,.4-.2.5-.2.7s0,.2,0,.4c-.2,0-.5.1-.8.5v.2c-.1.1-.3.6-.3.7s0,.2.1.2h.9c.1,0,.3,0,.5-.2s.4-.5.3-.6c0,0,.2-.1.2-.2.2-.1.3-.1.4-.3.1-.2,0-.5.1-.6,0-.5.4-2.6.5-3.2.1-.2.3-.7.3-.7,0-.4-.2-.6-.7-1.3-.2-.2-.4-.4-.6-.7.8.5,1.6,1.1,2.1,1.4.4.3,1,.8,1.1.9.2.2.5.6.4,1,0,.2-.2,1.6-.2,1.8-.2.9-.3,1-.4,1.2-.3,0-.6.3-.6.7,0,.2-.3.6-.3.7s0,.2.2.2h.8c.2,0,.3,0,.5-.2.3-.3.3-.5.2-.7,0-.1,0-.2,0-.3.1,0,.2,0,.3,0,.3,0,.2-.6.3-.9.1-.9.4-3,.6-3.6,0-.4-.2-.8-.6-1.1-.6-.6-1.4-1.1-2-1.5-.4-.3-.6-.8-.7-1.3-.2-.6-.2-2-.3-3.2,0-.4-.1-.8-.3-1.3,0-.3-.4-.7-.7-1.1.8,0,1.2-.2,1.6-.4.7-.3,2.7.3,1.4,3.4-.5,1.1-.1,2.2.9,2.8.7.5,1.3.4,1.6.4,0,0-.3-.2-.4-.4.4.3.9.2,1,.2-.1-.5.2-.7-.2-.9Z"></path></svg>