<?xml version="1.0" encoding="utf-8"?>
<!-- Generator: Adobe Illustrator 27.2.0, SVG Export Plug-In . SVG Version: 6.00 Build 0)  -->
<svg version="1.1" id="Ebene_1" xmlns="http://www.w3.org/2000/svg" xmlns:xlink="http://www.w3.org/1999/xlink" x="0px" y="0px"
	 width="86" height="40" viewBox="0 0 86 40" style="enable-background:new 0 0 86 40;" xml:space="preserve">
<style type="text/css">
	.st0{fill:#A5CF4C;}
	.st1{fill:#006CB7;}
</style>
<g>
	<g>
		<path class="st0" d="M67.5,8.2c-0.2-0.2-0.1,0-0.1,0.2L67.5,8.2z"/>
		<path class="st0" d="M67.4,8.3l-0.1,0.1C67.4,8.4,67.4,8.4,67.4,8.3z"/>
		<path class="st0" d="M66.9,9.4c-0.1-0.3,0.2-0.5,0-0.8C66.7,8.9,66.7,9.3,66.9,9.4z"/>
		<polygon class="st0" points="67.2,9.1 67.1,9 67.2,9.3 		"/>
		<path class="st0" d="M66.6,10.2l0-0.3c0.2-0.2,0.2,0.2,0.4,0.1c0.1-0.3-0.4-0.2-0.2-0.6c-0.2,0-0.2,0.6-0.4,0.5
			C66.3,10.3,66.6,10,66.6,10.2z"/>
		<path class="st0" d="M84.4,10.1C84.4,10.1,84.5,10.1,84.4,10.1C84.5,10.1,84.5,10.1,84.4,10.1L84.4,10.1L84.4,10.1z"/>
		<path class="st0" d="M66.7,14.8c0.1,0,0.2,0,0.2,0C66.9,14.7,66.9,14.7,66.7,14.8z"/>
		<path class="st0" d="M68.7,14.9L68.7,14.9C68.7,14.9,68.7,14.9,68.7,14.9z"/>
		<path class="st0" d="M69.7,14.9L69.7,14.9C69.7,15,69.7,15,69.7,14.9z"/>
		<path class="st0" d="M67,14.8c0.1,0.1,0,0.5,0.4,0.1l0-0.1c0.1,0.1,0.3,0,0.5,0c0,0,0-0.1,0-0.1c-0.1,0-0.2,0-0.3-0.1
			C67.4,14.6,67.2,14.7,67,14.8z"/>
		<path class="st0" d="M72.8,1.8c-0.1,0-0.1,0.1-0.1,0c0.1-0.2,0.2-0.2,0.4-0.2c0.1-0.2-0.1-0.1-0.2,0c-0.1,0.1-0.2,0.2-0.1,0
			c-0.1,0.1-0.2,0.2-0.2,0.4C72.6,1.9,72.7,1.9,72.8,1.8C72.9,1.7,72.8,1.7,72.8,1.8z"/>
		<path class="st0" d="M84.9,8.8L84.9,8.8c0.1,0,0.1,0.1,0.2-0.2c-0.1-0.1-0.2,0-0.3,0s-0.2,0-0.3-0.1c0,0.1,0,0.2,0,0.2
			C84.6,8.5,84.8,8.6,84.9,8.8z"/>
		<path class="st0" d="M84.5,8.7C84.5,8.7,84.5,8.7,84.5,8.7C84.4,8.7,84.4,8.7,84.5,8.7c-0.1,0.1-0.1,0.2-0.1,0.2
			C84.4,8.8,84.5,8.7,84.5,8.7z"/>
		<path class="st0" d="M77.7,0c0.1,0,0.1,0,0.2,0C77.8,0,77.7,0,77.7,0z"/>
		<path class="st0" d="M77.5,19.8c0,0,0,0.1,0,0.1C77.6,19.9,77.6,19.8,77.5,19.8z"/>
		<path class="st0" d="M84.7,11.3c0,0,0,0.1,0,0.1c0,0,0,0,0,0.1L84.7,11.3z"/>
		<path class="st0" d="M72.4,1.9L72.4,1.9C72.4,1.9,72.4,1.9,72.4,1.9L72.4,1.9z"/>
		<path class="st0" d="M84.4,9.7l0,0.6l0.1-0.2C84.3,10,84.5,9.7,84.4,9.7z"/>
		<path class="st0" d="M85.4,12.1c0-0.1,0-0.2,0-0.3c0-0.1,0.1-0.1,0.1-0.2c0.1-0.1,0.2-0.2,0.2-0.3c-0.2-0.2-0.5-0.2-0.5-0.7
			l0.3,0.2c0-0.5-0.4-0.3-0.4-0.7c0,0.2-0.3-0.2-0.3,0.2c-0.1-0.2-0.2-0.5-0.1-0.7c0-0.1-0.1,0-0.2,0c-0.2,0.3,0.2,0.4-0.1,0.7
			l0.3,0.2c-0.1,0.3-0.3,0.3-0.5,0.1c0,0.1,0,0.1,0,0.2c-0.4,0,0.2-0.3-0.2-0.4l0,0.2c-0.1,0-0.2,0-0.2-0.1c0,0,0,0,0,0
			c0-0.2,0-0.4,0-0.6c0.1-0.2,0.2-0.4,0.3-0.5l0.1,0.3c0.2-0.2-0.1-0.5-0.1-0.7c0,0,0,0,0.1-0.1c0,0,0,0-0.1,0c0,0,0-0.1,0.1-0.1
			c0-0.2-0.1-0.5-0.1-0.7l-0.2,0.1l0.1,0c0,0.2-0.1,0.5-0.2,0.4c-0.1-0.2,0-0.3,0.1-0.4s0.2-0.2,0.3-0.3c0.1,0,0.1,0.1,0.1,0.2
			c0,0.1,0,0.3,0,0.4c0.1-0.1,0.1-0.2,0.1-0.4c0-0.2,0-0.4,0-0.7c0.2,0,0.2,0.2,0.2,0.3c0,0.2,0,0.3,0.1,0.3c0-0.2,0-0.4-0.1-0.5
			c0-0.1-0.1-0.2-0.1-0.5c0.1,0,0.1,0.1,0.2,0.2c0,0.1,0.1,0.2,0.2,0.1c0-0.1,0-0.2,0-0.4c0.1,0.4,0.1,0.3,0.2,0.2
			c0.1-0.1,0.2-0.3,0.3,0.1c0-0.2,0-0.3-0.1-0.4c-0.1-0.1-0.1-0.2-0.1-0.5c0,0.1-0.1,0.3-0.2,0.4s-0.2,0.1-0.2,0c0-0.2,0-0.3,0-0.5
			C85,6,85.1,6,85.2,6.1c0.1,0,0.2,0.1,0.2-0.1c-0.1-0.1-0.2-0.2-0.2-0.3c-0.1,0.1,0,0.3-0.2,0.3c0-0.2-0.1-0.2-0.2-0.2
			c-0.1,0-0.1,0-0.2,0c-0.1,0-0.1,0-0.2,0c-0.2,0-0.4,0-0.4-0.1c-0.3,0.1-0.7,0.2-1,0.3c-0.3,0.1-0.7,0.2-0.9,0.4
			c0.2-0.1,0.2-0.2,0.1-0.3C82.2,6.1,82,6,81.9,6c0.4-0.1,0.5-0.4,0.5-0.6C82,5.5,81.9,5.8,82,5.9c-0.2,0-0.3,0-0.4,0.1
			c-0.1,0-0.2,0.1-0.3,0c-0.2-0.1,0-0.3,0-0.4c-0.3,0,0,0.3-0.4,0.3c0,0,0-0.1,0-0.1c-0.2,0-0.4,0.1-0.4,0.3C80.4,6,80.3,6,80.2,6.1
			c-0.1,0-0.1,0-0.1-0.1C79.9,6,79.9,6,80,6.1s0.1,0.1,0.1,0.2c0,0.1-0.1,0.1-0.2,0.1c-0.1,0-0.1,0-0.1-0.1c0,0,0.1-0.1,0.1-0.1
			c0-0.1,0-0.2,0-0.2c-0.1-0.1-0.1,0.1-0.2,0.2c-0.1,0.2-0.2,0.3-0.2,0.2c0.1-0.1,0.1-0.1,0.2-0.2c0-0.1,0-0.1,0.1-0.2
			c0,0.1-0.1,0-0.2,0.2c-0.1,0-0.1,0-0.1-0.1c-0.1,0.1-0.3,0.2-0.5,0.4c0,0,0,0,0-0.1C79,6.3,79.1,6.1,79.2,6c-0.1,0,0-0.2,0-0.3
			c0-0.1,0.1-0.2,0-0.3l0,0c0-0.1,0-0.1-0.1,0c-0.1,0-0.2,0.1-0.2-0.1c0.2,0,0.2,0,0.2-0.1c0,0,0,0,0,0l0-0.1c0-0.1,0.1-0.1,0.1-0.1
			c0.1-0.2,0.1-0.3,0.1-0.4c0-0.2,0-0.2,0-0.5c0-0.5,0-0.8,0.2-1.4c0.1,0,0.1,0,0.1,0.2c0-0.2,0.1-0.4,0.1-0.6c0-0.1,0-0.2,0-0.2
			c0-0.1,0-0.1,0-0.2c0-0.1,0-0.3-0.1-0.4c0-0.1,0-0.1,0-0.2l0-0.1c0,0,0-0.1,0-0.1l0,0c0-0.1,0-0.2-0.1-0.3c0,0,0-0.1,0-0.1
			c0,0-0.1-0.1-0.1-0.1c-0.2-0.2-0.4-0.2-0.6-0.3c-0.4-0.1-1-0.1-1.5,0c0.1,0,0.2-0.2,0.2-0.2c-0.2,0-0.6,0-1,0
			c-0.2,0-0.4,0.1-0.5,0.2s-0.3,0.2-0.4,0.2c-0.3-0.1-0.5,0-0.6,0.1c0,0-0.1,0-0.1,0c0,0,0,0-0.1,0c0,0,0,0,0,0c-0.1,0-0.2,0-0.4,0
			c0,0,0-0.1,0.1-0.1c-0.2,0-0.3,0-0.4,0.1c-0.1,0-0.1,0-0.2,0.1c-0.1,0-0.2,0.1-0.3,0.1c-0.4,0.3-0.6,0.6-0.8,0.9
			C73,1.9,72.9,2,72.8,2.2c-0.1,0.2-0.2,0.3-0.3,0.6c-0.2-0.1-0.2-0.2-0.1-0.4s0.2-0.3,0.1-0.4c-0.1,0.2-0.1,0.5-0.3,0.7
			c-0.1-0.2-0.1-0.1-0.2-0.3c-0.1,0.1-0.1,0.4,0,0.7c0.1,0.3,0.2,0.5,0.2,0.5c0.1,0,0.1,0,0.2-0.3c0,0.1,0.1,0.2,0.1,0.3
			c0,0.1,0,0.1,0,0.2c0,0,0,0.1,0,0.1c0,0.2-0.1,0.4-0.1,0.5c0-0.1,0.1-0.4,0.3-0.3c-0.1,0.4,0.2,0.6,0.3,0.9
			c-0.2,0.4-0.3-0.3-0.6-0.3c-0.1,0-0.4,0.2-0.5,0c-0.1,0.3,0.1,0.6,0.1,1l-0.1,0c0,0.1,0,0.2,0,0.3l0,0.1c0,0,0,0,0,0
			c0,0,0,0,0,0.1c0.1,0.1,0.1,0.2,0,0.2c0,0,0.1,0,0.1,0c0,0.1,0,0.1,0.2,0.3c-0.1-0.1-0.2-0.1-0.3-0.2c0.1,0.1,0.2,0.2,0.2,0.3
			C72.1,7,71.9,7,72,7.3c-0.1-0.1-0.1-0.3-0.2-0.4C71.9,7,72.1,7,72,6.9c-0.1,0-0.2-0.1-0.3-0.2c0.1,0.3-0.2,0.4-0.3,0.7
			c-0.2-0.1-0.3-0.2-0.3-0.4c-0.7,0.2,0.4,0.7-0.4,0.7c-0.4-0.2,0.3-0.3-0.2-0.4l0.1,0c-0.4-0.5-0.2,0.4-0.6,0.4
			c-0.1-0.3,0.3-0.2,0-0.5c-0.4,0.1-0.5,0.6-0.9,0.5l0-0.1c-0.2,0-0.7,0-1,0c0-0.1,0-0.1,0.1-0.1c-0.5-0.1-0.2,0.2-0.6,0l-0.1,0.2
			c0.2,0.1,0.6,0.2,0.8,0c-0.2,0.1,0.1,0.3,0.2,0.4l-1,0.1c0,0-0.1,0.3-0.2,0.8V8.9l-0.1,0l0,0.2c-0.1,0.4-0.2,1-0.4,1.5
			c-0.1-0.1-0.3-0.2-0.2-0.4c-0.1,0.1-0.2,0.1-0.3,0c-0.1,0.2-0.2,0.5,0,0.5l0-0.1c0.1,0,0.1,0.1,0.2,0.2c0,0.2-0.2,0.1-0.3,0.1
			c-0.1,0.4,0.4,0.1,0.3,0.5l-0.1,0c0.1,0.2,0.1,0.4,0.2,0.5c0,0.2,0,0.5,0,0.7c-0.2,0-0.2-0.1-0.2-0.3c0-0.2,0.1-0.4,0-0.5
			c-0.1,0.2-0.2-0.2-0.4-0.2c0,0.1,0,0.2,0.1,0.3c0,0.1,0.1,0.2,0.1,0.4c0,0-0.1,0.1-0.2,0.2c-0.1,0.1-0.1,0.2,0,0.2l0-0.1
			c0.1,0.3,0.3,0.1,0.2,0.4c0,0.1-0.1,0-0.2,0c0,0.2,0.1,0.1,0.2,0.3c0,0.2-0.2,0-0.2,0.2c0.1,0.1,0.2,0.2,0.2,0.3
			c0,0.1,0,0.2,0,0.4c0.1-0.2,0.3,0,0.5,0c0.1,0,0.2,0,0.2,0c0,0,0,0,0-0.1c0,0,0,0,0,0h0.2c-0.2,0.1-0.3,0.2-0.3,0.3l-0.1,0
			c0,0-0.1,0-0.1,0c0,0-0.1-0.1-0.1-0.2c-0.1,0.1,0,0.2,0,0.2c0,0,0,0,0.1,0c0,0,0,0,0.1,0c0.1,0,0.1,0,0.2,0c0.3,0,0.6,0,0.6,0.2
			c0.1,0,0.2,0,0.2,0c0.1,0,0.2,0,0.4,0.2c0-0.1,0-0.2,0-0.4c0.1,0,0.2,0.1,0.2,0.2c0,0.1,0.1,0.1,0.1,0.2c0.1,0,0.2,0,0.3,0
			c0,0-0.1,0.1-0.1,0.1c0.1,0.2,0.2,0.1,0.2,0c0.1-0.1,0.2-0.1,0.3-0.1L69.5,15c0.1,0,0.2-0.1,0.2-0.1c0,0,0.1,0,0.1,0
			c0-0.1-0.1-0.3-0.3-0.4c0.1,0,0.2,0.1,0.3,0.1l0.1,0l0.1,0c0,0,0.1,0,0.1,0c0.1,0,0.3,0.1,0.3,0.2c-0.1,0.1-0.2,0.2-0.2,0.2
			c0,0,0.1,0,0.2-0.1c0.1-0.1,0.1-0.1,0.2-0.2c0,0,0.1,0,0.1,0c0,0.1-0.1,0.2,0,0.2c0,0,0,0.1,0,0.1c0.2-0.3,0.4-0.1,0.5-0.3
			c0,0-0.1,0-0.2,0c0.3-0.2,0.6-0.4,0.5-0.2c-0.2,0.1-0.2,0.2-0.2,0.2c0,0.1-0.1,0.1-0.2,0.1c-0.1,0.2,0.1,0,0.3-0.1
			c0.1,0,0.1,0,0,0.1c-0.1,0.1-0.1,0.2-0.2,0.2c-0.2,0.1-0.1-0.1-0.2,0l0,0c-0.1,0-0.1,0-0.1,0c-0.1,0-0.3,0-0.5,0.2
			c0.1,0,0.1,0.1,0.1,0.1c0,0,0,0,0.1,0c0.1,0,0.1,0.2,0,0.4c0,0.1,0,0.2,0,0.2c0,0,0,0,0,0.1l0,0c0,0,0,0,0,0l0,0
			c0,0.1,0.1,0.2,0.1,0.3c0,0,0,0,0,0c0,0,0,0,0.1,0l0,0l0.1,0.2c-0.2,0.1-0.2,0.5-0.3,0.7c0.1-0.2,0.1-0.2,0.2-0.1
			c0.2,0.1,0.2,0.1,0.2,0.3c-0.1,0-0.1-0.2-0.2,0c0.1-0.1,0.1,0,0.1,0.1c-0.1,0.1-0.1,0.4-0.2,0.3c0-0.1,0-0.1,0-0.2
			c0-0.1-0.1,0.2-0.2,0l0,0.2c-0.1,0.1-0.1-0.1-0.2-0.1c0.1,0.4,0.3,0.7,0.3,1.1c0,0-0.2-0.1-0.2,0c0,0.2,0.1,0.5,0.2,0.8l-0.4,0
			c0,0,0,0,0,0v0v0v0c0,0,0-0.1,0-0.1l0,0c0,0,0,0,0,0h0.1c0,0,0.1,0,0.1,0c0.1,0,0.2,0,0.3,0c0,0,0-0.1,0-0.1c0,0,0,0.1,0,0.1h-0.3
			h-0.2c0,0-0.1,0-0.1,0l0,0.1c0,0.1,0,0.2-0.1,0.2c0,0.2-0.1,0.3-0.1,0.5c0,0.1,0,0.2,0,0.2c0,0,0,0.1,0,0.1v0.1c0,0.1,0,0.3,0,0.4
			l0,0.5v0.1c0,0,0,0,0,0c0,0,0,0,0,0c0,0.1,0.1,0.1,0.1,0.2c0.2,0.2,0.4,0.4,0.6,0.6c0.2,0,0.4-0.1,0.6-0.2
			c0.1,0.1,0.2,0.2,0.2,0.3c0.4,0.1,0.7,0.2,1.1,0.3c0.2,0,0.5,0.1,0.7,0.1c0.1,0,0.2,0,0.4,0c0.1,0,0.3,0,0.4,0
			c0.3,0,0.7-0.1,1-0.1c0.4-0.1,0.4,0.2,0.6,0.2c0.3,0,0.5-0.1,0.6-0.2c0.1,0,0.2-0.1,0.2-0.1l0,0c0,0,0,0,0,0v-0.1v-0.1
			c0-0.4,0-0.7,0-1.2c0,0.1,0.1,0.2,0.2,0.3c0.1,0.1,0.2,0.1,0.2-0.2c-0.1-0.1-0.2-0.2-0.1-0.5l0.1,0.2c0.1-0.1,0.1-0.2,0.1-0.4
			c0-0.1,0-0.2,0-0.3c0,0,0-0.1,0-0.2c0,0,0-0.1,0-0.1c0.1-0.5,0-1.1-0.3-1.6c0.1-0.5,0.3,0.1,0.4,0c-0.2,0.3,0,0.2,0.1,0.3
			c-0.1-0.2-0.1-0.4,0.2-0.5c0-0.2,0.1-0.4-0.1-0.6c0.1,0.1-0.1,0.2-0.2,0.1c0.1-0.2,0.1-0.7,0.4-0.7c0.1-0.6,0.2-1.2,0.3-1.9
			c0.1-0.3,0.1-0.6,0.2-1c0-0.1,0-0.2,0-0.3c-0.1-0.2-0.1,0-0.2-0.1c-0.1-0.1,0-0.1,0-0.1c0,0,0.1,0,0-0.1c0,0.1,0.1,0.1,0.1,0.2
			c0,0,0-0.1,0-0.1c0-0.1,0-0.3,0.1-0.4c0.1,0.2,0.2,0.2,0.1,0.3c0,0,0.1,0.2,0.2,0.4C79,15,79,15.2,79,15.1c0-0.2-0.1-0.5-0.2-0.8
			c0-0.1,0.1,0,0.1-0.1c0,0.1,0.1,0.2,0.1,0.2c0.1,0.1,0.2,0.1,0.2,0.1c0.1,0.2-0.3,0.2-0.2,0.1c0,0.1,0,0.1,0,0.2c0,0,0,0,0,0
			c0,0,0,0,0,0l0,0c0.1,0,0.2,0.1,0.1,0.2c0.3,0,0-0.2,0.1-0.3l0.3,0.1l-0.2-0.1c0.2-0.1,0.3-0.3,0.6-0.2l0.3-0.3
			c0,0.2,0.2,0,0.4,0.1l-0.1,0.2c0.2,0,0.3,0,0.4,0.1c-0.1,0.2-0.2-0.1-0.2,0.2l0.2,0.1c0-0.1,0.2-0.3,0-0.3
			c0.2-0.3,0.3-0.5,0.9-0.5c0.2,0.2-0.3,0.2-0.2,0.5c0.1,0,0.1,0,0.2,0c0,0,0.1,0,0.1,0l0,0c0,0,0,0,0.1,0c0.2,0,0.3-0.1,0.4-0.2
			c0.2-0.2,0.3-0.3,0.6-0.3c0.3,0,0.4,0,0.5-0.1c0,0,0.1-0.1,0.2-0.1c0,0,0.1,0,0.1,0c0,0,0,0,0.1,0c0,0,0,0,0,0h0l0,0
			c0,0,0,0.1,0,0.1c0,0,0,0,0,0c0,0,0.1,0,0.1-0.1c0.1-0.1,0.2-0.2,0.3-0.2c0,0.1,0,0.2,0,0.3c0-0.2,0.1-0.3,0.2-0.2
			c0-0.1,0-0.3,0-0.5c0-0.3,0.1-0.6,0.1-0.9c-0.1,0-0.1,0-0.2,0c0-0.4-0.1-0.9,0-1.1c0-0.4-0.2-0.3-0.4-0.6c0.2-0.2,0.4-0.1,0.6-0.1
			c-0.1,0.1,0,0.3-0.1,0.5c0,0.1,0.1,0.2,0.1,0.4c0,0.1,0,0.1,0.1,0.2c0,0.1,0,0.2,0.1,0.2c0,0.2,0.1,0.3,0.1,0.5
			c0,0.2,0,0.4-0.1,0.5c0.2,0.3,0.2,0.1,0.2-0.1c0-0.1,0-0.3,0-0.4C85.2,12.3,85.3,12.2,85.4,12.1c0,0,0,0.1,0,0.1
			C85.3,12.1,85.4,12.1,85.4,12.1c0,0.3,0,0.8,0.2,1C85.5,12.6,85.1,12.6,85.4,12.1z M66.7,10.6c0.1-0.1,0.2,0,0.2,0.1
			c0,0.1-0.1,0.3-0.1,0.4c0,0,0,0,0,0l-0.1,0.2C66.8,11.1,66.5,10.8,66.7,10.6z M66.8,13.5C66.8,13.5,66.8,13.5,66.8,13.5
			c0,0.1,0.1,0.2,0.1,0.3C66.8,13.8,66.8,13.7,66.8,13.5z M69.2,15C69.2,15,69.2,14.9,69.2,15L69.2,15L69.2,15z M69.4,14.4
			c-0.1,0-0.2-0.1-0.2-0.2h0.3C69.5,14.3,69.5,14.3,69.4,14.4z"/>
		<path class="st0" d="M85.2,12.2c0,0,0,0.1,0,0.2C85.2,12.3,85.2,12.3,85.2,12.2z"/>
		<path class="st0" d="M65.9,11l0.1,0.1l0.1-0.2C66.1,10.9,65.9,11,65.9,11z"/>
		<path class="st0" d="M66.9,15.4c0.1,0.1,0.2,0.1,0.3,0l-0.4-0.2C66.7,15.3,66.8,15.4,66.9,15.4z"/>
		<path class="st0" d="M68.6,15.5c0-0.1,0.1-0.1,0.1-0.1c0,0,0.1,0,0.1,0c0.1,0,0.1,0.1,0.2,0C68.9,15.5,68.6,15.3,68.6,15.5z"/>
		<path class="st0" d="M70.1,14.9c0,0.2-0.1,0.2-0.2,0.1C69.9,15,70,14.9,70.1,14.9c-0.3,0.1-0.2,0-0.4,0.1c0,0,0.1,0.1,0.2,0.1
			c0,0,0,0,0.1,0.1c0,0.1,0.1,0.1,0,0.2C70,15.3,70.2,15.1,70.1,14.9z"/>
		<path class="st0" d="M70.4,15.3C70.4,15.3,70.4,15.3,70.4,15.3c-0.1,0-0.1,0-0.2,0c-0.1,0-0.1,0.1-0.2,0.2
			C70.1,15.6,70.2,15.5,70.4,15.3z"/>
		<path class="st0" d="M70.8,18C70.7,17.9,70.6,18.2,70.8,18C70.8,18.1,70.9,17.9,70.8,18z"/>
		<path class="st0" d="M79.8,15.1c0.2,0.1,0.3,0,0.2-0.2C79.8,14.9,79.9,15,79.8,15.1z"/>
		<polygon class="st0" points="80.3,15 80.4,15.1 80.2,14.9 		"/>
		<path class="st0" d="M81.3,15.2C81.4,15.2,81.4,15.2,81.3,15.2C81.4,15.2,81.3,15.2,81.3,15.2z"/>
		<path class="st0" d="M81.2,15.2L81.2,15.2C81.2,15.2,81.2,15.2,81.2,15.2C81.2,15.2,81.2,15.2,81.2,15.2z"/>
		<path class="st0" d="M81.5,15.3l0.2-0.1l-0.2-0.2C81.3,15,81.8,15,81.5,15.3z"/>
		<path class="st0" d="M84.2,14.3C84.2,14.3,84.2,14.3,84.2,14.3C84.3,14.3,84.3,14.3,84.2,14.3c0.1-0.1,0.1-0.1,0.2-0.2
			C84.3,14.2,84.3,14.2,84.2,14.3C84.2,14.3,84.2,14.3,84.2,14.3C84.2,14.3,84.2,14.3,84.2,14.3c-0.1,0-0.2,0-0.2,0
			c-0.1,0.1-0.1,0.1-0.1,0.2c0,0.1,0,0.3-0.5,0.3c0.2,0,0.2,0.1,0.1,0.2c-0.1,0-0.4,0-0.5,0.1c0.1,0,0.2,0,0.3,0c0,0,0.1,0,0.2,0
			c0,0,0.1,0,0.1-0.1c0.2-0.1,0.3-0.1,0.5,0c0.4-0.2,0.3-0.3,0.2-0.4C84.1,14.5,84.1,14.5,84.2,14.3C84.1,14.4,84.1,14.4,84.2,14.3z
			"/>
		<path class="st0" d="M83.2,14.7c-0.1,0-0.4-0.2-0.5-0.1C82.6,14.7,83.1,14.7,83.2,14.7z"/>
		<polygon class="st0" points="84.7,14.5 84.9,14.4 84.9,14.2 		"/>
		<path class="st0" d="M85.2,13.6c0,0.1,0,0.3,0,0.4C85.2,13.8,85.4,13.4,85.2,13.6z"/>
		<path class="st0" d="M85.7,11.8C85.7,11.7,85.7,11.7,85.7,11.8c0-0.1-0.1-0.1-0.1-0.1c0,0-0.1,0-0.1,0c0,0,0,0,0,0.1
			c0,0,0,0.1,0,0.2l0-0.1C85.5,11.8,85.6,11.8,85.7,11.8c0,0,0,0,0,0.2C85.8,11.9,85.8,11.8,85.7,11.8
			C85.7,11.8,85.7,11.8,85.7,11.8z"/>
		<path class="st0" d="M85.2,9.5c0,0.1,0,0.2,0.1,0.2L85.2,9.5L85.2,9.5z"/>
		<path class="st0" d="M84.2,9.5c-0.2,0.1,0,0.3-0.1,0.5C84.2,9.8,84.2,9.8,84.2,9.5z"/>
		<path class="st0" d="M85.5,9.1c0.1,0.1,0,0.2,0,0.3C85.7,9.4,85.7,9.1,85.5,9.1z"/>
		<path class="st0" d="M85.4,8.4c0.1-0.2,0.1,0,0.2-0.1c0.1-0.4,0-0.9-0.1-1c-0.1,0.2-0.4,0.4-0.5,0.3c0.1,0.2,0.2,0.4,0.3,0.6
			c0.1,0.2,0.1,0.3,0,0.5c0.1,0.1,0.3,0.4,0.4,0.4c0,0,0-0.1,0-0.1c0,0,0-0.1,0-0.1c0-0.1-0.1-0.1-0.1-0.1
			C85.5,8.6,85.4,8.5,85.4,8.4z"/>
		<path class="st0" d="M84.6,8.9c-0.3,0.1,0,0.3,0.1,0.4l0.1-0.2C84.6,9.2,84.6,9,84.6,8.9z"/>
		<path class="st0" d="M84.1,5.6l0.2,0l0.2,0l0.1,0c0,0,0,0,0,0l0,0l0,0c0,0,0,0,0,0h0h-0.1l-0.2,0L84.1,5.6z"/>
		<path class="st0" d="M84.4,5.4L84.4,5.4c-0.1,0-0.3,0-0.5,0.1L84.4,5.4z"/>
		<polygon class="st0" points="84.3,5.2 83.9,5.3 84,5.3 		"/>
		<path class="st0" d="M83.2,5.3c-0.2,0.1-0.5,0.1-0.6,0c0,0,0.1,0.1,0.1,0.1C82.9,5.4,83.2,5.4,83.2,5.3z"/>
		<path class="st0" d="M69.3,7.6c0-0.1,0-0.1-0.1-0.2C69,7.5,69.3,7.6,69.3,7.6z"/>
		<path class="st0" d="M69.3,7.6C69.3,7.6,69.3,7.6,69.3,7.6C69.3,7.6,69.3,7.6,69.3,7.6z"/>
	</g>
	<g>
		<path class="st1" d="M0.2,14.5c1.2-0.2,2.4-0.3,3.6-0.3c1.3,0,2.6,0.1,3.8,0.3L9.5,33L15,21.1c0.7-1.5,1.2-2.7,1.3-3.7
			c0.2-0.9,0.3-1.7,0.3-2.4v-0.5c0.5-0.1,1.2-0.2,1.8-0.2s1.4-0.1,2.1-0.1c1.5,0,2.8,0.1,3.9,0.3v0.2c0,0.8-0.2,1.7-0.6,2.7
			c-0.4,1.1-1.1,2.4-2,4.1l-9.8,18c-0.7,0.1-1.3,0.2-2,0.2c-0.7,0-1.2,0-1.7,0s-1.1,0-1.8,0s-1.4-0.1-2-0.2L0.2,14.5z"/>
		<path class="st1" d="M26.3,25.3c0.4-2,0.6-3.8,0.8-5.4c0.2-1.6,0.3-2.8,0.3-3.7c0-0.4,0-0.7,0-0.9s0-0.5,0-0.8
			c1.1-0.2,2.1-0.3,3.2-0.3c0.5,0,1,0,1.4,0.1c0.5,0,1,0.1,1.6,0.2c0.1,0.3,0.1,0.6,0.2,0.9s0.1,0.9,0.1,1.6c0,0.3,0,0.6,0,0.9
			s-0.1,0.7-0.1,1.1c0.3-0.6,0.7-1.2,1.2-1.7c0.5-0.6,1-1.1,1.6-1.5c0.6-0.5,1.3-0.8,2-1.1c0.7-0.3,1.5-0.4,2.4-0.4
			c0.7,0,1.3,0.1,1.7,0.2c0,0.1,0,0.3,0,0.4s0,0.3,0,0.4c0,0.9-0.1,1.8-0.3,2.8c-0.2,1-0.5,1.8-0.9,2.4c-0.2,0-0.4-0.1-0.6-0.1
			c-0.2,0-0.5,0-0.9,0c-1.3,0-2.4,0.2-3.3,0.7c-0.9,0.5-1.6,1.1-2.1,1.9c-0.5,0.8-1,1.8-1.3,3c-0.3,1.2-0.6,2.5-0.9,3.9l-1.8,9.8
			C29.3,39.9,28.1,40,27,40c-1.1,0-2.2-0.1-3.4-0.3L26.3,25.3z"/>
		<path class="st1" d="M46.2,13.6c0.6-3.4,0.9-6,0.9-7.7c0-0.4,0-0.7,0-0.9s0-0.5-0.1-0.8c0.5-0.1,1.2-0.2,1.9-0.2
			c0.7,0,1.3-0.1,1.8-0.1c0.9,0,2,0.1,3.1,0.3C54,4.6,54.1,5.3,54.1,6c0,1.4-0.2,3.2-0.6,5.2l-5,28.5C47.3,39.8,46.2,40,45,40
			c-1.1,0-2.2-0.1-3.3-0.3L46.2,13.6z M51.8,26.5l5.1-6.7c0.9-1.2,1.6-2.3,1.9-3.2c0.3-0.9,0.5-1.6,0.5-2.1c0.7-0.1,1.3-0.2,1.9-0.2
			c0.6,0,1.2,0,1.9,0c0.6,0,1.2,0,1.9,0.1s1.3,0.1,1.8,0.2c-0.1,0.8-0.4,1.7-0.9,2.6c-0.5,0.9-1.2,2-2.2,3.3l-4.9,6.1l4.7,13.1
			c-0.7,0.1-1.3,0.1-1.9,0.2c-0.6,0-1.1,0.1-1.7,0.1c-0.6,0-1.2,0-1.7,0c-0.5,0-1.2-0.1-1.8-0.2L51.8,26.5z"/>
	</g>
</g>
</svg>
