<svg xmlns:xlink="http://www.w3.org/1999/xlink" class="gzc-WuerttLogo gzc-WuerttLogo--hide-desktop" viewBox="0 0 80 32" xmlns="http://www.w3.org/2000/svg" data-jsinit="WuerttLogo" aria-hidden="true" data-mod-loaded="true" width="80"  height="32" ><title>Zur Startseite der Württembergischen Versicherung</title><path class="gzc-WuerttLogo__logo-text" d="M20.4168 3.52413L21.6845 8.45802L23.1658 3.52413H25.151L26.6322 8.45802L27.8994 3.52413H30.2817L27.7469 11.8591H25.6396L24.1584 6.80322L22.6771 11.8596H20.5699L18.035 3.52413H20.4168ZM31.3044 8.5958V3.52413H33.6714V8.44276C33.6714 9.63797 34.0991 10.0518 34.9386 10.0518C35.7782 10.0518 36.2058 9.63797 36.2058 8.44276V3.52413H38.5729V8.5958C38.5729 10.9862 37.0459 12.0584 34.9386 12.0584C32.8314 12.0584 31.3044 10.9857 31.3044 8.5958ZM31.6862 1.28722C31.6862 0.582588 32.1902 0 32.9997 0C33.8087 0 34.3131 0.582111 34.3131 1.28722C34.3131 1.99186 33.8092 2.57445 32.9997 2.57445C32.1902 2.57397 31.6862 1.99186 31.6862 1.28722ZM35.5646 1.28722C35.5646 0.582588 36.0685 0 36.878 0C37.6876 0 38.1915 0.582111 38.1915 1.28722C38.1915 1.99186 37.6876 2.57445 36.878 2.57445C36.0685 2.57445 35.5646 1.99186 35.5646 1.28722ZM42.6958 3.52413V4.42805C43.0777 3.67717 43.841 3.32485 44.5742 3.32485C44.9561 3.32485 45.3375 3.40161 45.5058 3.44738V5.66903C45.1544 5.56176 44.7578 5.46975 44.3606 5.46975C43.5668 5.46975 43.0934 5.83732 42.8641 6.35841V11.8591H40.497V3.52413H42.6958ZM47.3222 3.52413V1.28722H49.6892V3.52413H51.3841V5.45497H49.6892V8.99436C49.6892 9.82152 50.0254 10.0518 50.4835 10.0518C50.8349 10.0518 51.1705 9.92927 51.5524 9.74524V11.7218C51.0942 11.9059 50.453 12.0589 49.7813 12.0589C48.178 12.0589 47.3227 11.2928 47.3227 9.63797V5.45497H46.3148V3.52413H47.3222ZM53.5676 3.52413V1.28722H55.9347V3.52413H57.6295V5.45497H55.9347V8.99436C55.9347 9.82152 56.2708 10.0518 56.7289 10.0518C57.0803 10.0518 57.4159 9.92927 57.7978 9.74524V11.7218C57.3396 11.9059 56.6984 12.0589 56.0267 12.0589C54.4234 12.0589 53.5681 11.2928 53.5681 9.63797V5.45497H52.5602V3.52413H53.5676ZM58.7899 7.78342C58.7899 5.34722 60.1034 3.32485 62.6077 3.32485C64.8675 3.32485 66.2572 4.93388 66.2572 7.55362C66.2572 7.84492 66.242 8.08997 66.2115 8.38078H61.157C61.1875 9.42248 61.7219 10.0508 62.7908 10.0508C63.5546 10.0508 64.2263 9.59125 64.5624 9.19269L65.9369 10.7402C64.9595 11.7209 63.9059 12.058 62.7913 12.058C60.1949 12.0584 58.7899 10.4189 58.7899 7.78342ZM63.9665 6.68069C63.9359 5.80729 63.5083 5.25569 62.592 5.25569C61.7825 5.25569 61.2328 5.73053 61.1565 6.68069H63.9665ZM77.6334 7.01776C77.6334 5.82254 77.2058 5.33245 76.3662 5.33245C75.7403 5.33245 75.2821 5.70002 75.0528 6.12909C75.068 6.34363 75.0833 6.55817 75.0833 6.78796V11.8596H72.7162V7.01776C72.7162 5.82254 72.2886 5.33245 71.449 5.33245C70.8231 5.33245 70.3954 5.70002 70.1661 6.14435V11.8596H67.799V3.52413H69.9978V4.30553C70.5017 3.67717 71.265 3.32485 72.1813 3.32485C73.3875 3.32485 74.1665 3.69243 74.6094 4.44331C75.1286 3.84594 75.9686 3.32485 77.068 3.32485C79.1752 3.32485 80 4.39754 80 6.78749V11.8591H77.633V7.01776H77.6334ZM3.26673 28.0095V28.7142H1.06796V17.7132H3.43502V21.0075C3.8169 20.5632 4.45813 20.1799 5.42021 20.1799C7.17655 20.1799 8.71884 21.6201 8.71884 24.5469C8.71884 27.4737 7.17655 28.9139 5.42021 28.9139C4.5039 28.9134 3.67912 28.5154 3.26673 28.0095ZM6.32079 24.5469C6.32079 23.0299 5.6643 22.1875 4.80902 22.1875C4.22881 22.1875 3.74014 22.4478 3.43455 22.8768V26.2169C3.74014 26.646 4.22833 26.9063 4.80902 26.9063C5.6643 26.9063 6.32079 26.0639 6.32079 24.5469ZM9.95457 24.6389C9.95457 22.2027 11.268 20.1803 13.7724 20.1803C16.0322 20.1803 17.4219 21.7894 17.4219 24.4091C17.4219 24.7004 17.4066 24.9455 17.3761 25.2363H12.3216C12.3521 26.278 12.8866 26.9063 13.9555 26.9063C14.7187 26.9063 15.3909 26.4467 15.7271 26.0482L17.1015 27.5957C16.1242 28.5764 15.0706 28.9134 13.9559 28.9134C11.3596 28.9134 9.95457 27.2744 9.95457 24.6389ZM15.1316 23.5357C15.1011 22.6623 14.6734 22.1107 13.7571 22.1107C12.9476 22.1107 12.3979 22.5855 12.3216 23.5357H15.1316ZM21.1629 20.3791V21.2831C21.5448 20.5322 22.3081 20.1799 23.0413 20.1799C23.4232 20.1799 23.8046 20.2566 23.9729 20.3024V22.524C23.6215 22.4168 23.2249 22.3248 22.8278 22.3248C22.034 22.3248 21.5606 22.6923 21.3312 23.2134V28.7146H18.9642V20.3791H21.1629ZM25.0108 30.3079L25.8203 28.5764C26.5226 29.036 27.3473 29.404 28.5078 29.404C29.5309 29.404 29.9432 28.9134 29.9432 27.9638V27.4122C29.5614 27.8565 28.9506 28.1478 27.9886 28.1478C26.2327 28.1478 24.7209 26.9068 24.7209 24.1641C24.7209 21.4213 26.2327 20.1803 27.9886 20.1803C28.9049 20.1803 29.6991 20.5789 30.1111 21.0843V20.3796H32.3098V27.6119C32.3098 30.0786 30.9964 31.4116 28.5073 31.4116C27.1643 31.4111 25.8661 30.89 25.0108 30.3079ZM29.9432 25.4508V22.8768C29.6381 22.4478 29.2105 22.1875 28.6298 22.1875C27.7745 22.1875 27.118 22.8463 27.118 24.1641C27.118 25.4818 27.7745 26.1407 28.6298 26.1407C29.2105 26.1402 29.6381 25.8799 29.9432 25.4508ZM34.2812 18.0807C34.2812 17.3451 34.8004 16.7325 35.6557 16.7325C36.5109 16.7325 37.0301 17.3451 37.0301 18.0807C37.0301 18.8164 36.5109 19.429 35.6557 19.429C34.8004 19.4295 34.2812 18.8164 34.2812 18.0807ZM36.8466 20.3791V28.7146H34.4795V20.3791H36.8466ZM38.3121 27.8412L39.1369 25.9872C39.9922 26.5693 40.9385 26.9678 41.9006 26.9678C42.435 26.9678 42.7711 26.738 42.7711 26.3552C42.7711 26.0181 42.5881 25.8494 42.0841 25.6963L40.6639 25.2825C39.4882 24.9455 38.6024 24.1026 38.6024 22.8768C38.6024 21.3903 39.6255 20.1799 41.8548 20.1799C42.9695 20.1799 44.2219 20.6242 45.0004 21.2063L44.0688 22.9531C43.2136 22.4015 42.3893 22.126 41.7628 22.126C41.1979 22.126 40.9995 22.3863 40.9995 22.647C40.9995 22.8616 41.0758 23.0761 41.5035 23.1986L42.9237 23.6125C44.3287 24.0263 45.1682 24.9149 45.1682 26.1712C45.1682 27.7955 43.9773 28.9139 41.9616 28.9139C40.4656 28.9134 39.1369 28.4386 38.3121 27.8412ZM50.3295 20.1799C51.8566 20.1799 52.8034 20.793 53.6587 22.0187L52.0554 23.3212C51.5819 22.5855 51.1696 22.1875 50.4063 22.1875C49.2306 22.1875 48.7419 23.2754 48.7419 24.5469C48.7419 25.8189 49.2306 26.9063 50.4063 26.9063C51.1696 26.9063 51.5819 26.5078 52.0554 25.7726L53.6587 27.0751C52.8034 28.3008 51.857 28.9139 50.3295 28.9139C47.9014 28.9139 46.3439 27.1061 46.3439 24.5469C46.3444 21.9882 47.9019 20.1799 50.3295 20.1799ZM57.384 17.7132V21.038C57.8879 20.4864 58.5291 20.1799 59.4454 20.1799C61.5527 20.1799 62.3927 21.2525 62.3927 23.6425V28.7146H60.0257V23.8728C60.0257 22.6776 59.5522 22.1875 58.7122 22.1875C58.0862 22.1875 57.6128 22.555 57.3835 22.9994V28.7146H55.0164V17.7132H57.384ZM63.9345 24.6389C63.9345 22.2027 65.248 20.1803 67.7523 20.1803C70.0121 20.1803 71.4018 21.7894 71.4018 24.4091C71.4018 24.7004 71.3866 24.9455 71.3561 25.2363H66.3016C66.3321 26.278 66.8665 26.9063 67.9354 26.9063C68.6992 26.9063 69.3709 26.4467 69.707 26.0482L71.0815 27.5957C70.1041 28.5764 69.0505 28.9134 67.9359 28.9134C65.3395 28.9134 63.9345 27.2744 63.9345 24.6389ZM69.1115 23.5357C69.081 22.6623 68.6534 22.1107 67.7371 22.1107C66.9276 22.1107 66.3779 22.5855 66.3016 23.5357H69.1115Z"></path><path class="gzc-WuerttLogo__box-text" d="M13.5139 0.0981445H0V13.6121H13.5139V0.0981445Z" fill="#FFFFFF"></path><path class="gzc-WuerttLogo__box" d="M0 0.0981445V13.6121H13.5139V0.0981445H0ZM6.61585 10.8722L7.21989 11.5568C7.0249 11.8719 6.73075 11.8753 6.73075 11.8753C6.73075 11.8753 6.3217 11.9058 6.254 11.4901C6.21252 11.2374 6.43516 11.0248 6.61585 10.8722ZM6.4652 9.93301C6.45805 9.78331 6.54243 9.61835 6.7236 9.58784C6.88712 9.56067 7.01108 9.68557 7.03873 9.82908C7.09546 10.1213 6.73981 10.3235 6.73981 10.3235C6.73981 10.3235 6.47569 10.1556 6.4652 9.93301ZM11.6413 11.8591H10.0995L9.40197 8.79358L8.73786 11.8591H8.17864L7.79819 11.4438C7.79819 11.4438 7.98984 11.0791 8.05945 10.7106H7.6237C7.58222 10.9089 7.47066 11.1015 7.47066 11.1015L7.03205 10.6043C7.03205 10.6043 7.57555 10.2815 7.4659 9.7547C7.39867 9.42908 7.08736 9.11872 6.62014 9.19357C6.23397 9.25555 5.94745 9.6441 6.05233 10.0913C6.11336 10.3511 6.32885 10.5313 6.32885 10.5313C6.32885 10.5313 5.60848 10.948 5.71479 11.6164C5.72719 11.6946 5.75913 11.7776 5.81014 11.8591H4.78227L4.08574 8.79358L3.42068 11.8591H1.87219L0.737055 7.30373H2.14347L2.78851 10.4274L3.48504 7.30373H4.70456L5.41444 10.4207L6.06282 7.30373H7.4597L8.10474 10.4274L8.80127 7.30373H10.0208L10.7307 10.4207L11.3757 7.30373H12.7755L11.6413 11.8591Z" fill="#F84914"></path></svg>