<svg xmlns:xlink="http://www.w3.org/1999/xlink" xmlns="http://www.w3.org/2000/svg" enable-background="new 0 0 300 159" height="159" viewBox="0 0 300 159" width="300"><path d="m.8 0h24v37.4l14.7-37.4h29.3v37l15-37h47v36.7l14.4-36.7h29.7v36.7l14.3-36.7h47.3v45.5l30.9-45.5h28.5l-30.3 46.5 34.4 56.7h-28.4l-20.4-33.9-14.7 19.8v14.1h-23.9v-95.4l-35.4 95.4h-27.1v-47l-16.8 47h-26.5v-95.7l-35.5 95.7h-27.2v-47l-17.1 47h-26.2z" fill="#009036"/><path d="m.8 119h299.2v3.5h-299.2z" fill="#ee7d00"/><g fill="#009036"><path d="m0 158.6v-22.6h11v2.5h-8.3v7.3h7.6v2.5h-7.6v7.8h8.5v2.6h-11.2z"/><path d="m17.2 158.6h-2.8v-15.8h2.8zm-2.9-22.6h3v2.8h-3z"/><path d="m29.1 158.6v-11c0-1.7-.5-3.1-2.6-3.1-2.7 0-3 2.6-3 4.7v9.4h-2.5v-12.6c0-1.1-.1-2.2-.1-3.3h2.6v2h.1c1-1.8 2-2.3 4-2.3 3.2 0 4 2 4 5.1v11h-2.5z"/><path d="m44 149.5c0-4.6-1.2-5.1-3-5.1-1.5 0-2.8.8-2.8 5.1zm-5.8 2c0 4.5 1.1 5.3 3 5.3 1.6 0 2.5-1.4 2.6-3h2.7c0 3.6-2 5.1-5.2 5.1-3.1 0-5.7-1-5.7-8 0-4.7.5-8.5 5.7-8.5 4.3 0 5.3 2.4 5.3 7.7v1.3h-8.4z"/><path d="m61.6 158.9c-3.2 0-5.3-1.6-5.2-5.1h2.8c0 .9 0 3 2.5 3 1.4 0 2.6-.8 2.6-2.4 0-2.8-7.4-2.9-7.4-7.6 0-1.7 1-4.3 5.2-4.3 2.7 0 4.9 1.3 4.7 4.5h-2.7c0-1.7-.8-2.6-2.4-2.6-1.3 0-2.3.8-2.3 2.1 0 2.8 7.4 2.8 7.4 7.6 0 3.5-2.3 4.8-5.2 4.8z"/><path d="m70.5 142.7v-3l2.5-1.1v4.2h3.2v1.9h-3.2v9.7c0 1 0 2.3 2.3 2.3.2 0 .5-.1 1.1-.1v2c-.8.1-1.6.2-2.4.2-2.3 0-3.3-1-3.3-2.8v-11.2h-2.5v-1.8h2.4v-.3z"/><path d="m80.7 153.9c0 1.6.8 2.9 2.4 2.9 1.5 0 3.3-1 3.1-6.1-2.4.1-5.5-.2-5.5 3.2zm5.5 2.4c-.8 1.8-1.9 2.6-3.8 2.6-3.1 0-4.1-2.1-4.1-5.2 0-4.8 4.4-5 7.8-4.9.1-2.1.1-4.3-2.5-4.3-1.6 0-2.5 1.1-2.4 2.8h-2.6c.1-3.6 1.9-4.8 5.1-4.8 3.9 0 4.8 2.1 4.8 4.8v7.6c0 1.2.1 2.6.3 3.8h-2.7v-2.2h.1z"/><path d="m95.8 145.1c1.1-2.4 2.3-2.7 4.6-2.7v2.7c-.4-.1-.9-.1-1.3-.1-2.7 0-3.3 2.1-3.3 4.3v9.4h-2.5v-15.8h2.5z"/><path d="m105.6 158.6h-2.5v-22.6h2.5v13.6h.1l4.5-6.7h3l-5 6.7 5.8 9.1h-3.1l-5.2-8.9h-.1z"/><path d="m124.5 149.5c0-4.6-1.2-5.1-3-5.1-1.5 0-2.8.8-2.8 5.1zm-5.9 2c0 4.5 1.1 5.3 3 5.3 1.6 0 2.5-1.4 2.6-3h2.7c0 3.6-2 5.1-5.2 5.1s-5.7-1-5.7-8c0-4.7.5-8.5 5.7-8.5 4.3 0 5.3 2.4 5.3 7.7v1.3h-8.4z"/><path d="m148.1 142c0-2.7-1.1-4.1-3.8-4.1-.9 0-4 .1-4 4.9v7.7c0 5 1.4 6.2 4 6.2 1.9 0 3.2-.6 3.8-1v-6.8h-4v-2.6h6.7v11c-1.7 1-3.8 1.7-6.6 1.7-4.5 0-6.7-2.4-6.7-8.8v-7.5c0-4.6 2.1-7.3 6.7-7.3s6.8 1.8 6.7 6.6z"/><path d="m163.8 149.5c0-4.6-1.2-5.1-3-5.1-1.5 0-2.8.8-2.8 5.1zm-5.8 2c0 4.5 1.1 5.3 3 5.3 1.6 0 2.5-1.4 2.6-3h2.7c0 3.6-2 5.1-5.2 5.1-3.1 0-5.7-1-5.7-8 0-4.7.5-8.5 5.7-8.5 4.3 0 5.3 2.4 5.3 7.7v1.3h-8.4z"/><path d="m177.8 158.6v-11c0-1.6-.4-3.1-2.4-3.1-.8 0-1.7.4-2.1 1.1-.4.8-.5 1.7-.5 2.3v10.7h-2.5v-12.6c0-1.1-.1-2.2-.1-3.3h2.6v2h.1c.8-1.7 1.9-2.3 3.8-2.3 1.4 0 2.9.6 3.4 2 .9-1.7 2.1-2 3.5-2 1.6 0 4.1.3 4.1 4.1v12h-2.5v-11c0-1.6-.4-3.1-2.4-3.1-1 0-1.2 0-1.8.6-.8.7-.9 2.2-.9 2.8v10.7h-2.4v.1z"/><path d="m199.9 149.5c0-4.6-1.2-5.1-3-5.1-1.5 0-2.8.8-2.8 5.1zm-5.8 2c0 4.5 1.1 5.3 3 5.3 1.6 0 2.5-1.4 2.6-3h2.7c0 3.6-2 5.1-5.2 5.1-3.1 0-5.7-1-5.7-8 0-4.7.5-8.5 5.7-8.5 4.3 0 5.4 2.4 5.4 7.7v1.3h-8.5z"/><path d="m209.2 158.6h-2.6v-15.8h2.8v15.8zm-2.9-22.6h3v2.8h-3z"/><path d="m221.2 158.6v-11c0-1.7-.5-3.1-2.6-3.1-2.7 0-3 2.6-3 4.7v9.4h-2.5v-12.6c0-1.1-.1-2.2-.1-3.3h2.6v2h.1c1-1.8 2-2.3 4-2.3 3.2 0 4 2 4 5.1v11h-2.5z"/><path d="m232.3 158.9c-3.2 0-5.3-1.6-5.2-5.1h2.8c0 .9 0 3 2.5 3 1.4 0 2.6-.8 2.6-2.4 0-2.8-7.4-2.9-7.4-7.6 0-1.7 1-4.3 5.2-4.3 2.7 0 4.9 1.3 4.7 4.5h-2.7c0-1.7-.8-2.6-2.4-2.6-1.3 0-2.3.8-2.3 2.1 0 2.8 7.4 2.8 7.4 7.6-.1 3.5-2.3 4.8-5.2 4.8z"/><path d="m248.8 147.9c.1-2.6-1.2-3.3-2-3.3-1.8 0-3.1.9-3.1 5.2 0 5.1.6 7 3.1 7 .5 0 2.3-.7 2.1-3.5h2.6c.1 4.5-3 5.6-4.7 5.6-3.1 0-5.7-1-5.7-8 0-4.7.5-8.5 5.7-8.5 3 0 4.7 1.9 4.6 5.3h-2.6z"/><path d="m263.9 158.6v-10.7c0-1.9-.6-3.3-2.7-3.3-2.5 0-3 2.1-3 4.8v9.4h-2.5v-22.6h2.5v8.8h.1c1-1.9 2.1-2.3 4.1-2.3 2.6 0 4 1.3 4 4.9v11.2h-2.5z"/><path d="m272.8 153.9c0 1.6.8 2.9 2.4 2.9 1.5 0 3.3-1 3.1-6.1-2.5.1-5.5-.2-5.5 3.2zm5.4 2.4c-.8 1.8-1.9 2.6-3.8 2.6-3.1 0-4.1-2.1-4.1-5.2 0-4.8 4.4-5 7.8-4.9.1-2.1.1-4.3-2.5-4.3-1.6 0-2.5 1.1-2.4 2.8h-2.6c.1-3.6 1.9-4.8 5.1-4.8 3.9 0 4.8 2.1 4.8 4.8v7.6c0 1.2.1 2.6.3 3.8h-2.7v-2.2h.1z"/><path d="m285.8 142.7v-3.1c0-3.2 2.1-3.8 4.3-3.8.5 0 .8 0 1.2.1v1.9c-2.6-.2-3 1-3 2.2v2.7h3v1.9h-3.1v13.9h-2.5v-13.9h-2.3v-1.9z"/><path d="m293.8 142.7v-3l2.5-1.1v4.2h3.2v1.9h-3.2v9.7c0 1 0 2.3 2.3 2.3.2 0 .5-.1 1.1-.1v2c-.8.1-1.6.2-2.4.2-2.3 0-3.3-1-3.3-2.8v-11.2h-2.5v-1.8h2.4v-.3z"/></g></svg>