<svg xmlns:xlink="http://www.w3.org/1999/xlink" xmlns="http://www.w3.org/2000/svg" class="a-svg" viewBox="0 0 150 52.63" width="160" height="56.138666666667" role="img" aria-labelledby="logo-oesa-title" focusable="false"><title id="logo-oesa-title"></title><svg id="uuid-9a62fb4b-421f-4042-84c5-28b4be22b34e" data-name="Ebene_1" xmlns="http://www.w3.org/2000/svg" viewBox="0 0 150 52.63"></svg><path d="M21.43,7.79h9.22V.61h-9.22v7.18ZM9.13,7.79h9.22V.61h-9.22v7.18ZM.24,30.53c0,12.04,7.86,20.65,19.62,20.65s19.62-8.61,19.62-20.65-7.86-20.65-19.62-20.65S.24,18.5.24,30.53ZM12.16,30.53c0-8.78,4.66-10.82,7.7-10.82s7.7,2.04,7.7,10.82-4.66,10.82-7.7,10.82c-3.03,0-7.7-2.05-7.7-10.82Z" style="" fill="#008C42"></path><path d="M40.46,36.99c.11,12.59,12.63,14.19,17.02,14.19,8.62,0,17.89-3.31,17.89-13.58,0-7.23-5.42-9.83-10.9-11.37-5.48-1.55-11.01-2.15-11.22-4.97,0-2.21,2.66-2.65,4.28-2.65,1.19,0,2.55.28,3.52.99.98.66,1.62,1.66,1.41,3.15h11.28c-.33-9.61-7.75-12.86-16.16-12.86-7.97,0-15.61,3.92-15.61,13.03,0,7.95,7,9.66,13.12,11.43,6.67,1.93,8.35,2.48,8.35,4.53,0,2.93-2.98,3.59-4.93,3.59-2.22,0-4.83-.5-5.69-2.87-.27-.72-.43-1.6-.43-2.6h-11.93Z" style="" fill="#008C42"></path><path d="M90.17,36.04l3.74-12.15h.11l3.47,12.15h-7.32ZM73.86,50.12h11.98l1.74-5.63h12.31l1.62,5.63h12.36l-14.09-39.42h-11.66l-14.26,39.42Z" style="" fill="#008C42"></path><path d="M116.01,10.71h33.98v24.14c0,1.33-1.27,16.5-16.99,17.03-15.73-.53-16.99-15.6-16.99-17.03V10.71Z" style="" fill="#141414"></path><path d="M119.75,44.43h.48v-1.16s2.45,0,2.45,0v1.16h2.17v-.99s0-.17,0-.17h2.55v1.16s2.11,0,2.11,0v-1.16h2.45v1.16h2.12v-1.16h2.5v1.16h2.16v-1.16h2.45v1.16s2.11,0,2.11,0v-.99s0-.17,0-.17h2.45v1.16s.52,0,.52,0c2.73-4.14,3.1-8.73,3.1-9.44v-1.42h-32.68v1.42c0,.76.36,5.33,3.07,9.44Z" style="" fill="#FFFFFF"></path><path d="M132.17,34.42c.7,0,.95.4,1.3.69.23.19.49.34.49.37,0,.22-.32.8-.32.8.31-.07.61-.83.73-.83.11,0,1.02.29,1.3.35,0,0,.79.06.86.08.98.29,2.07,1.45,2.3,1.54.67.29.85-.18,1.24,1.76.26,1.3,1.41.87,1.46,1.73.05,1.05-.01.93,0,1.01,0,0,.11.02.11.37v.29c0,.4-.05.66-.61.67-.83.02-.87-.04-1.66-.02-.31,0-.4,0-.4-.28,0-.6.86-.29.86-.56,0-.85-1.94-1.55-1.94-2.03l.24-.72v-.13h-.05l-.3.83.19,1.36c-.26.77-.72,1.53-1.63,1.55-.62.02-.83-.02-1.39-.01-.14,0-.45-.02-.45-.16,0-.97.95-.01.95-1.23,0-.08-.22-.33-.35-.56-.15-.28-.3-.6-.32-.61-.24-.16-1.19.03-1.68-.24-.62-.35-1-.28-1-1.28h-.08v.29c0,.27.4,1.44.4,1.44v.24s-.34,2.11-.98,2.12h-1.94c-.12-.35-.02-.34-.02-.34,0-.73.81-.19.81-.85s0-.81,0-.85c0,0-.11-.02-.11-.4v-.37c0-.14-.27-.63-.27-.72v-.32h-.08c0,.5.05.6.05.99,0,.37-.81.6-.94.66-.84.37-.57.8-.89.8h-1.89c-.02-.17,0-.24,0-.24,0,0-.09-.02-.03-.16l.69-.64.42-.8c.67-.65,1.39-.62,1.54-.99v-.16h-.33c-.49,0-1.19-.4-1.51-.4h-.27s-.31-.03-.44-.19v-.11s.48-.09.6-.24h-.56c-.46,0-.96-.11-.96-.58,0-.35,1.36-.59,1.38-1.33.01-.31.15-.19.84-.32.74-.15.16-.45.78-.45h.16c.29,0,.49.38.49.77,0,.34-.16.5-.13.69.19-.11.35-.54.35-.72,0-.11-.05-.31-.16-.72,1.98-.78,1.91-.8,2.13-.8h.51c.14,0,.52-.07.52-.07ZM127.16,36.5c.08.04.21.11.3.17-.07.03.02.2-.04.17h-.22c-.04-.12,0-.2-.03-.26v-.08ZM126.46,41.44s-.03.06.11,0c0,.09-.05.29-.16.29-.03,0,0-.03-.08,0,.03-.19.06-.18.13-.29ZM126.87,41.46s0,.02.08,0v.08c-.07.06-.09.11-.13.19-.12-.08-.15.11-.15.03,0-.09.11-.3.2-.3ZM129.81,42.8c-.07.17-.03.18-.13.25v-.2c.06-.03.06-.04.13-.05ZM130.19,42.8c-.08.16-.13.27-.24.28.03-.31.12-.28.24-.28ZM135.3,42.8c0,.13.05.15.02.25h-.23l.07-.15c.03-.05,0-.08.14-.1ZM139.38,42.8c0,.09-.03.13-.05.21l-.13.03s0-.11,0-.14c0-.14.09-.08.19-.1ZM139.62,42.8s.06.02.11.05c-.05.06,0,.22-.19.19v-.11s.05-.09.08-.13ZM134.87,42.82h.08c-.03.11-.05.1,0,.19-.03,0-.21.02-.24.03v-.14s.15-.05.16-.08Z" style="" fill="#141414"></path><path d="M119.85,44.67h.61v-1.16h1.98v1.16h2.63v-1.16s2.08,0,2.08,0v1.16h2.58v-1.16h1.98v1.16h2.58v-1.16s2.03,0,2.03,0v1.16h2.63v-1.16s1.99,0,1.99,0v1.16s2.57,0,2.57,0v-1.16h1.99v1.16s.6,0,.6,0c-2.36,3.4-6.35,6.43-13.11,6.66-6.78-.23-10.79-3.26-13.14-6.66Z" style="" fill="#E30018"></path><path d="M149.34,28.82h-32.69v2.24h32.69v-2.24Z" style="" fill="#FFCC00"></path><path d="M149.34,24.46h-32.69v2.24h32.69v-2.24Z" style="" fill="#FFCC00"></path><path d="M139.7,20.09h-23.04v2.24h23.04v-2.24Z" style="" fill="#FFCC00"></path><path d="M139.7,15.73h-23.04v2.24h23.04v-2.24Z" style="" fill="#FFCC00"></path><path d="M139.7,11.35h-23.04v2.24h23.04v-2.24Z" style="" fill="#FFCC00"></path><path d="M141.35,33.11l-24.7-16.36v-.2s25,16.57,25,16.57h-.3Z" style="" fill="#141414"></path><path d="M149.34,31.81v.24s-.57-.55-.51-1.34c-.68.39-1.54.38-2.23-.08-.61-.4-.95-1.06-.98-1.75-.62.24-1.36.2-1.96-.2-.68-.45-1.03-1.23-.98-2-.67.34-1.56.32-2.23-.12-.62-.41-.96-1.08-.99-1.78-.63.26-1.35.23-1.96-.17-.69-.45-1.04-1.24-.98-2.01-.66.34-1.56.33-2.23-.11-.62-.41-.97-1.09-.99-1.79-.63.27-1.4.21-2.03-.2-.68-.45-1.03-1.21-.98-1.98-.67.35-1.49.34-2.16-.1-.62-.41-.97-1.09-.99-1.8-.64.27-1.4.22-2.03-.19-.68-.45-1.03-1.23-.98-2-.71.34-1.55.33-2.23-.12-.62-.41-.96-1.08-.99-1.77-.63.25-1.35.23-1.96-.18-.68-.45-.75-1-.75-1h.19s-.03.39.64.84c.61.4,1.39.43,2.02.17.02.7.31,1.37.93,1.78.68.45,1.51.46,2.18.11h.1c-.05.79.24,1.56.92,2.02.62.41,1.45.46,2.08.19.02.7.31,1.39.93,1.8.67.44,1.55.45,2.22.1-.04.76.25,1.53.93,1.98.62.41,1.45.47,2.08.2.02.7.31,1.38.93,1.8.67.44,1.63.37,2.29.03-.05.78.23,1.64.92,2.09.61.41,1.4.35,2.03.09.02.69.3,1.45.92,1.86.67.44,1.63.39,2.29.04-.05.77.23,1.63.91,2.08.61.4,1.4.37,2.03.12.03.68.31,1.42.92,1.82.7.46,1.62.39,2.3,0-.06.78.37,1.33.37,1.33Z" style="" fill="#141414"></path><path d="M149.34,32.05s-.57-.55-.51-1.34c-.68.39-1.54.38-2.23-.08-.61-.4-.95-1.06-.98-1.74-.62.24-1.36.19-1.96-.2-.68-.45-1.03-1.23-.98-2-.67.35-1.56.32-2.23-.12-.62-.41-.96-1.08-.99-1.78-.63.26-1.35.23-1.96-.17-.69-.45-1.04-1.24-.98-2.01-.66.34-1.56.33-2.23-.11-.62-.41-.97-1.09-.99-1.79-.63.27-1.4.21-2.03-.2-.68-.45-1.03-1.21-.98-1.98-.67.35-1.49.34-2.16-.1-.62-.41-.97-1.1-.99-1.8-.64.27-1.4.22-2.03-.19-.68-.45-1.03-1.23-.98-2h-.04c-.67.34-1.51.33-2.18-.12-.62-.41-.96-1.08-.99-1.78-.63.26-1.35.23-1.96-.17-.68-.45-.75-1-.75-1h-1.57s0,5.19,0,5.19l25,16.57h7.69v-1.06h0Z" style="" fill="#008C42"></path><path d="M121.06,16.34l-3.26.21-1.14-3.12,3.26-.21,1.13,3.12ZM120.19,15.76l-.68-1.89-1.97.13.69,1.89,1.97-.13Z" style="" fill="#FFFFFF"></path><path d="M125.45,19.25l-3.26.21-1.14-3.12,3.26-.21,1.14,3.12ZM124.57,18.67l-.69-1.89-1.97.13.69,1.89,1.97-.13Z" style="" fill="#FFFFFF"></path><path d="M129.83,22.16l-3.26.21-1.13-3.12,3.26-.21,1.13,3.12ZM128.96,21.58l-.69-1.88-1.97.13.68,1.89,1.97-.13Z" style="" fill="#FFFFFF"></path><path d="M134.22,25.06l-3.26.21-1.13-3.12,3.26-.21,1.13,3.12ZM133.35,24.49l-.68-1.88-1.97.12.68,1.88,1.97-.13Z" style="" fill="#FFFFFF"></path><path d="M138.61,27.97l-3.26.21-1.14-3.12,3.26-.21,1.14,3.12ZM137.74,27.39l-.69-1.88-1.97.13.68,1.88,1.97-.13Z" style="" fill="#FFFFFF"></path><path d="M143,30.88l-3.26.21-1.13-3.12,3.26-.21,1.14,3.12ZM142.12,30.3l-.69-1.89-1.97.13.69,1.88,1.97-.12Z" style="" fill="#FFFFFF"></path><path d="M147.12,33.11h-3.32l-.81-2.24,3.26-.21.87,2.45ZM146.47,33.11l-.64-1.79-1.97.13.62,1.66h1.99Z" style="" fill="#FFFFFF"></path><path d="M149.34,11.35v10.98h-9.64v-10.98h9.64Z" style="" fill="#FFFFFF"></path><path d="M131.93,51.33v-3.35s.12-1.15,1.11-1.15,1.15,1.16,1.15,1.16v3.34h-2.26Z" style="stroke-miterlimit: 3.86;" stroke="#141414" fill="#FFFFFF" stroke-width="0.16px"></path><path d="M143.16,18.91c-.1.07-.28.21-.28.32,0,.13.25.15.25.37,0,.11-.07.13-.15.17v-.12c-.22-.01-.07.02-.23-.1-.08.08-.13.27-.1.48l-.1.08c-.1-.06-.18-.21-.18-.27,0,0,.04-.15.1-.23-.14-.03-.25.14-.27.25-.09-.02-.13-.04-.13-.12v-.21c.07-.08.11-.11.19-.21-.09,0-.15,0-.21,0l-.1.08v-.12c0-.31.32-.23.33-.23h.19c.12,0,.34-.19.51-.33-.11-.12-.22-.23-.26-.26.11-.15,1.05-.61,1.15-1.05,0,0-.22-.07-.97.77,0,0-.66.22-.62-.06,0-.01,1.1-.86,1.08-1.28,0,0-1.3,1.43-1.53,1.24,0,0-.71-.37-.69-.6.02-.3,1.58-.94,1.58-.94l.15-.24c-.35.12-1.25.59-1.52.62-.39.04-.85.08-1.04-.72-.12-.54,1.29-.74,2.16-1.06l-.06-.16c-.21-.11-1.31.62-1.95.38-.12-.05-.8-.88-.43-1.26.18-.14,1.38-.34,1.82-.48.27-.09.15-.21,0-.22,0,0-1.2.4-1.64.18-.37-.19-.18-1.2-.12-1.38h2.65c.08,0,.24.12.24.35,0,.31-.35.89-.35,1.34,0,.3.32.8.86.8.59,0,.72-.89.82-1.11,0,0-.41.11-.69.27l-.07-.02c0-.09.11-.23.11-.31-.28-.04-.36.18-.68-.15.21-.15.59-.18.42-.24.06-.22-.06-.68.99-.68.02,0,.91.21.91.51,0,0-.26.84-.26,1.34,0,.26.11.4.34.41.53,0,.85-.5.85-.8,0-.44-.35-1.02-.35-1.34,0-.23.15-.35.24-.35h2.65c.06.18.25,1.19-.12,1.38-.44.22-1.64-.18-1.64-.18-.15.01-.27.13,0,.22.44.14,1.64.34,1.82.48.37.38-.3,1.22-.43,1.26-.64.24-1.74-.49-1.95-.38l-.06.16c.87.32,2.28.52,2.16,1.06-.19.8-.66.76-1.04.72-.28-.03-1.17-.5-1.53-.62l.15.24s1.56.64,1.58.94c.01.23-.7.6-.7.6-.22.19-1.52-1.24-1.52-1.24-.02.42,1.08,1.27,1.08,1.28.04.28-.62.06-.62.06-.75-.84-.97-.78-.97-.78.1.44,1.04.89,1.15,1.05-.04.03-.13.12-.24.24,0,.34.88.27,1.07.54v.21c-.06-.05-.08-.1-.13-.1,0,0-.15.03-.19.08.1.02.25.14.25.27,0,.08-.04.14-.08.19-.11-.15-.08-.1-.25-.21-.05.16,0,.38-.17.48h-.11s0-.06.06-.12c-.03-.04-.08-.07-.08-.15v-.27c-.09,0-.19.13-.27,0-.01.11-.02.11-.02.11-.15.02-.15-.04-.15-.11,0-.2.23-.31.23-.31-.1-.18-.25-.29-.34-.38l-.15.18c-.31-.44-.49-.65-.62-.7-.03.09-.09.35-.09.35,0,.69,1.33,2.45,1.33,2.45-.22.1-.27.07-.56.06-.13,0-.42-.16-.42-.16-.05,0-.6.6-.76.6-.19,0-.74-.6-.79-.6,0,0-.28.15-.41.16-.29.01-.34.04-.56-.06,0,0,1.33-1.75,1.33-2.45,0,0-.06-.26-.09-.35-.13.05-.31.25-.62.7l-.16-.18Z" style="" fill="#141414"></path><path d="M144.25,13.21c0,.2-.5.49-.62.57.07-.22.11-.27.28-.41.05-.04.11-.09.15-.15,0-.13-.49-.17-.57-.17.06-.19.08-.43.34-.43.31,0,.42.31.42.6Z" style="" fill="#FFCC00"></path><path d="M144.56,12.88c-.05,0-.08.05-.12,0-.04-.04-.09-.03-.13-.07h-.02c.03.09.02.28.13.28.05,0,.14-.02.18-.05.05-.03.14-.14.2-.18h-.1s-.14.01-.14.01Z" style="" fill="#FFFFFF"></path></svg>