<?xml version="1.0" encoding="UTF-8"?>
<svg id="Layer_1" data-name="Layer 1" xmlns="http://www.w3.org/2000/svg" viewBox="0 0 215 185">
  <defs>
    <style>
      .cls-1 {
        fill: #f7fafe;
      }

      .cls-1, .cls-2 {
        stroke-width: 0px;
      }

      .cls-2 {
        fill: #fff0b7;
      }

      .cls-3 {
        opacity: .2;
      }
    </style>
  </defs>
  <path class="cls-1" d="M53,34.5l50.66,29.25v58.5l-50.66,29.25L2.34,122.25v-58.5l50.66-29.25Z"/>
  <g class="cls-3">
    <path class="cls-2" d="M53,34.5L2.34,63.75v58.5l50.16,28.96.5.29,50.67-29.25v-58.5l-50.67-29.25ZM101.67,121.1l-48.67,28.09L4.34,121.1v-56.19l48.66-28.1,48.67,28.1v56.19Z"/>
  </g>
  <path class="cls-1" d="M161,34.5l50.66,29.25v58.5l-50.66,29.25-50.66-29.25v-58.5l50.66-29.25Z"/>
  <g class="cls-3">
    <path class="cls-2" d="M161,34.5l-50.66,29.25v58.5l50.16,28.96.5.29,50.67-29.25v-58.5l-50.67-29.25ZM209.67,121.1l-48.67,28.09-48.66-28.09v-56.19l48.66-28.1,48.67,28.1v56.19Z"/>
  </g>
  <polygon class="cls-1" points="157.67 0 157.67 29.25 107 58.5 56.34 29.25 56.34 0 157.67 0"/>
  <g class="cls-3">
    <path class="cls-2" d="M155.67,0v28.1l-48.67,28.09-48.66-28.09V0h-2v29.25l50.66,29.25,50.67-29.25V0h-2Z"/>
  </g>
  <polygon class="cls-1" points="215 0 215 58.5 164.34 29.25 164.34 0 215 0"/>
  <g class="cls-3">
    <path class="cls-2" d="M166.34,28.1V0h-2v29.25l50.66,29.25v-2.31l-48.66-28.09Z"/>
  </g>
  <polygon class="cls-1" points="50.67 0 50.67 29.25 0 58.5 0 0 50.67 0"/>
  <g class="cls-3">
    <path class="cls-2" d="M48.67,0v28.1L0,56.19v2.31l50.67-29.25V0h-2Z"/>
  </g>
  <polygon class="cls-1" points="157.67 155.75 157.67 185 56.34 185 56.34 155.75 107 126.5 107.5 126.79 157.67 155.75"/>
  <g class="cls-3">
    <path class="cls-2" d="M107.5,126.79l-.5-.29-50.66,29.25v29.25h2v-28.09l48.66-28.1,48.67,28.1v28.09h2v-29.25l-50.17-28.96Z"/>
  </g>
  <polygon class="cls-1" points="215 126.5 215 185 164.34 185 164.34 155.75 215 126.5"/>
  <g class="cls-3">
    <path class="cls-2" d="M164.34,155.75v29.25h2v-28.09l48.66-28.1v-2.31l-50.66,29.25Z"/>
  </g>
  <polygon class="cls-1" points="50.67 155.75 50.67 185 0 185 0 126.5 .5 126.79 50.67 155.75"/>
  <g class="cls-3">
    <path class="cls-2" d="M.5,126.79l-.5-.29v2.31l48.67,28.1v28.09h2v-29.25L.5,126.79Z"/>
  </g>
</svg>