<?xml version="1.0" encoding="UTF-8"?>
<svg id="Layer_1" data-name="Layer 1" xmlns="http://www.w3.org/2000/svg" viewBox="0 0 180 180">
  <defs>
    <style>
      .cls-1 {
        fill: #fbc322;
        stroke-width: 0px;
      }
    </style>
  </defs>
  <path class="cls-1" d="M38.55,119.74L4.21,99.91l-.07-39.66,34.23-19.8,34.34,19.83h0s31.31-18.12,31.31-18.12v-.12s-.03-37.93-.03-37.93c0-1.8,1.26-3.3,2.87-3.29,1.61,0,2.88,1.49,2.88,3.29l.03,37.93s0,.06,0,.09l28.57,16.49,32.79-18.97c1.56-.9,3.49-.55,4.3.84.81,1.4.14,3.24-1.41,4.14l-32.73,18.94.06,36.41h-.02s34.34,19.84,34.34,19.84l.07,39.66-34.22,19.8-34.34-19.83-34.2,19.79-34.34-19.83-.07-39.66h0ZM38.37,48.18l-27.53,15.93.05,31.94,27.66,15.97,27.54-15.93-.06-31.94-27.66-15.97ZM141.51,171.55l27.54-15.93-.06-31.94-27.66-15.97-27.53,15.93.05,31.94,27.66,15.97Z"/>
</svg>